<ttFont>
        <CharString name=".notdef">
          -325 endchar
        </CharString>
        <CharString name="A">
          49 21 -21 213 20 370 34 hstem
          19 507 vstem
          526 hmoveto
          -233 637 rlineto
          -20 hlineto
          -254 -637 rlineto
          24 hlineto
          14 43 68 170 rlineto
          302 hlineto
          63 -170 13 -43 rlineto
          -83 233 rmoveto
          -287 hlineto
          147 370 rlineto
          4 hlineto
          endchar
        </CharString>
        <CharString name="AE">
          286 0 20 582 35 -20 20 hstemhm
          455.5 21.5 hintmask 10110000
          766 16 rmoveto
          -2 4 rlineto
          -287 hlineto
          -46 274 233 38 3 17 -3 3 -236 -39 -51 304 rlineto
          275 hlineto
          5 16 -3 4 rlineto
          -301 hlineto
          -368 -637 rlineto
          27 hlineto
          21 43 117 204 261 43 42 -247 5 -43 rlineto
          304 hlineto
          -354 310 rmoveto
          -244 -40 rlineto
          hintmask 11010000
          191 332 rlineto
          3 hlineto
          endchar
        </CharString>
        <CharString name="AEacute">
          286 0 20 582 35 -20 20 hstemhm
          455.5 21.5 hintmask 10110000
          438 727 rmoveto
          5 -3 59 30 56 29 59 34 rlinecurve
          2 5 -7 12 -5 2 -66 -39 -56 -29 -54 -26 rlinecurve
          335 -726 rmoveto
          -2 4 rlineto
          -287 hlineto
          -46 274 233 38 3 17 -3 3 -236 -39 -51 304 rlineto
          275 hlineto
          5 16 -3 4 rlineto
          -301 hlineto
          -368 -637 rlineto
          27 hlineto
          21 43 117 204 261 43 42 -247 5 -43 rlineto
          304 hlineto
          -354 310 rmoveto
          -244 -40 rlineto
          hintmask 11010000
          191 332 rlineto
          3 hlineto
          endchar
        </CharString>
        <CharString name="Aacute">
          49 21 -21 213 20 370 34 hstem
          19 507 vstem
          222 727 rmoveto
          5 -3 59 30 56 29 59 34 rlinecurve
          2 5 -7 12 -5 2 -66 -39 -56 -29 -54 -26 rlinecurve
          311 -742 rmoveto
          -233 637 rlineto
          -20 hlineto
          -254 -637 rlineto
          24 hlineto
          14 43 68 170 rlineto
          302 hlineto
          63 -170 13 -43 rlineto
          -83 233 rmoveto
          -287 hlineto
          147 370 rlineto
          4 hlineto
          endchar
        </CharString>
        <CharString name="Abreve">
          49 21 -21 213 20 370 34 91 20 hstem
          19 507 vstem
          276 728 rmoveto
          50 37 26 48 15 hvcurveto
          -13 11 rlineto
          -5 hlineto
          -42 -11 -29 -23 -44 hhcurveto
          -44 -28 23 42 -10 hvcurveto
          -5 hlineto
          -13 -11 rlineto
          -48 14 36 -26 50 hhcurveto
          250 -728 rmoveto
          -233 637 rlineto
          -20 hlineto
          -254 -637 rlineto
          24 hlineto
          14 43 68 170 rlineto
          302 hlineto
          63 -170 13 -43 rlineto
          -83 233 rmoveto
          -287 hlineto
          147 370 rlineto
          4 hlineto
          endchar
        </CharString>
        <CharString name="Abreveacute">
          49 21 -21 213 20 370 34 71 20 158 10 hstem
          19 507 vstem
          260 794 rmoveto
          5 -1 28 30 27 28 26 30 rlinecurve
          1 5 -11 10 rlineto
          -5 hlineto
          -28 -31 -26 -29 -29 -30 rrcurveto
          28 -98 rmoveto
          50 37 26 48 15 hvcurveto
          -13 11 rlineto
          -5 hlineto
          -42 -11 -29 -23 -44 hhcurveto
          -44 -28 23 42 -10 hvcurveto
          -5 hlineto
          -13 -11 rlineto
          -48 14 36 -26 50 hhcurveto
          250 -708 rmoveto
          -233 637 rlineto
          -20 hlineto
          -254 -637 rlineto
          24 hlineto
          14 43 68 170 rlineto
          302 hlineto
          63 -170 13 -43 rlineto
          -83 233 rmoveto
          -287 hlineto
          147 370 rlineto
          4 hlineto
          endchar
        </CharString>
        <CharString name="Abrevedotbelow">
          49 -128 40 109 -21 213 20 370 34 91 20 hstem
          19 507 vstem
          276 728 rmoveto
          50 37 26 48 15 hvcurveto
          -13 11 rlineto
          -5 hlineto
          -42 -11 -29 -23 -44 hhcurveto
          -44 -28 23 42 -10 hvcurveto
          -5 hlineto
          -13 -11 rlineto
          -48 14 36 -26 50 hhcurveto
          250 -728 rmoveto
          -233 637 rlineto
          -20 hlineto
          -254 -637 rlineto
          24 hlineto
          14 43 68 170 rlineto
          302 hlineto
          63 -170 13 -43 rlineto
          -83 233 rmoveto
          -287 hlineto
          147 370 rlineto
          4 hlineto
          -9 -691 rmoveto
          -12 0 -8 -8 0 -12 0 -12 8 -8 0 flex1
          12 0 8 8 0 12 0 12 -8 8 0 flex1
          endchar
        </CharString>
        <CharString name="Abrevegrave">
          49 21 -21 213 20 370 34 71 20 158 10 hstem
          19 507 vstem
          289 794 rmoveto
          12 12 -29 30 -26 29 -28 31 rlinecurve
          -5 hlineto
          -11 -10 1 -5 26 -30 27 -28 28 -30 rlinecurve
          -8 -85 rmoveto
          50 37 26 48 15 hvcurveto
          -13 11 rlineto
          -5 hlineto
          -42 -11 -29 -23 -44 hhcurveto
          -44 -28 23 42 -10 hvcurveto
          -5 hlineto
          -13 -11 rlineto
          -48 14 36 -26 50 hhcurveto
          250 -708 rmoveto
          -233 637 rlineto
          -20 hlineto
          -254 -637 rlineto
          24 hlineto
          14 43 68 170 rlineto
          302 hlineto
          63 -170 13 -43 rlineto
          -83 233 rmoveto
          -287 hlineto
          147 370 rlineto
          4 hlineto
          endchar
        </CharString>
        <CharString name="Abrevehookabove">
          49 21 -21 213 20 370 34 71 20 184 20 hstem
          307 20 vstem
          281 912 rmoveto
          16 10 -8 -12 -15 -18 -21 -33 -22 hvcurveto
          22 -41 17 7 -16 29 rlineto
          31 23 17 22 20 vvcurveto
          21 -18 17 -26 -19 -23 -10 -19 -22 vhcurveto
          8 -14 rlineto
          15 18 20 8 16 hhcurveto
          -5 -204 rmoveto
          50 37 26 48 15 hvcurveto
          -13 11 rlineto
          -5 hlineto
          -42 -11 -29 -23 -44 hhcurveto
          -44 -28 23 42 -10 hvcurveto
          -5 hlineto
          -13 -11 rlineto
          -48 14 36 -26 50 hhcurveto
          250 -708 rmoveto
          -233 637 rlineto
          -20 hlineto
          -254 -637 rlineto
          24 hlineto
          14 43 68 170 rlineto
          302 hlineto
          63 -170 13 -43 rlineto
          -83 233 rmoveto
          -287 hlineto
          147 370 rlineto
          4 hlineto
          endchar
        </CharString>
        <CharString name="Abrevetilde">
          49 21 -21 213 20 370 34 71 20 115 22 15 22 hstemhm
          19 507 hintmask 00000000
          hintmask 11111110
          157 839 rmoveto
          4 hlineto
          24 25 13 17 10 hhcurveto
          hintmask 11111010
          24 90 -34 -4 35 hvcurveto
          5 2 50 47 rlineto
          4 vlineto
          -9 11 rlineto
          -3 hlineto
          -24 -26 -12 -17 -11 hhcurveto
          hintmask 11111110
          -24 -89 34 4 -35 hvcurveto
          -6 -2 -50 -47 rlineto
          -4 vlineto
          128 -122 rmoveto
          -44 -28 23 42 -10 hvcurveto
          -5 hlineto
          -13 -11 rlineto
          -48 14 36 -26 50 hhcurveto
          50 37 26 48 15 hvcurveto
          -13 11 rlineto
          -5 hlineto
          -42 -11 -29 -23 -44 hhcurveto
          250 -728 rmoveto
          -233 637 rlineto
          -20 hlineto
          -254 -637 rlineto
          24 hlineto
          14 43 68 170 rlineto
          302 hlineto
          63 -170 13 -43 rlineto
          -83 233 rmoveto
          -287 hlineto
          147 370 rlineto
          4 hlineto
          endchar
        </CharString>
        <CharString name="Acaron">
          49 21 -21 213 20 370 34 92 20 hstem
          19 507 vstem
          286 729 rmoveto
          31 26 33 26 34 24 -7 14 rcurveline
          -5 hlineto
          -33 -23 -31 -23 -31 -24 -31 24 -31 23 -33 23 rrcurveto
          -5 hlineto
          -7 -14 34 -24 33 -26 33 -26 rlinecurve
          256 -729 rmoveto
          -233 637 rlineto
          -20 hlineto
          -254 -637 rlineto
          24 hlineto
          14 43 68 170 rlineto
          302 hlineto
          63 -170 13 -43 rlineto
          -83 233 rmoveto
          -287 hlineto
          147 370 rlineto
          4 hlineto
          endchar
        </CharString>
        <CharString name="Acircumflex">
          49 21 -21 213 20 370 34 171 20 hstem
          19 507 vstem
          177 738 rmoveto
          5 hlineto
          33 23 31 23 31 24 31 -24 31 -23 33 -23 rrcurveto
          5 hlineto
          7 14 -34 24 -33 26 -33 26 rlinecurve
          -16 hlineto
          -31 -26 -33 -26 -34 -24 rrcurveto
          356 -752 rmoveto
          -233 637 rlineto
          -20 hlineto
          -254 -637 rlineto
          24 hlineto
          14 43 68 170 rlineto
          302 hlineto
          63 -170 13 -43 rlineto
          -83 233 rmoveto
          -287 hlineto
          147 370 rlineto
          4 hlineto
          endchar
        </CharString>
        <CharString name="Acircumflexacute">
          49 21 -21 213 20 370 34 151 20 -4 11 hstemhm
          19 507 hintmask 00000000
          hintmask 11101100
          338 804 rmoveto
          6 hlineto
          68 76 1 5 -11 9 -5 1 -70 -80 rlineto
          hintmask 11110100
          -150 -97 rmoveto
          5 hlineto
          33 23 31 23 31 24 31 -24 31 -23 33 -23 rrcurveto
          5 hlineto
          7 14 -34 24 -33 26 -33 26 rlinecurve
          -16 hlineto
          -31 -26 -33 -26 -34 -24 rrcurveto
          356 -732 rmoveto
          -233 637 rlineto
          -20 hlineto
          -254 -637 rlineto
          24 hlineto
          14 43 68 170 rlineto
          302 hlineto
          63 -170 13 -43 rlineto
          -83 233 rmoveto
          -287 hlineto
          147 370 rlineto
          4 hlineto
          endchar
        </CharString>
        <CharString name="Acircumflexdotbelow">
          49 -128 40 109 -21 213 20 370 34 171 20 hstem
          19 507 vstem
          177 738 rmoveto
          5 hlineto
          33 23 31 23 31 24 31 -24 31 -23 33 -23 rrcurveto
          5 hlineto
          7 14 -34 24 -33 26 -33 26 rlinecurve
          -16 hlineto
          -31 -26 -33 -26 -34 -24 rrcurveto
          356 -752 rmoveto
          -233 637 rlineto
          -20 hlineto
          -254 -637 rlineto
          24 hlineto
          14 43 68 170 rlineto
          302 hlineto
          63 -170 13 -43 rlineto
          -83 233 rmoveto
          -287 hlineto
          147 370 rlineto
          4 hlineto
          -9 -691 rmoveto
          -12 0 -8 -8 0 -12 0 -12 8 -8 0 flex1
          12 0 8 8 0 12 0 12 -8 8 0 flex1
          endchar
        </CharString>
        <CharString name="Acircumflexgrave">
          49 21 -21 213 20 370 34 151 20 -4 11 hstemhm
          19 507 hintmask 00000000
          hintmask 11101100
          304 880 rmoveto
          68 -76 rlineto
          6 hlineto
          11 11 -70 80 -5 -1 -11 -9 rlineto
          hintmask 11110100
          -126 -167 rmoveto
          5 hlineto
          33 23 31 23 31 24 31 -24 31 -23 33 -23 rrcurveto
          5 hlineto
          7 14 -34 24 -33 26 -33 26 rlinecurve
          -16 hlineto
          -31 -26 -33 -26 -34 -24 rrcurveto
          356 -732 rmoveto
          -233 637 rlineto
          -20 hlineto
          -254 -637 rlineto
          24 hlineto
          14 43 68 170 rlineto
          302 hlineto
          63 -170 13 -43 rlineto
          -83 233 rmoveto
          -287 hlineto
          147 370 rlineto
          4 hlineto
          endchar
        </CharString>
        <CharString name="Acircumflexhookabove">
          49 21 -21 213 20 370 34 151 20 94 20 hstem
          386 19 vstem
          362 902 rmoveto
          15 9 -7 -12 -14 -17 -20 -31 -21 hvcurveto
          21 -39 16 7 -15 27 rlineto
          29 22 16 21 19 vvcurveto
          20 -17 17 -24 -19 -21 -10 -18 -21 vhcurveto
          7 -13 rlineto
          14 17 19 7 16 hhcurveto
          -185 -184 rmoveto
          5 hlineto
          33 23 31 23 31 24 31 -24 31 -23 33 -23 rrcurveto
          5 hlineto
          7 14 -34 24 -33 26 -33 26 rlinecurve
          -16 hlineto
          -31 -26 -33 -26 -34 -24 rrcurveto
          356 -732 rmoveto
          -233 637 rlineto
          -20 hlineto
          -254 -637 rlineto
          24 hlineto
          14 43 68 170 rlineto
          302 hlineto
          63 -170 13 -43 rlineto
          -83 233 rmoveto
          -287 hlineto
          147 370 rlineto
          4 hlineto
          endchar
        </CharString>
        <CharString name="Acircumflextilde">
          49 21 -21 213 20 370 34 151 20 35 22 15 22 hstemhm
          19 507 hintmask 00000000
          hintmask 11111110
          157 839 rmoveto
          4 hlineto
          24 25 13 17 10 hhcurveto
          hintmask 11111010
          24 90 -34 -4 35 hvcurveto
          5 2 50 47 rlineto
          4 vlineto
          -9 11 rlineto
          -3 hlineto
          -24 -26 -12 -17 -11 hhcurveto
          hintmask 11111110
          -24 -89 34 4 -35 hvcurveto
          -6 -2 -50 -47 rlineto
          -4 vlineto
          120 -42 rmoveto
          -31 -26 -33 -26 -34 -24 7 -14 rcurveline
          5 hlineto
          33 23 31 23 31 24 31 -24 31 -23 33 -23 rrcurveto
          5 hlineto
          7 14 -34 24 -33 26 -33 26 rlinecurve
          242 -808 rmoveto
          -233 637 rlineto
          -20 hlineto
          -254 -637 rlineto
          24 hlineto
          14 43 68 170 rlineto
          302 hlineto
          63 -170 13 -43 rlineto
          -83 233 rmoveto
          -287 hlineto
          147 370 rlineto
          4 hlineto
          endchar
        </CharString>
        <CharString name="Adieresis">
          49 21 -21 213 20 370 34 123 40 hstem
          207 140 vstem
          207 760 rmoveto
          12 0 8 8 0 12 0 12 -8 8 0 flex1
          -12 0 -8 -8 0 -12 0 -12 8 -8 0 flex1
          140 hmoveto
          12 0 8 8 0 12 0 12 -8 8 0 flex1
          -12 0 -8 -8 0 -12 0 -12 8 -8 0 flex1
          179 -760 rmoveto
          -233 637 rlineto
          -20 hlineto
          -254 -637 rlineto
          24 hlineto
          14 43 68 170 rlineto
          302 hlineto
          63 -170 13 -43 rlineto
          -83 233 rmoveto
          -287 hlineto
          147 370 rlineto
          4 hlineto
          endchar
        </CharString>
        <CharString name="Adotbelow">
          49 -128 40 109 -21 213 20 370 34 hstem
          19 507 vstem
          526 hmoveto
          -233 637 rlineto
          -20 hlineto
          -254 -637 rlineto
          24 hlineto
          14 43 68 170 rlineto
          302 hlineto
          63 -170 13 -43 rlineto
          -83 233 rmoveto
          -287 hlineto
          147 370 rlineto
          4 hlineto
          -9 -691 rmoveto
          -12 0 -8 -8 0 -12 0 -12 8 -8 0 flex1
          12 0 8 8 0 12 0 12 -8 8 0 flex1
          endchar
        </CharString>
        <CharString name="Agrave">
          49 21 -21 213 20 370 34 hstem
          19 507 vstem
          363 729 rmoveto
          7 15 -54 26 -56 29 -66 39 rlinecurve
          -5 -2 -7 -12 2 -5 59 -34 56 -29 59 -30 rlinecurve
          168 -726 rmoveto
          -233 637 rlineto
          -20 hlineto
          -254 -637 rlineto
          24 hlineto
          14 43 68 170 rlineto
          302 hlineto
          63 -170 13 -43 rlineto
          -83 233 rmoveto
          -287 hlineto
          147 370 rlineto
          4 hlineto
          endchar
        </CharString>
        <CharString name="Ahookabove">
          49 21 -21 213 20 370 34 205 20 hstem
          303 20 vstem
          277 842 rmoveto
          16 10 -8 -12 -15 -18 -21 -33 -22 hvcurveto
          22 -41 17 7 -16 29 rlineto
          31 23 17 22 20 vvcurveto
          21 -18 17 -26 -19 -23 -10 -19 -22 vhcurveto
          8 -14 rlineto
          15 18 20 8 16 hhcurveto
          249 -842 rmoveto
          -233 637 rlineto
          -20 hlineto
          -254 -637 rlineto
          24 hlineto
          14 43 68 170 rlineto
          302 hlineto
          63 -170 13 -43 rlineto
          -83 233 rmoveto
          -287 hlineto
          147 370 rlineto
          4 hlineto
          endchar
        </CharString>
        <CharString name="Amacron">
          49 21 -21 213 20 370 34 135 20 hstem
          19 507 vstem
          134 772 rmoveto
          287 hlineto
          2 17 -3 3 rlineto
          -287 hlineto
          -2 -17 rlineto
          395 -775 rmoveto
          -233 637 rlineto
          -20 hlineto
          -254 -637 rlineto
          24 hlineto
          14 43 68 170 rlineto
          302 hlineto
          63 -170 13 -43 rlineto
          -83 233 rmoveto
          -287 hlineto
          147 370 rlineto
          4 hlineto
          endchar
        </CharString>
        <CharString name="Aogonek">
          49 -197 20 198 -21 213 20 370 34 hstem
          441 20 vstem
          589 -124 rmoveto
          -2 hlineto
          -33 -24 -29 -20 -28 hhcurveto
          -28 -17 19 26 24 14 31 49 77 hvcurveto
          2 hlineto
          -233 637 rlineto
          -20 hlineto
          -254 -637 rlineto
          24 hlineto
          14 43 68 170 rlineto
          302 hlineto
          63 -170 13 -43 rlineto
          1 hlineto
          -49 -77 -14 -31 -26 vvcurveto
          -36 26 -27 39 35 32 22 35 27 vhcurveto
          -180 373 rmoveto
          -287 hlineto
          147 370 rlineto
          4 hlineto
          endchar
        </CharString>
        <CharString name="Aring">
          49 21 -21 213 20 370 34 77 20 99 20 hstem
          205 20 101 20 vstem
          275 714 rmoveto
          35 36 25 44 35 -25 35 -46 -42 -28 -30 -39 -44 35 -26 35 hvcurveto
          119 vmoveto
          34 17 -23 -27 -32 -24 -17 -27 -27 -23 18 32 29 19 20 31 hvcurveto
          251 -833 rmoveto
          -233 637 rlineto
          -20 hlineto
          -254 -637 rlineto
          24 hlineto
          14 43 68 170 rlineto
          302 hlineto
          63 -170 13 -43 rlineto
          -83 233 rmoveto
          -287 hlineto
          147 370 rlineto
          4 hlineto
          endchar
        </CharString>
        <CharString name="Aringacute">
          49 21 -21 213 20 370 34 -18 18 99 20 hstemhm
          213 20 101 20 41 7 hintmask 11011111
          210 777 rmoveto
          4 -4 63 19 61 19 64 23 rlinecurve
          2 5 -4 13 -5 3 -72 -27 -60 -19 -58 -16 rlinecurve
          321 -793 rmoveto
          -226 619 rlineto
          28 6 26 24 37 vvcurveto
          35 -25 35 -46 -42 -28 -30 -39 -37 25 -24 28 -7 vhcurveto
          -247 -619 rlineto
          24 hlineto
          14 43 68 170 rlineto
          302 hlineto
          63 -170 13 -43 rlineto
          -270 687 rmoveto
          29 19 20 31 34 17 -23 -27 -32 -24 -17 -27 -27 -23 18 32 vhcurveto
          187 -454 rmoveto
          -287 hlineto
          hintmask 11101111
          147 370 rlineto
          4 hlineto
          endchar
        </CharString>
        <CharString name="Atilde">
          49 21 -21 213 20 370 34 116 22 15 22 hstemhm
          19 507 hintmask 11101100
          147 749 rmoveto
          4 hlineto
          24 27 13 17 11 hhcurveto
          hintmask 11111100
          25 94 -34 -4 37 hvcurveto
          6 2 52 47 rlineto
          4 vlineto
          -9 11 rlineto
          -4 hlineto
          -24 -27 -13 -17 -11 hhcurveto
          hintmask 11101100
          -25 -94 34 4 -37 hvcurveto
          -6 -2 -52 -47 rlineto
          -4 vlineto
          388 -760 rmoveto
          -233 637 rlineto
          -20 hlineto
          -254 -637 rlineto
          24 hlineto
          14 43 68 170 rlineto
          302 hlineto
          63 -170 13 -43 rlineto
          -83 233 rmoveto
          -287 hlineto
          147 370 rlineto
          4 hlineto
          endchar
        </CharString>
        <CharString name="B">
          -13 -3 20 4 -21 320 21.5 276.5 21 hstemhm
          110 20 246 21 30 20 hintmask 10111010
          301 334 rmoveto
          hintmask 01111110
          60 24 36 51 82 vvcurveto
          95 -59 53 -105 vhcurveto
          -123 -2 rlineto
          -637 vlineto
          hintmask 10111010
          -2 34 44 -1 31 hhcurveto
          147 81 66 113 94 -57 51 -89 13 hvcurveto
          -61 284 rmoveto
          hintmask 10111110
          83 53 -49 -78 -82 -41 -54 -75 -15 hvcurveto
          -130 3 rlineto
          275 vlineto
          hintmask 10111010
          85 -601 rmoveto
          -28 -31 1 2 -26 hvcurveto
          300 139 vlineto
          101 -8 57 -50 -86 vvcurveto
          -100 -76 -59 -136 vhcurveto
          endchar
        </CharString>
        <CharString name="C">
          18 -5 20 606 20 hstem
          48 20 vstem
          313 641 rmoveto
          -171 -94 -116 -208 -207 90 -115 164 63 68 24 43 56 hvcurveto
          2 18 -7 2 rlineto
          -43 -53 -66 -24 -64 hhcurveto
          -150 -83 107 194 196 86 109 159 60 57 -20 -36 45 hvcurveto
          7 hlineto
          7 17 rlineto
          38 -49 -64 21 -63 hhcurveto
          endchar
        </CharString>
        <CharString name="C.ss01">
          -38 0 20 451 20 hstem
          61 20 vstem
          567 471 rmoveto
          20 -667 -20 279 vlineto
          -77 -33 -41 -78 -116 vvcurveto
          -114 38 -76 73 -34 vhcurveto
          -272 -20 667 20 -207 hlineto
          20 8 18 10 18 12 2 18 rcurveline
          -6 2 rlineto
          -32 -42 -53 -18 -51 hhcurveto
          -119 -66 79 145 146 68 81 126 48 46 -16 -27 36 hvcurveto
          6 hlineto
          6 18 -15 10 -16 8 -17 7 rlinecurve
          endchar
        </CharString>
        <CharString name="Cacute">
          18 -5 20 606 20 hstem
          48 20 vstem
          432 834 rmoveto
          -5 2 -66 -39 -56 -29 -54 -26 rlinecurve
          7 -15 5 -3 59 30 56 29 59 34 rlinecurve
          2 5 rlineto
          -126 -181 rmoveto
          -171 -94 -116 -208 -207 90 -115 164 63 68 24 43 56 hvcurveto
          2 18 -7 2 rlineto
          -43 -53 -66 -24 -64 hhcurveto
          -150 -83 107 194 196 86 109 159 60 57 -20 -36 45 hvcurveto
          7 hlineto
          7 17 rlineto
          38 -49 -64 21 -63 hhcurveto
          endchar
        </CharString>
        <CharString name="Ccaron">
          18 -5 20 606 20 88 20 hstem
          48 20 vstem
          413 819 rmoveto
          -5 hlineto
          -33 -23 -31 -23 -31 -24 -31 24 -31 23 -33 23 rrcurveto
          -5 hlineto
          -7 -14 34 -24 33 -26 33 -26 rlinecurve
          16 hlineto
          31 26 33 26 34 24 rrcurveto
          -107 -164 rmoveto
          -171 -94 -116 -208 -207 90 -115 164 63 68 24 43 56 hvcurveto
          2 18 -7 2 rlineto
          -43 -53 -66 -24 -64 hhcurveto
          -150 -83 107 194 196 86 109 159 60 57 -20 -36 45 hvcurveto
          7 hlineto
          7 17 rlineto
          38 -49 -64 21 -63 hhcurveto
          endchar
        </CharString>
        <CharString name="Ccedilla">
          18 -178 20 153 20 606 20 hstem
          48 20 277 20 vstem
          491 80 rmoveto
          -7 2 rlineto
          -43 -53 -66 -24 -64 hhcurveto
          -150 -83 107 194 196 86 109 159 60 57 -20 -36 45 hvcurveto
          7 hlineto
          7 17 rlineto
          38 -49 -64 21 -63 hhcurveto
          -171 -94 -116 -208 -205 88 -114 161 -3 hvcurveto
          -20 -59 44 -28 rlineto
          15 -10 9 -7 -16 vvcurveto
          -21 -16 -12 -24 -25 -12 13 18 -12 vhcurveto
          -4 hlineto
          -6 -18 rlineto
          -15 10 19 -18 30 hhcurveto
          32 28 20 33 22 -11 14 -22 14 hvcurveto
          -31 20 16 50 59 4 61 23 52 40 rlinecurve
          endchar
        </CharString>
        <CharString name="Ccircumflex">
          18 -5 20 606 20 167 20 hstem
          48 20 vstem
          213 738 rmoveto
          5 hlineto
          33 23 31 23 31 24 31 -24 31 -23 33 -23 rrcurveto
          5 hlineto
          7 14 -34 24 -33 26 -33 26 rlinecurve
          -16 hlineto
          -31 -26 -33 -26 -34 -24 rrcurveto
          107 -111 rmoveto
          -171 -94 -116 -208 -207 90 -115 164 63 68 24 43 56 hvcurveto
          2 18 -7 2 rlineto
          -43 -53 -66 -24 -64 hhcurveto
          -150 -83 107 194 196 86 109 159 60 57 -20 -36 45 hvcurveto
          7 hlineto
          7 17 rlineto
          38 -49 -64 21 -63 hhcurveto
          endchar
        </CharString>
        <CharString name="Cdotaccent">
          18 -5 20 606 20 135 40 hstem
          48 20 vstem
          313 816 rmoveto
          -12 0 -8 -8 0 -12 0 -12 8 -8 0 flex1
          12 0 8 8 0 12 0 12 -8 8 0 flex1
          -175 vmoveto
          -171 -94 -116 -208 -207 90 -115 164 63 68 24 43 56 hvcurveto
          2 18 -7 2 rlineto
          -43 -53 -66 -24 -64 hhcurveto
          -150 -83 107 194 196 86 109 159 60 57 -20 -36 45 hvcurveto
          7 hlineto
          7 17 rlineto
          38 -49 -64 21 -63 hhcurveto
          endchar
        </CharString>
        <CharString name="D">
          132 -5 20 6 -21 622 20 -5 -20 hstemhm
          110 20 439 20 hintmask 00000000
          hintmask 01011100
          110 637 rmoveto
          -637 vlineto
          hintmask 10101100
          -2 44 122 -3 25 hhcurveto
          185 103 123 221 195 -99 108 -179 hvcurveto
          -10 -627 rmoveto
          -23 -105 3 2 -43 hvcurveto
          hintmask 10011100
          597 vlineto
          hintmask 10101100
          2 41 119 3 21 hhcurveto
          166 92 -101 -182 -208 -96 -116 -172 hvcurveto
          endchar
        </CharString>
        <CharString name="D.ss01">
          56 0 20 451 20 hstem
          112 19 348 20 vstem
          661 471 rmoveto
          20 -761 -20 212 -451 -212 -20 761 20 -288 vlineto
          82 36 44 82 122 vvcurveto
          107 -42 72 -78 32 vhcurveto
          100 -212 rmoveto
          -145 -67 -84 -119 -10 vhcurveto
          -84 hlineto
          -29 1 -32 1 -17 1 rrcurveto
          443 vlineto
          1 31 96 3 17 hhcurveto
          132 72 -75 -136 hvcurveto
          endchar
        </CharString>
        <CharString name="Dcaron">
          132 -5 20 6 -21 622 20 -5 -20 112 20 hstemhm
          110 20 439 20 hintmask 10101110
          317 729 rmoveto
          31 26 33 26 34 24 -7 14 rcurveline
          -5 hlineto
          -33 -23 -31 -23 -31 -24 -31 24 -31 23 -33 23 rrcurveto
          -5 hlineto
          -7 -14 34 -24 33 -26 33 -26 rlinecurve
          hintmask 01011110
          -191 -92 rmoveto
          -637 vlineto
          hintmask 10101110
          -2 44 122 -3 25 hhcurveto
          185 103 123 221 195 -99 108 -179 hvcurveto
          -10 -627 rmoveto
          -23 -105 3 2 -43 hvcurveto
          hintmask 10011110
          597 vlineto
          hintmask 10101110
          2 41 119 3 21 hhcurveto
          166 92 -101 -182 -208 -96 -116 -172 hvcurveto
          endchar
        </CharString>
        <CharString name="Dcroat">
          132 -5 20 6 -21 622 20 -5 -20 155 20 hstemhm
          110 20 439 20 hintmask 10101110
          165 772 rmoveto
          287 hlineto
          2 17 -3 3 rlineto
          -287 hlineto
          -2 -17 rlineto
          hintmask 01011110
          -52 -138 rmoveto
          -637 vlineto
          hintmask 10101110
          -2 44 122 -3 25 hhcurveto
          185 103 123 221 195 -99 108 -179 hvcurveto
          -10 -627 rmoveto
          -23 -105 3 2 -43 hvcurveto
          hintmask 10011110
          597 vlineto
          hintmask 10101110
          2 41 119 3 21 hhcurveto
          166 92 -101 -182 -208 -96 -116 -172 hvcurveto
          endchar
        </CharString>
        <CharString name="Delta">
          49 0 20 583 34 hstem
          19 507 vstem
          526 hmoveto
          -233 637 rlineto
          -20 hlineto
          -254 -637 rlineto
          261 603 rmoveto
          5 hlineto
          213 -583 rlineto
          -451 hlineto
          endchar
        </CharString>
        <CharString name="E">
          -51 0 20 300 20 277 20 hstem
          110 20 vstem
          425 16 rmoveto
          -3 4 rlineto
          -292 300 237 hlineto
          4 16 -3 4 rlineto
          -238 277 287 hlineto
          4 16 -3 4 rlineto
          -308 -637 311 hlineto
          endchar
        </CharString>
        <CharString name="Eacute">
          -51 0 20 300 20 277 20 hstem
          110 20 vstem
          211 727 rmoveto
          5 -3 59 30 56 29 59 34 rlinecurve
          2 5 -7 12 -5 2 -66 -39 -56 -29 -54 -26 rlinecurve
          221 -726 rmoveto
          -3 4 rlineto
          -292 300 237 hlineto
          4 16 -3 4 rlineto
          -238 277 287 hlineto
          4 16 -3 4 rlineto
          -308 -637 311 hlineto
          endchar
        </CharString>
        <CharString name="Ebreve">
          -51 0 20 300 20 277 20 91 20 hstem
          110 20 vstem
          265 728 rmoveto
          50 37 26 48 15 hvcurveto
          -13 11 rlineto
          -5 hlineto
          -42 -11 -29 -23 -44 hhcurveto
          -44 -28 23 42 -10 hvcurveto
          -5 hlineto
          -13 -11 rlineto
          -48 14 36 -26 50 hhcurveto
          160 -712 rmoveto
          -3 4 rlineto
          -292 300 237 hlineto
          4 16 -3 4 rlineto
          -238 277 287 hlineto
          4 16 -3 4 rlineto
          -308 -637 311 hlineto
          endchar
        </CharString>
        <CharString name="Ecaron">
          -51 0 20 300 20 277 20 92 20 hstem
          110 20 vstem
          275 729 rmoveto
          31 26 33 26 34 24 -7 14 rcurveline
          -5 hlineto
          -33 -23 -31 -23 -31 -24 -31 24 -31 23 -33 23 rrcurveto
          -5 hlineto
          -7 -14 34 -24 33 -26 33 -26 rlinecurve
          166 -713 rmoveto
          -3 4 rlineto
          -292 300 237 hlineto
          4 16 -3 4 rlineto
          -238 277 287 hlineto
          4 16 -3 4 rlineto
          -308 -637 311 hlineto
          endchar
        </CharString>
        <CharString name="Ecircumflex">
          -51 0 20 300 20 277 20 171 20 hstem
          110 20 vstem
          166 738 rmoveto
          5 hlineto
          33 23 31 23 31 24 31 -24 31 -23 33 -23 rrcurveto
          5 hlineto
          7 14 -34 24 -33 26 -33 26 rlinecurve
          -16 hlineto
          -31 -26 -33 -26 -34 -24 rrcurveto
          266 -736 rmoveto
          -3 4 rlineto
          -292 300 237 hlineto
          4 16 -3 4 rlineto
          -238 277 287 hlineto
          4 16 -3 4 rlineto
          -308 -637 311 hlineto
          endchar
        </CharString>
        <CharString name="Ecircumflexacute">
          -51 0 20 300 20 277 20 151 20 -4 11 hstemhm
          110 20 hintmask 00000000
          hintmask 11101100
          327 804 rmoveto
          6 hlineto
          68 76 1 5 -11 9 -5 1 -70 -80 rlineto
          hintmask 11110100
          -150 -97 rmoveto
          5 hlineto
          33 23 31 23 31 24 31 -24 31 -23 33 -23 rrcurveto
          5 hlineto
          7 14 -34 24 -33 26 -33 26 rlinecurve
          -16 hlineto
          -31 -26 -33 -26 -34 -24 rrcurveto
          266 -716 rmoveto
          -3 4 rlineto
          -292 300 237 hlineto
          4 16 -3 4 rlineto
          -238 277 287 hlineto
          4 16 -3 4 rlineto
          -308 -637 311 hlineto
          endchar
        </CharString>
        <CharString name="Ecircumflexdotbelow">
          -51 -128 40 88 20 300 20 277 20 171 20 hstem
          110 20 vstem
          166 738 rmoveto
          5 hlineto
          33 23 31 23 31 24 31 -24 31 -23 33 -23 rrcurveto
          5 hlineto
          7 14 -34 24 -33 26 -33 26 rlinecurve
          -16 hlineto
          -31 -26 -33 -26 -34 -24 rrcurveto
          266 -736 rmoveto
          -3 4 rlineto
          -292 300 237 hlineto
          4 16 -3 4 rlineto
          -238 277 287 hlineto
          4 16 -3 4 rlineto
          -308 -637 311 hlineto
          -154 -88 rmoveto
          -12 0 -8 -8 0 -12 0 -12 8 -8 0 flex1
          12 0 8 8 0 12 0 12 -8 8 0 flex1
          endchar
        </CharString>
        <CharString name="Ecircumflexgrave">
          -51 0 20 300 20 277 20 151 20 -4 11 hstemhm
          110 20 hintmask 00000000
          hintmask 11101100
          293 880 rmoveto
          68 -76 rlineto
          6 hlineto
          11 11 -70 80 -5 -1 -11 -9 rlineto
          hintmask 11110100
          -126 -167 rmoveto
          5 hlineto
          33 23 31 23 31 24 31 -24 31 -23 33 -23 rrcurveto
          5 hlineto
          7 14 -34 24 -33 26 -33 26 rlinecurve
          -16 hlineto
          -31 -26 -33 -26 -34 -24 rrcurveto
          266 -716 rmoveto
          -3 4 rlineto
          -292 300 237 hlineto
          4 16 -3 4 rlineto
          -238 277 287 hlineto
          4 16 -3 4 rlineto
          -308 -637 311 hlineto
          endchar
        </CharString>
        <CharString name="Ecircumflexhookabove">
          -51 0 20 300 20 277 20 151 20 94 20 hstem
          110 20 245 19 vstem
          351 902 rmoveto
          15 9 -7 -12 -14 -17 -20 -31 -21 hvcurveto
          21 -39 16 7 -15 27 rlineto
          29 22 16 21 19 vvcurveto
          20 -17 17 -24 -19 -21 -10 -18 -21 vhcurveto
          7 -13 rlineto
          14 17 19 7 16 hhcurveto
          -185 -184 rmoveto
          5 hlineto
          33 23 31 23 31 24 31 -24 31 -23 33 -23 rrcurveto
          5 hlineto
          7 14 -34 24 -33 26 -33 26 rlinecurve
          -16 hlineto
          -31 -26 -33 -26 -34 -24 rrcurveto
          266 -716 rmoveto
          -3 4 rlineto
          -292 300 237 hlineto
          4 16 -3 4 rlineto
          -238 277 287 hlineto
          4 16 -3 4 rlineto
          -308 -637 311 hlineto
          endchar
        </CharString>
        <CharString name="Ecircumflextilde">
          -51 0 20 300 20 277 20 151 20 -4 11 hstemhm
          110 20 hintmask 00000000
          hintmask 11101100
          293 880 rmoveto
          68 -76 rlineto
          6 hlineto
          11 11 -70 80 -5 -1 -11 -9 rlineto
          hintmask 11110100
          -126 -167 rmoveto
          5 hlineto
          33 23 31 23 31 24 31 -24 31 -23 33 -23 rrcurveto
          5 hlineto
          7 14 -34 24 -33 26 -33 26 rlinecurve
          -16 hlineto
          -31 -26 -33 -26 -34 -24 rrcurveto
          266 -716 rmoveto
          -3 4 rlineto
          -292 300 237 hlineto
          4 16 -3 4 rlineto
          -238 277 287 hlineto
          4 16 -3 4 rlineto
          -308 -637 311 hlineto
          endchar
        </CharString>
        <CharString name="Edieresis">
          -51 0 20 300 20 277 20 123 40 hstem
          110 20 66 140 vstem
          196 760 rmoveto
          12 0 8 8 0 12 0 12 -8 8 0 flex1
          -12 0 -8 -8 0 -12 0 -12 8 -8 0 flex1
          140 hmoveto
          12 0 8 8 0 12 0 12 -8 8 0 flex1
          -12 0 -8 -8 0 -12 0 -12 8 -8 0 flex1
          89 -744 rmoveto
          -3 4 rlineto
          -292 300 237 hlineto
          4 16 -3 4 rlineto
          -238 277 287 hlineto
          4 16 -3 4 rlineto
          -308 -637 311 hlineto
          endchar
        </CharString>
        <CharString name="Edotaccent">
          -51 0 20 300 20 277 20 139 40 hstem
          110 20 vstem
          266 776 rmoveto
          12 0 8 8 0 12 0 12 -8 8 0 flex1
          -12 0 -8 -8 0 -12 0 -12 8 -8 0 flex1
          159 -760 rmoveto
          -3 4 rlineto
          -292 300 237 hlineto
          4 16 -3 4 rlineto
          -238 277 287 hlineto
          4 16 -3 4 rlineto
          -308 -637 311 hlineto
          endchar
        </CharString>
        <CharString name="Edotbelow">
          -51 -128 40 88 20 300 20 277 20 hstem
          110 20 vstem
          425 16 rmoveto
          -3 4 rlineto
          -292 300 237 hlineto
          4 16 -3 4 rlineto
          -238 277 287 hlineto
          4 16 -3 4 rlineto
          -308 -637 311 hlineto
          -154 -88 rmoveto
          -12 0 -8 -8 0 -12 0 -12 8 -8 0 flex1
          12 0 8 8 0 12 0 12 -8 8 0 flex1
          endchar
        </CharString>
        <CharString name="Egrave">
          -51 0 20 300 20 277 20 hstem
          110 20 vstem
          352 729 rmoveto
          7 15 -54 26 -56 29 -66 39 rlinecurve
          -5 -2 -7 -12 2 -5 59 -34 56 -29 59 -30 rlinecurve
          78 -710 rmoveto
          -3 4 rlineto
          -292 300 237 hlineto
          4 16 -3 4 rlineto
          -238 277 287 hlineto
          4 16 -3 4 rlineto
          -308 -637 311 hlineto
          endchar
        </CharString>
        <CharString name="Ehookabove">
          -51 0 20 300 20 277 20 205 20 hstem
          110 20 162 20 vstem
          266 842 rmoveto
          16 10 -8 -12 -15 -18 -21 -33 -22 hvcurveto
          22 -41 17 7 -16 29 rlineto
          31 23 17 22 20 vvcurveto
          21 -18 17 -26 -19 -23 -10 -19 -22 vhcurveto
          8 -14 rlineto
          15 18 20 8 16 hhcurveto
          159 -826 rmoveto
          -3 4 rlineto
          -292 300 237 hlineto
          4 16 -3 4 rlineto
          -238 277 287 hlineto
          4 16 -3 4 rlineto
          -308 -637 311 hlineto
          endchar
        </CharString>
        <CharString name="Emacron">
          -51 0 20 300 20 277 20 135 20 hstem
          110 20 vstem
          123 772 rmoveto
          287 hlineto
          2 17 -3 3 rlineto
          -287 hlineto
          -2 -17 rlineto
          305 -759 rmoveto
          -3 4 rlineto
          -292 300 237 hlineto
          4 16 -3 4 rlineto
          -238 277 287 hlineto
          4 16 -3 4 rlineto
          -308 -637 311 hlineto
          endchar
        </CharString>
        <CharString name="Eng">
          165 21 -21 595 42 0 -20 21 -20 hstemhm
          110 20 288 11 110 19 hintmask 10011010
          559 176 rmoveto
          1 462 -20 -2 -2 -594 rlineto
          -4 hlineto
          hintmask 10101010
          -404 595 rlineto
          -19 hlineto
          -1 -447 rlineto
          -190 20 199 vlineto
          hintmask 11001110
          1 396 rlineto
          4 hlineto
          400 -590 -8 -52 -34 -36 -75 -44 rlinecurve
          -6 vlineto
          11 -11 rlineto
          95 56 34 48 79 vvcurveto
          endchar
        </CharString>
        <CharString name="Eogonek">
          -51 -197 20 177 20 300 20 277 20 hstem
          110 20 142 20 vstem
          420 -124 rmoveto
          -2 hlineto
          -33 -24 -29 -20 -28 hhcurveto
          -28 -17 19 26 16 5 16 15 22 hvcurveto
          53 78 rlineto
          56 hlineto
          4 16 -3 4 rlineto
          -292 300 237 hlineto
          4 16 -3 4 rlineto
          -238 277 287 hlineto
          4 16 -3 4 rlineto
          -308 -637 231 hlineto
          -49 -72 rlineto
          -13 -19 -7 -21 -20 vvcurveto
          -40 26 -25 39 35 32 22 35 27 vhcurveto
          endchar
        </CharString>
        <CharString name="Eth">
          149 -5 20 6 -21 319 20 283 20 -5 -20 hstemhm
          127 20 439 20 hintmask 00000000
          hintmask 01101110
          127 637 rmoveto
          -298 -118 vlineto
          -1 -17 2 -3 rlineto
          117 -319 hlineto
          hintmask 10110110
          -2 44 122 -3 25 hhcurveto
          185 103 123 221 195 -99 108 -179 hvcurveto
          -10 -627 rmoveto
          -23 -105 3 2 -43 hvcurveto
          299 173 vlineto
          1 17 -2 3 rlineto
          -172 hlineto
          hintmask 10101110
          278 vlineto
          hintmask 10110110
          2 41 119 3 21 hhcurveto
          166 92 -101 -182 -208 -96 -116 -172 hvcurveto
          endchar
        </CharString>
        <CharString name="Etilde">
          -51 0 20 300 20 277 20 116 22 15 22 hstemhm
          110 20 hintmask 11101100
          136 749 rmoveto
          4 hlineto
          24 27 13 17 11 hhcurveto
          hintmask 11111100
          25 94 -34 -4 37 hvcurveto
          6 2 52 47 rlineto
          4 vlineto
          -9 11 rlineto
          -4 hlineto
          -24 -27 -13 -17 -11 hhcurveto
          hintmask 11101100
          -25 -94 34 4 -37 hvcurveto
          -6 -2 -52 -47 rlineto
          -4 vlineto
          298 -744 rmoveto
          -3 4 rlineto
          -292 300 237 hlineto
          4 16 -3 4 rlineto
          -238 277 287 hlineto
          4 16 -3 4 rlineto
          -308 -637 311 hlineto
          endchar
        </CharString>
        <CharString name="Euro">
          -2 -4 20 148 20 103 20 167 20 hstem
          100 21 vstem
          302 16 rmoveto
          -94 -60 52 96 -19 hvcurveto
          215 hlineto
          2 17 -3 3 rlineto
          -218 hlineto
          -3 18 -1 19 20 vvcurveto
          16 1 16 1 14 vhcurveto
          221 hlineto
          2 17 -3 3 rlineto
          -217 hlineto
          109 18 64 58 106 hhcurveto
          47 46 -15 -27 35 hvcurveto
          6 hlineto
          6 18 rlineto
          28 -39 -51 16 -49 hhcurveto
          -119 -73 -66 -121 -19 hvcurveto
          -80 hlineto
          -2 -17 3 -3 rlineto
          77 hlineto
          -1 -15 -1 -15 -16 vvcurveto
          -20 1 -19 2 -18 vhcurveto
          -79 hlineto
          -2 -17 3 -3 rlineto
          81 hlineto
          -108 21 68 -60 107 hhcurveto
          50 54 18 32 44 hvcurveto
          2 18 -6 2 rlineto
          -32 -41 -53 -18 -50 hhcurveto
          endchar
        </CharString>
        <CharString name="F">
          -94 21 -21 310 20 287 20 hstem
          110 20 vstem
          130 617 rmoveto
          276 hlineto
          4 16 -3 4 rlineto
          -297 -637 20 310 226 hlineto
          4 16 -3 4 rlineto
          -227 hlineto
          endchar
        </CharString>
        <CharString name="G">
          98 -5 20 572 -20 54 20 hstem
          48 20 428 20 vstem
          343 641 rmoveto
          -189 -106 -117 -211 -204 93 -114 167 hvcurveto
          73 2 47 8 88 25 rrcurveto
          208 vlineto
          -20 -2 rlineto
          -191 vlineto
          -23 -83 -43 -7 -63 hhcurveto
          -153 -86 106 191 199 99 110 176 53 59 -19 -33 55 hvcurveto
          7 hlineto
          6 18 rlineto
          35 -59 -64 19 -57 hhcurveto
          endchar
        </CharString>
        <CharString name="Gbreve">
          98 -5 20 572 -20 54 20 87 20 hstem
          48 20 428 20 vstem
          413 813 rmoveto
          -5 hlineto
          -42 -11 -29 -23 -44 hhcurveto
          -44 -28 23 42 -10 hvcurveto
          -5 hlineto
          -13 -11 rlineto
          -48 14 36 -26 50 hhcurveto
          50 37 26 48 15 hvcurveto
          -83 -161 rmoveto
          -189 -106 -117 -211 -204 93 -114 167 hvcurveto
          73 2 47 8 88 25 rrcurveto
          208 vlineto
          -20 -2 rlineto
          -191 vlineto
          -23 -83 -43 -7 -63 hhcurveto
          -153 -86 106 191 199 99 110 176 53 59 -19 -33 55 hvcurveto
          7 hlineto
          6 18 rlineto
          35 -59 -64 19 -57 hhcurveto
          endchar
        </CharString>
        <CharString name="Gcircumflex">
          98 -5 20 572 -20 54 20 167 20 hstem
          48 20 428 20 vstem
          225 738 rmoveto
          5 hlineto
          33 23 31 23 31 24 31 -24 31 -23 33 -23 rrcurveto
          5 hlineto
          7 14 -34 24 -33 26 -33 26 rlinecurve
          -16 hlineto
          -31 -26 -33 -26 -34 -24 rrcurveto
          125 -111 rmoveto
          -189 -106 -117 -211 -204 93 -114 167 hvcurveto
          73 2 47 8 88 25 rrcurveto
          208 vlineto
          -20 -2 rlineto
          -191 vlineto
          -23 -83 -43 -7 -63 hhcurveto
          -153 -86 106 191 199 99 110 176 53 59 -19 -33 55 hvcurveto
          7 hlineto
          6 18 rlineto
          35 -59 -64 19 -57 hhcurveto
          endchar
        </CharString>
        <CharString name="Gcommaaccent">
          98 -5 20 572 -20 54 20 hstem
          48 20 261 21 146 20 vstem
          343 641 rmoveto
          -189 -106 -117 -211 -204 93 -114 167 hvcurveto
          73 2 47 8 88 25 rrcurveto
          208 vlineto
          -20 -2 rlineto
          -191 vlineto
          -23 -83 -43 -7 -63 hhcurveto
          -153 -86 106 191 199 99 110 176 53 59 -19 -33 55 hvcurveto
          7 hlineto
          6 18 rlineto
          35 -59 -64 19 -57 hhcurveto
          -31 -711 rmoveto
          -6 -3 -4 -4 -3 -4 rrcurveto
          -4 vlineto
          19 -9 11 -12 -13 vvcurveto
          -24 -19 -28 -35 -26 vhcurveto
          -1 -3 10 -11 rlineto
          43 33 23 33 27 vvcurveto
          20 -14 17 -24 11 vhcurveto
          endchar
        </CharString>
        <CharString name="Gdieresis">
          98 -5 20 572 -20 54 20 119 40 hstem
          48 20 187 140 101 20 vstem
          255 800 rmoveto
          -12 0 -8 -8 0 -12 0 -12 8 -8 0 flex1
          12 0 8 8 0 12 0 12 -8 8 0 flex1
          140 hmoveto
          -12 0 -8 -8 0 -12 0 -12 8 -8 0 flex1
          12 0 8 8 0 12 0 12 -8 8 0 flex1
          -52 -159 rmoveto
          -189 -106 -117 -211 -204 93 -114 167 hvcurveto
          73 2 47 8 88 25 rrcurveto
          208 vlineto
          -20 -2 rlineto
          -191 vlineto
          -23 -83 -43 -7 -63 hhcurveto
          -153 -86 106 191 199 99 110 176 53 59 -19 -33 55 hvcurveto
          7 hlineto
          6 18 rlineto
          35 -59 -64 19 -57 hhcurveto
          endchar
        </CharString>
        <CharString name="Gdotaccent">
          98 -5 20 572 -20 54 20 135 40 hstem
          48 20 428 20 vstem
          325 816 rmoveto
          -12 0 -8 -8 0 -12 0 -12 8 -8 0 flex1
          12 0 8 8 0 12 0 12 -8 8 0 flex1
          18 -175 rmoveto
          -189 -106 -117 -211 -204 93 -114 167 hvcurveto
          73 2 47 8 88 25 rrcurveto
          208 vlineto
          -20 -2 rlineto
          -191 vlineto
          -23 -83 -43 -7 -63 hhcurveto
          -153 -86 106 191 199 99 110 176 53 59 -19 -33 55 hvcurveto
          7 hlineto
          6 18 rlineto
          35 -59 -64 19 -57 hhcurveto
          endchar
        </CharString>
        <CharString name="Germandbls">
          87 -4 20 5 -21 586 -20 54 20 hstemhm
          86 20 422 20 hintmask 10111100
          303 640 rmoveto
          -129 -88 -83 -124 hvcurveto
          hintmask 01111100
          -433 20 434 vlineto
          112 79 74 118 57 56 -14 -31 64 vhcurveto
          -196 -235 4 -15 rlineto
          149 -12 91 -50 -98 vvcurveto
          hintmask 10111100
          -83 -63 -66 -95 -46 -62 15 33 -42 vhcurveto
          -5 -2 -2 -19 rlineto
          -31 44 64 -16 50 hhcurveto
          102 75 69 99 105 -85 59 -150 16 hvcurveto
          193 231 -3 11 rlineto
          37 -76 -62 17 -62 hhcurveto
          endchar
        </CharString>
        <CharString name="Gtilde">
          98 -5 20 572 -20 54 20 112 22 15 22 hstemhm
          48 20 428 20 hintmask 00000000
          hintmask 11111110
          464 805 rmoveto
          -9 11 rlineto
          -4 hlineto
          -24 -27 -13 -17 -11 hhcurveto
          hintmask 11101110
          -25 -94 34 4 -37 hvcurveto
          -6 -2 -52 -47 rlineto
          -4 vlineto
          9 -11 rlineto
          4 hlineto
          24 27 13 17 11 hhcurveto
          hintmask 11111110
          25 94 -34 -4 37 hvcurveto
          6 2 52 47 rlineto
          hintmask 11101110
          -121 -160 rmoveto
          -189 -106 -117 -211 -204 93 -114 167 hvcurveto
          73 2 47 8 88 25 rrcurveto
          208 vlineto
          -20 -2 rlineto
          -191 vlineto
          -23 -83 -43 -7 -63 hhcurveto
          -153 -86 106 191 199 99 110 176 53 59 -19 -33 55 hvcurveto
          7 hlineto
          6 18 rlineto
          35 -59 -64 19 -57 hhcurveto
          endchar
        </CharString>
        <CharString name="H">
          165 21 -21 314 20 303 -20 hstem
          110 20 410 20 vstem
          560 637 rmoveto
          -20 -303 -410 303 -20 -637 20 314 410 -314 20 hlineto
          endchar
        </CharString>
        <CharString name="Hbar">
          195 21 -21 314 20 150 17 -17 20 -20 153 hstemhm
          125 20 410 20 hintmask 11010110
          643 484 rmoveto
          hintmask 11100110
          2 17 -4 3 rlineto
          hintmask 11010110
          -66 hlineto
          hintmask 11001110
          133 -20 vlineto
          hintmask 11010110
          -133 -410 vlineto
          hintmask 11001110
          133 -20 vlineto
          hintmask 11010110
          -133 -68 vlineto
          -2 -17 4 -3 rlineto
          66 -484 20 314 410 -314 20 484 hlineto
          -20 hmoveto
          -150 -410 150 vlineto
          endchar
        </CharString>
        <CharString name="Hcircumflex">
          165 21 -21 314 20 303 -20 191 20 hstem
          110 20 410 20 vstem
          230 738 rmoveto
          5 hlineto
          33 23 31 23 31 24 31 -24 31 -23 33 -23 rrcurveto
          5 hlineto
          7 14 -34 24 -33 26 -33 26 rlinecurve
          -16 hlineto
          -31 -26 -33 -26 -34 -24 rrcurveto
          337 -115 rmoveto
          -20 -303 -410 303 -20 -637 20 314 410 -314 20 hlineto
          endchar
        </CharString>
        <CharString name="I">
          -265 21 -21 637 -20 hstem
          110 20 vstem
          130 hmoveto
          637 -20 -637 vlineto
          endchar
        </CharString>
        <CharString name="I.ss01">
          -268 0 20 451 20 hstem
          108 20 vstem
          128 20 rmoveto
          451 209 20 -437 -20 208 -451 -208 -20 437 20 vlineto
          endchar
        </CharString>
        <CharString name="IJ">
          3 -77 -21 119 -21 617 20 hstem
          110 20 130 11 109 20 vstem
          110 637 rmoveto
          -637 20 637 vlineto
          270 hmoveto
          -149 hlineto
          -3 -16 4 -4 rlineto
          128 -504 hlineto
          -83 -34 -55 -86 -56 vhcurveto
          -6 vlineto
          11 -11 rlineto
          93 61 36 58 94 vvcurveto
          endchar
        </CharString>
        <CharString name="Iacute">
          -265 21 -21 637 -20 hstem
          110 20 vstem
          239 834 rmoveto
          -5 2 -66 -39 -56 -29 -54 -26 rlinecurve
          7 -15 5 -3 59 30 56 29 59 34 rlinecurve
          2 5 rlineto
          -116 -822 rmoveto
          637 -20 -637 vlineto
          endchar
        </CharString>
        <CharString name="Iacute_J.loclNLD">
          3 -77 -21 119 -21 617 20 hstem
          110 20 130 11 109 20 vstem
          239 834 rmoveto
          -5 2 -66 -39 -56 -29 -54 -26 rlinecurve
          7 -15 5 -3 59 30 56 29 59 34 rlinecurve
          2 5 rlineto
          228 hmoveto
          -7 12 -5 2 -66 -39 -56 -29 -54 -26 rlinecurve
          7 -15 5 -3 59 30 56 29 59 34 rlinecurve
          -362 -180 rmoveto
          -637 20 637 vlineto
          270 hmoveto
          -149 hlineto
          -3 -16 4 -4 rlineto
          128 -504 hlineto
          -83 -34 -55 -86 -56 vhcurveto
          -6 vlineto
          11 -11 rlineto
          93 61 36 58 94 vvcurveto
          endchar
        </CharString>
        <CharString name="Ibreve">
          -265 21 -21 637 -20 111 20 hstem
          110 20 vstem
          208 813 rmoveto
          -5 hlineto
          -42 -11 -29 -23 -44 hhcurveto
          -44 -28 23 42 -10 hvcurveto
          -5 hlineto
          -13 -11 rlineto
          -48 14 36 -26 50 hhcurveto
          50 37 26 48 15 hvcurveto
          -91 -802 rmoveto
          637 -20 -637 vlineto
          endchar
        </CharString>
        <CharString name="Icaron">
          -265 21 -21 637 -20 112 20 hstem
          110 20 vstem
          220 819 rmoveto
          -5 hlineto
          -33 -23 -31 -23 -31 -24 -31 24 -31 23 -33 23 rrcurveto
          -5 hlineto
          -7 -14 34 -24 33 -26 33 -26 rlinecurve
          16 hlineto
          31 26 33 26 34 24 rrcurveto
          -97 -805 rmoveto
          637 -20 -637 vlineto
          endchar
        </CharString>
        <CharString name="Icircumflex">
          -265 21 -21 637 -20 191 20 hstem
          110 20 vstem
          20 738 rmoveto
          5 hlineto
          33 23 31 23 31 24 31 -24 31 -23 33 -23 rrcurveto
          5 hlineto
          7 14 -34 24 -33 26 -33 26 rlinecurve
          -16 hlineto
          -31 -26 -33 -26 -34 -24 rrcurveto
          117 -752 rmoveto
          637 -20 -637 vlineto
          endchar
        </CharString>
        <CharString name="Idieresis">
          -265 21 -21 637 -20 143 40 hstemhm
          70 100 -60 20 hintmask 00000000
          hintmask 11110000
          70 800 rmoveto
          -12 0 -8 -8 0 -12 0 -12 8 -8 0 flex1
          12 0 8 8 0 12 0 12 -8 8 0 flex1
          100 hmoveto
          -12 0 -8 -8 0 -12 0 -12 8 -8 0 flex1
          12 0 8 8 0 12 0 12 -8 8 0 flex1
          hintmask 11101000
          -40 -800 rmoveto
          637 -20 -637 vlineto
          endchar
        </CharString>
        <CharString name="Idotaccent">
          -265 21 -21 637 -20 159 40 hstem
          110 20 vstem
          120 816 rmoveto
          -12 0 -8 -8 0 -12 0 -12 8 -8 0 flex1
          12 0 8 8 0 12 0 12 -8 8 0 flex1
          10 -816 rmoveto
          637 -20 -637 vlineto
          endchar
        </CharString>
        <CharString name="Idotbelow">
          -265 -128 40 109 -21 637 -20 hstem
          110 20 vstem
          130 hmoveto
          637 -20 -637 vlineto
          5 -88 rmoveto
          -12 0 -8 -8 0 -12 0 -12 8 -8 0 flex1
          12 0 8 8 0 12 0 12 -8 8 0 flex1
          endchar
        </CharString>
        <CharString name="Igrave">
          -265 21 -21 637 -20 hstem
          110 20 vstem
          32 836 rmoveto
          -7 -12 2 -5 59 -34 56 -29 59 -30 rlinecurve
          5 3 7 15 -54 26 -56 29 -66 39 rlinecurve
          93 -838 rmoveto
          637 -20 -637 vlineto
          endchar
        </CharString>
        <CharString name="Ihookabove">
          -265 21 -21 637 -20 225 20 hstemhm
          110 20 16 20 hintmask 00000000
          hintmask 11111000
          122 862 rmoveto
          -19 -23 -10 -19 -22 hvcurveto
          8 -14 rlineto
          15 18 20 8 16 hhcurveto
          16 10 -8 -12 -15 -18 -21 -33 -22 hvcurveto
          22 -41 17 7 -16 29 rlineto
          31 23 17 22 20 vvcurveto
          21 -18 17 -26 vhcurveto
          hintmask 11110000
          8 -862 rmoveto
          637 -20 -637 vlineto
          endchar
        </CharString>
        <CharString name="Imacron">
          -265 21 -21 637 -20 155 20 hstem
          110 20 vstem
          226 789 rmoveto
          -3 3 rlineto
          -207 hlineto
          -2 -17 3 -3 rlineto
          207 hlineto
          -94 -772 rmoveto
          637 -20 -637 vlineto
          endchar
        </CharString>
        <CharString name="Iogonek">
          -265 -197 20 814 -20 hstem
          31 20 59 20 vstem
          126 -134 rmoveto
          -2 hlineto
          -27 -10 -13 -16 -21 hhcurveto
          -19 -10 12 15 24 24 43 55 83 hvcurveto
          637 -20 -637 vlineto
          -51 -75 -28 -44 -32 vvcurveto
          -25 18 -21 30 27 18 16 32 16 vhcurveto
          endchar
        </CharString>
        <CharString name="Itilde">
          -265 21 -21 637 -20 133 23 14 23 hstemhm
          110 20 hintmask 00000000
          hintmask 11111000
          244 802 rmoveto
          -9 11 rlineto
          -3 hlineto
          -23 -24 -12 -17 -10 hhcurveto
          hintmask 11011000
          -22 -82 34 4 -33 hvcurveto
          -6 -2 -47 -47 rlineto
          -4 vlineto
          9 -11 rlineto
          3 hlineto
          24 24 12 16 10 hhcurveto
          hintmask 11111000
          22 82 -34 -4 33 hvcurveto
          6 2 47 47 rlineto
          hintmask 11011000
          -114 -798 rmoveto
          637 -20 -637 vlineto
          endchar
        </CharString>
        <CharString name="J">
          -237 -77 -21 715 20 hstem
          20 11 109 20 vstem
          160 637 rmoveto
          -149 hlineto
          -3 -16 4 -4 rlineto
          128 -504 hlineto
          -83 -34 -55 -86 -56 vhcurveto
          -6 vlineto
          11 -11 rlineto
          93 61 36 58 94 vvcurveto
          endchar
        </CharString>
        <CharString name="Jcircumflex">
          -237 -77 -21 715 20 171 20 hstem
          20 11 109 20 vstem
          99 828 rmoveto
          -31 -26 -33 -26 -34 -24 7 -14 rcurveline
          5 hlineto
          33 23 31 23 31 24 31 -24 31 -23 33 -23 rrcurveto
          5 hlineto
          7 14 -34 24 -33 26 -33 26 rlinecurve
          45 -191 rmoveto
          -149 hlineto
          -3 -16 4 -4 rlineto
          128 -504 hlineto
          -83 -34 -55 -86 -56 vhcurveto
          -6 vlineto
          11 -11 rlineto
          93 61 36 58 94 vvcurveto
          endchar
        </CharString>
        <CharString name="K">
          2 14 -21 28 -21 637 -20 hstemhm
          110 20 hintmask 01110000
          130 hmoveto
          637 -20 -637 vlineto
          372 637 rmoveto
          -31 hlineto
          -43 -47 -249 -249 rlineto
          -3 vlineto
          hintmask 10110000
          99 -119 111 -117 111 -108 4 -1 rcurveline
          5 2 6 2 3 4 rrcurveto
          4 vlineto
          -108 103 -109 117 -95 115 rrcurveto
          endchar
        </CharString>
        <CharString name="Kcommaaccent">
          2 14 -21 28 -21 637 -20 hstemhm
          110 20 161 21 hintmask 01111000
          130 hmoveto
          637 -20 -637 vlineto
          372 637 rmoveto
          -31 hlineto
          -43 -47 -249 -249 rlineto
          -3 vlineto
          hintmask 10111000
          99 -119 111 -117 111 -108 4 -1 rcurveline
          5 2 6 2 3 4 rrcurveto
          4 vlineto
          -108 103 -109 117 -95 115 rrcurveto
          88 -410 rmoveto
          -6 -3 -4 -4 -3 -4 rrcurveto
          -4 vlineto
          19 -9 11 -12 -13 vvcurveto
          -24 -19 -28 -35 -26 vhcurveto
          -1 -3 10 -11 rlineto
          43 33 23 33 27 vvcurveto
          20 -14 17 -24 11 vhcurveto
          endchar
        </CharString>
        <CharString name="L">
          -107 0 20 617 -20 hstem
          109 20 vstem
          393 16 rmoveto
          -3 4 rlineto
          -261 617 -20 -637 280 hlineto
          endchar
        </CharString>
        <CharString name="L.ss01">
          -140 0 20 451 20 hstem
          107 20 195 20 vstem
          127 20 rmoveto
          451 338 20 -565 -20 207 -451 -207 -20 565 20 -123 90 -20 -90 vlineto
          endchar
        </CharString>
        <CharString name="Lacute">
          -107 0 20 617 -20 hstem
          109 20 vstem
          141 727 rmoveto
          5 -3 59 30 56 29 59 34 rlinecurve
          2 5 -7 12 -5 2 -66 -39 -56 -29 -54 -26 rlinecurve
          259 -726 rmoveto
          -3 4 rlineto
          -261 617 -20 -637 280 hlineto
          endchar
        </CharString>
        <CharString name="Lcaron">
          -97 0 20 617 -20 hstem
          109 20 200 20 vstem
          393 16 rmoveto
          -3 4 rlineto
          -261 617 -20 -637 280 hlineto
          -63 429 rmoveto
          17 2 12 144 -3 4 -17 -2 -12 -144 rlineto
          endchar
        </CharString>
        <CharString name="Lcommaaccent">
          -107 0 20 617 -20 hstem
          109 20 124 21 vstem
          393 16 rmoveto
          -3 4 rlineto
          -261 617 -20 -637 280 hlineto
          -153 -70 rmoveto
          -6 -3 -4 -4 -3 -4 rrcurveto
          -4 vlineto
          19 -9 11 -12 -13 vvcurveto
          -24 -19 -28 -35 -26 vhcurveto
          -1 -3 10 -11 rlineto
          43 33 23 33 27 vvcurveto
          20 -14 17 -24 11 vhcurveto
          endchar
        </CharString>
        <CharString name="Ldot">
          -107 0 20 327 40 250 -20 hstem
          109 20 vstem
          393 16 rmoveto
          -3 4 rlineto
          -261 617 -20 -637 280 hlineto
          -80 347 rmoveto
          12 0 8 8 0 12 0 12 -8 8 0 flex1
          -12 0 -8 -8 0 -12 0 -12 8 -8 0 flex1
          endchar
        </CharString>
        <CharString name="Lslash">
          -97 0 20 434 -20 203 -20 hstem
          119 20 vstem
          403 16 rmoveto
          -3 4 rlineto
          -261 324 hlineto
          171 93 -6 15 -5 2 -160 -87 rlineto
          270 -20 -280 vlineto
          -97 -53 6 -15 5 -3 86 47 rlineto
          -333 280 vlineto
          endchar
        </CharString>
        <CharString name="M">
          276 21 -21 81 29 479 48 hstem
          76 629 vstem
          705 hmoveto
          -68 637 rlineto
          -23 hlineto
          -37 -88 -187 -439 rlineto
          -4 hlineto
          -177 428 -40 99 rlineto
          -23 hlineto
          -70 -637 rlineto
          21 hlineto
          21 195 43 394 rlineto
          5 hlineto
          210 -508 rlineto
          25 hlineto
          214 508 rlineto
          5 hlineto
          44 -394 20 -195 rlineto
          endchar
        </CharString>
        <CharString name="M.ss01">
          173 0 20 59 28 339 45 -20 20 hstemhm
          -100 878 hintmask 11011000
          538 471 rmoveto
          240 20 -878 -20 240 hlineto
          -52 -451 rlineto
          -188 -20 878 20 -190 hlineto
          -82 451 rmoveto
          -168 -364 rlineto
          -3 hlineto
          -139 308 -24 56 rlineto
          382 -314 rmoveto
          15 -137 rlineto
          -461 hlineto
          15 138 rlineto
          hintmask 11101000
          34 288 rlineto
          3 hlineto
          165 -367 rlineto
          23 hlineto
          168 367 rlineto
          4 hlineto
          endchar
        </CharString>
        <CharString name="N">
          165 0 42 -21 -21 595 42 0 -20 21 -20 hstemhm
          110 20 409 19.5 hintmask 01001110
          559 176 rmoveto
          1 462 -20 -2 rlineto
          hintmask 10010110
          -2 -594 rlineto
          -4 hlineto
          -404 595 rlineto
          -19 hlineto
          -1 -447 rlineto
          -190 20 199 vlineto
          hintmask 01100110
          1 396 rlineto
          4 hlineto
          404 -595 rlineto
          19 hlineto
          endchar
        </CharString>
        <CharString name="Nacute">
          165 0 42 -21 -21 595 42 0 -20 21 -20 hstemhm
          110 20 409 19.5 hintmask 01001110
          450 834 rmoveto
          -5 2 -66 -39 -56 -29 -54 -26 rlinecurve
          7 -15 5 -3 59 30 56 29 59 34 rlinecurve
          2 5 rlineto
          102 -646 rmoveto
          1 462 -20 -2 rlineto
          hintmask 10010110
          -2 -594 rlineto
          -4 hlineto
          -404 595 rlineto
          -19 hlineto
          -1 -447 rlineto
          -190 20 199 vlineto
          hintmask 01100110
          1 396 rlineto
          4 hlineto
          404 -595 rlineto
          19 hlineto
          endchar
        </CharString>
        <CharString name="Ncaron">
          165 0 42 -21 -21 595 42 0 -20 21 -20 111 20 hstemhm
          110 20 409 19.5 hintmask 01001111
          431 819 rmoveto
          -5 hlineto
          -33 -23 -31 -23 -31 -24 -31 24 -31 23 -33 23 rrcurveto
          -5 hlineto
          -7 -14 34 -24 33 -26 33 -26 rlinecurve
          16 hlineto
          31 26 33 26 34 24 rrcurveto
          121 -629 rmoveto
          1 462 -20 -2 rlineto
          hintmask 10010111
          -2 -594 rlineto
          -4 hlineto
          -404 595 rlineto
          -19 hlineto
          -1 -447 rlineto
          -190 20 199 vlineto
          hintmask 01100111
          1 396 rlineto
          4 hlineto
          404 -595 rlineto
          19 hlineto
          endchar
        </CharString>
        <CharString name="Ncommaaccent">
          165 0 42 -21 -21 595 42 0 -20 21 -20 hstemhm
          110 20 217 21 171 19.5 hintmask 01001111
          559 176 rmoveto
          1 462 -20 -2 rlineto
          hintmask 10010111
          -2 -594 rlineto
          -4 hlineto
          -404 595 rlineto
          -19 hlineto
          -1 -447 rlineto
          -190 20 199 vlineto
          hintmask 01100111
          1 396 rlineto
          4 hlineto
          404 -595 rlineto
          19 hlineto
          -228 -70 rmoveto
          -6 -3 -4 -4 -3 -4 rrcurveto
          -4 vlineto
          19 -9 11 -12 -13 vvcurveto
          -24 -19 -28 -35 -26 vhcurveto
          -1 -3 10 -11 rlineto
          43 33 23 33 27 vvcurveto
          20 -14 17 -24 11 vhcurveto
          endchar
        </CharString>
        <CharString name="Ntilde">
          165 0 42 -21 -21 595 42 0 -20 21 -20 135 22 15 22 hstemhm
          110 20 409 19.5 hintmask 0000000000000000
          hintmask 0100111110000000
          470 805 rmoveto
          -9 11 rlineto
          -4 hlineto
          -24 -27 -13 -17 -11 hhcurveto
          hintmask 0100101110000000
          -25 -94 34 4 -37 hvcurveto
          -6 -2 -52 -47 rlineto
          -4 vlineto
          9 -11 rlineto
          4 hlineto
          24 27 13 17 11 hhcurveto
          hintmask 0100111110000000
          25 94 -34 -4 37 hvcurveto
          6 2 52 47 rlineto
          hintmask 1000101110000000
          89 -625 rmoveto
          1 462 -20 -2 -2 -594 rlineto
          -4 hlineto
          hintmask 0101001110000000
          -404 595 rlineto
          -19 hlineto
          -1 -447 rlineto
          -190 20 199 vlineto
          hintmask 0110001110000000
          1 396 rlineto
          4 hlineto
          404 -595 rlineto
          19 hlineto
          endchar
        </CharString>
        <CharString name="O">
          122 -5 20 607 20 hstem
          48 20 491 20 vstem
          318 642 rmoveto
          -174 -96 -116 -209 -207 93 -115 167 174 97 119 215 201 -93 112 -168 hvcurveto
          -20 vmoveto
          155 86 -105 -188 -202 -90 -112 -161 -154 -86 108 194 196 89 109 161 hvcurveto
          endchar
        </CharString>
        <CharString name="OE">
          328 -12 20 -8 20 300 20 277 20 -8 20 hstemhm
          48 20 419 22 hintmask 00000000
          hintmask 10101110
          358 649 rmoveto
          -198 -112 -123 -209 -207 109 -122 191 hvcurveto
          hintmask 01110110
          50 56 12 57 hhcurveto
          289 hlineto
          4 16 -3 4 rlineto
          -292 300 237 hlineto
          4 16 -3 4 rlineto
          -238 277 287 hlineto
          4 16 -3 4 rlineto
          -286 hlineto
          hintmask 10101110
          -55 -44 12 -54 hhcurveto
          -20 vmoveto
          hintmask 10110110
          44 54 -8 -3 17 hvcurveto
          11 -2 3 -5 -25 vvcurveto
          2 -543 rlineto
          -16 -5 -5 -23 -4 vhcurveto
          -3 -19 -51 -7 -38 hhcurveto
          -187 -98 116 192 hvcurveto
          hintmask 10101110
          198 105 115 185 vhcurveto
          endchar
        </CharString>
        <CharString name="Oacute">
          122 -5 20 607 20 hstem
          48 20 491 20 vstem
          433 834 rmoveto
          -5 2 -66 -39 -56 -29 -54 -26 rlinecurve
          7 -15 5 -3 59 30 56 29 59 34 rlinecurve
          2 5 rlineto
          -122 -180 rmoveto
          -174 -96 -116 -209 -207 93 -115 167 174 97 119 215 201 -93 112 -168 hvcurveto
          -20 vmoveto
          155 86 -105 -188 -202 -90 -112 -161 -154 -86 108 194 196 89 109 161 hvcurveto
          endchar
        </CharString>
        <CharString name="Obreve">
          122 -5 20 607 20 86 20 hstem
          48 20 491 20 vstem
          402 813 rmoveto
          -5 hlineto
          -42 -11 -29 -23 -44 hhcurveto
          -44 -28 23 42 -10 hvcurveto
          -5 hlineto
          -13 -11 rlineto
          -48 14 36 -26 50 hhcurveto
          50 37 26 48 15 hvcurveto
          -97 -160 rmoveto
          -174 -96 -116 -209 -207 93 -115 167 174 97 119 215 201 -93 112 -168 hvcurveto
          -20 vmoveto
          155 86 -105 -188 -202 -90 -112 -161 -154 -86 108 194 196 89 109 161 hvcurveto
          endchar
        </CharString>
        <CharString name="Ocaron">
          122 -5 20 607 20 87 20 hstem
          48 20 491 20 vstem
          414 819 rmoveto
          -5 hlineto
          -33 -23 -31 -23 -31 -24 -31 24 -31 23 -33 23 rrcurveto
          -5 hlineto
          -7 -14 34 -24 33 -26 33 -26 rlinecurve
          16 hlineto
          31 26 33 26 34 24 rrcurveto
          -103 -163 rmoveto
          -174 -96 -116 -209 -207 93 -115 167 174 97 119 215 201 -93 112 -168 hvcurveto
          -20 vmoveto
          155 86 -105 -188 -202 -90 -112 -161 -154 -86 108 194 196 89 109 161 hvcurveto
          endchar
        </CharString>
        <CharString name="Ocircumflex">
          122 -5 20 607 20 166 20 hstem
          48 20 491 20 vstem
          214 738 rmoveto
          5 hlineto
          33 23 31 23 31 24 31 -24 31 -23 33 -23 rrcurveto
          5 hlineto
          7 14 -34 24 -33 26 -33 26 rlinecurve
          -16 hlineto
          -31 -26 -33 -26 -34 -24 rrcurveto
          111 -110 rmoveto
          -174 -96 -116 -209 -207 93 -115 167 174 97 119 215 201 -93 112 -168 hvcurveto
          -20 vmoveto
          155 86 -105 -188 -202 -90 -112 -161 -154 -86 108 194 196 89 109 161 hvcurveto
          endchar
        </CharString>
        <CharString name="Ocircumflexacute">
          122 -5 20 607 20 146 20 -4 11 hstemhm
          48 20 491 20 hintmask 00000000
          hintmask 11011100
          450 885 rmoveto
          -11 9 -5 1 -70 -80 11 -11 rlineto
          6 hlineto
          68 76 rlineto
          hintmask 11101100
          -235 -162 rmoveto
          5 hlineto
          33 23 31 23 31 24 31 -24 31 -23 33 -23 rrcurveto
          5 hlineto
          7 14 -34 24 -33 26 -33 26 rlinecurve
          -16 hlineto
          -31 -26 -33 -26 -34 -24 rrcurveto
          111 -90 rmoveto
          -174 -96 -116 -209 -207 93 -115 167 174 97 119 215 201 -93 112 -168 hvcurveto
          -20 vmoveto
          155 86 -105 -188 -202 -90 -112 -161 -154 -86 108 194 196 89 109 161 hvcurveto
          endchar
        </CharString>
        <CharString name="Ocircumflexdotbelow">
          122 -128 40 83 20 607 20 156 20 hstem
          48 20 491 20 vstem
          229 728 rmoveto
          5 hlineto
          33 23 31 23 31 24 31 -24 31 -23 33 -23 rrcurveto
          5 hlineto
          7 14 -34 24 -33 26 -33 26 rlinecurve
          -16 hlineto
          -31 -26 -33 -26 -34 -24 rrcurveto
          96 -100 rmoveto
          -174 -96 -116 -209 -207 93 -115 167 174 97 119 215 201 -93 112 -168 hvcurveto
          -20 vmoveto
          155 86 -105 -188 -202 -90 -112 -161 -154 -86 108 194 196 89 109 161 hvcurveto
          -8 -710 rmoveto
          -12 0 -8 -8 0 -12 0 -12 8 -8 0 flex1
          12 0 8 8 0 12 0 12 -8 8 0 flex1
          endchar
        </CharString>
        <CharString name="Ocircumflexgrave">
          122 -5 20 607 20 146 20 -4 11 hstemhm
          48 20 491 20 hintmask 00000000
          hintmask 11011100
          356 895 rmoveto
          -5 -1 -11 -9 1 -5 68 -76 rlineto
          6 hlineto
          11 11 rlineto
          hintmask 11101100
          -212 -97 rmoveto
          5 hlineto
          33 23 31 23 31 24 31 -24 31 -23 33 -23 rrcurveto
          5 hlineto
          7 14 -34 24 -33 26 -33 26 rlinecurve
          -16 hlineto
          -31 -26 -33 -26 -34 -24 rrcurveto
          111 -90 rmoveto
          -174 -96 -116 -209 -207 93 -115 167 174 97 119 215 201 -93 112 -168 hvcurveto
          -20 vmoveto
          155 86 -105 -188 -202 -90 -112 -161 -154 -86 108 194 196 89 109 161 hvcurveto
          endchar
        </CharString>
        <CharString name="Ocircumflexhookabove">
          122 -5 20 607 20 146 20 94 20 hstem
          48 20 355 19 117 20 vstem
          401 922 rmoveto
          -19 -21 -10 -18 -21 hvcurveto
          7 -13 rlineto
          14 17 19 7 16 hhcurveto
          15 9 -7 -12 -14 -17 -20 -31 -21 hvcurveto
          21 -39 16 7 -15 27 rlineto
          29 22 16 21 19 vvcurveto
          20 -17 17 -24 vhcurveto
          -187 -204 rmoveto
          5 hlineto
          33 23 31 23 31 24 31 -24 31 -23 33 -23 rrcurveto
          5 hlineto
          7 14 -34 24 -33 26 -33 26 rlinecurve
          -16 hlineto
          -31 -26 -33 -26 -34 -24 rrcurveto
          111 -90 rmoveto
          -174 -96 -116 -209 -207 93 -115 167 174 97 119 215 201 -93 112 -168 hvcurveto
          -20 vmoveto
          155 86 -105 -188 -202 -90 -112 -161 -154 -86 108 194 196 89 109 161 hvcurveto
          endchar
        </CharString>
        <CharString name="Ocircumflextilde">
          122 -5 20 607 20 146 20 35 22 15 22 hstemhm
          48 20 491 20 hintmask 11110110
          450 895 rmoveto
          -9 11 rlineto
          -3 hlineto
          -24 -26 -12 -17 -11 hhcurveto
          hintmask 11111110
          -24 -89 34 4 -35 hvcurveto
          -6 -2 -50 -47 rlineto
          -4 vlineto
          9 -11 rlineto
          4 hlineto
          24 25 13 17 10 hhcurveto
          hintmask 11110110
          24 90 -34 -4 35 hvcurveto
          5 2 50 47 rlineto
          -236 -173 rmoveto
          5 hlineto
          33 23 31 23 31 24 31 -24 31 -23 33 -23 rrcurveto
          5 hlineto
          7 14 -34 24 -33 26 -33 26 rlinecurve
          -16 hlineto
          -31 -26 -33 -26 -34 -24 rrcurveto
          111 -90 rmoveto
          -174 -96 -116 -209 -207 93 -115 167 174 97 119 215 201 -93 112 -168 hvcurveto
          -20 vmoveto
          155 86 -105 -188 -202 -90 -112 -161 -154 -86 108 194 196 89 109 161 hvcurveto
          endchar
        </CharString>
        <CharString name="Odieresis">
          122 -5 20 607 20 118 40 hstem
          48 20 176 140 175 20 vstem
          244 800 rmoveto
          -12 0 -8 -8 0 -12 0 -12 8 -8 0 flex1
          12 0 8 8 0 12 0 12 -8 8 0 flex1
          140 hmoveto
          -12 0 -8 -8 0 -12 0 -12 8 -8 0 flex1
          12 0 8 8 0 12 0 12 -8 8 0 flex1
          -66 -158 rmoveto
          -174 -96 -116 -209 -207 93 -115 167 174 97 119 215 201 -93 112 -168 hvcurveto
          -20 vmoveto
          155 86 -105 -188 -202 -90 -112 -161 -154 -86 108 194 196 89 109 161 hvcurveto
          endchar
        </CharString>
        <CharString name="Odotbelow">
          122 -128 40 83 20 607 20 hstem
          48 20 491 20 vstem
          318 642 rmoveto
          -174 -96 -116 -209 -207 93 -115 167 174 97 119 215 201 -93 112 -168 hvcurveto
          -20 vmoveto
          155 86 -105 -188 -202 -90 -112 -161 -154 -86 108 194 196 89 109 161 hvcurveto
          -8 -710 rmoveto
          -12 0 -8 -8 0 -12 0 -12 8 -8 0 flex1
          12 0 8 8 0 12 0 12 -8 8 0 flex1
          endchar
        </CharString>
        <CharString name="Ograve">
          122 -5 20 607 20 hstem
          48 20 491 20 vstem
          226 836 rmoveto
          -7 -12 2 -5 59 -34 56 -29 59 -30 rlinecurve
          5 3 7 15 -54 26 -56 29 -66 39 rlinecurve
          87 -196 rmoveto
          -174 -96 -116 -209 -207 93 -115 167 174 97 119 215 201 -93 112 -168 hvcurveto
          -20 vmoveto
          155 86 -105 -188 -202 -90 -112 -161 -154 -86 108 194 196 89 109 161 hvcurveto
          endchar
        </CharString>
        <CharString name="Ohm">
          228 0 20 0 -21 623 20 hstemhm
          101 20 137 43 131 43 137 20 hintmask 10111010
          369 642 rmoveto
          -172 -96 -106 -191 -138 56 -115 101 -69 hvcurveto
          -3 -121 vlineto
          -82 1 -4 -18 3 -4 78 1 rlineto
          127 hlineto
          40 -1 2 2 rlineto
          hintmask 01111110
          16 vlineto
          -116 68 -64 117 143 vvcurveto
          178 89 99 159 156 87 -98 -177 -143 -64 -118 -116 -69 vhcurveto
          hintmask 10111110
          -16 vlineto
          2 -2 40 1 rlineto
          122 hlineto
          82 -1 rlineto
          hintmask 01111010
          4 18 -3 4 rlineto
          hintmask 10111110
          -78 -1 rlineto
          -126 3 hlineto
          101 70 56 116 138 vvcurveto
          hintmask 10111010
          190 -94 105 -169 vhcurveto
          endchar
        </CharString>
        <CharString name="Ohookabove">
          122 -5 20 607 20 200 20 hstem
          48 20 272 20 199 20 vstem
          316 862 rmoveto
          -19 -23 -10 -19 -22 hvcurveto
          8 -14 rlineto
          15 18 20 8 16 hhcurveto
          16 10 -8 -12 -15 -18 -21 -33 -22 hvcurveto
          22 -41 17 7 -16 29 rlineto
          31 23 17 22 20 vvcurveto
          21 -18 17 -26 vhcurveto
          2 -220 rmoveto
          -174 -96 -116 -209 -207 93 -115 167 174 97 119 215 201 -93 112 -168 hvcurveto
          -20 vmoveto
          155 86 -105 -188 -202 -90 -112 -161 -154 -86 108 194 196 89 109 161 hvcurveto
          endchar
        </CharString>
        <CharString name="Ohorn">
          125 -5 20 572 18 17 20 101 10 hstemhm
          48 20 491 20 -1 20 hintmask 00000000
          hintmask 11111010
          559 753 rmoveto
          -3 -4 -1 -4 -6 hvcurveto
          -2 -5 rlineto
          22 -23 12 -25 -24 vvcurveto
          -43 -42 -23 -42 vhcurveto
          -50 -26 37 -97 hhcurveto
          hintmask 10101100
          -178 -95 -116 -209 -207 93 -115 168 173 97 122 208 hvcurveto
          hintmask 11101100
          121 -32 87 -65 54 vhcurveto
          hintmask 11101010
          66 -3 50 30 61 vvcurveto
          hintmask 11111010
          45 -27 33 -12 vhcurveto
          hintmask 10101100
          -242 -131 rmoveto
          156 86 -103 -193 -197 -90 -114 -160 -155 -86 108 193 197 89 109 160 hvcurveto
          endchar
        </CharString>
        <CharString name="Ohornacute">
          125 -5 20 572 18 17 20 101 10 hstemhm
          48 20 491 20 -1 20 hintmask 10101100
          433 834 rmoveto
          -5 2 -66 -39 -56 -29 -54 -26 rlinecurve
          7 -15 5 -3 59 30 56 29 59 34 rlinecurve
          2 5 rlineto
          hintmask 11111010
          119 -69 rmoveto
          -3 -4 -1 -4 -6 hvcurveto
          -2 -5 rlineto
          22 -23 12 -25 -24 vvcurveto
          -43 -42 -23 -42 vhcurveto
          -50 -26 37 -97 hhcurveto
          hintmask 10101100
          -178 -95 -116 -209 -207 93 -115 168 173 97 122 208 hvcurveto
          hintmask 11101100
          121 -32 87 -65 54 vhcurveto
          hintmask 11101010
          66 -3 50 30 61 vvcurveto
          hintmask 11111010
          45 -27 33 -12 vhcurveto
          hintmask 10101100
          -242 -131 rmoveto
          156 86 -103 -193 -197 -90 -114 -160 -155 -86 108 193 197 89 109 160 hvcurveto
          endchar
        </CharString>
        <CharString name="Ohorndotbelow">
          125 -128 40 83 20 572 18 17 20 101 10 hstemhm
          48 20 491 20 -1 20 hintmask 00000000
          hintmask 01111101
          559 753 rmoveto
          -3 -4 -1 -4 -6 hvcurveto
          -2 -5 rlineto
          22 -23 12 -25 -24 vvcurveto
          -43 -42 -23 -42 vhcurveto
          -50 -26 37 -97 hhcurveto
          hintmask 01010110
          -178 -95 -116 -209 -207 93 -115 168 173 97 122 208 hvcurveto
          hintmask 01110110
          121 -32 87 -65 54 vhcurveto
          hintmask 01110101
          66 -3 50 30 61 vvcurveto
          hintmask 01111101
          45 -27 33 -12 vhcurveto
          hintmask 11010110
          -242 -131 rmoveto
          156 86 -103 -193 -197 -90 -114 -160 -155 -86 108 193 197 89 109 160 hvcurveto
          -7 -710 rmoveto
          -12 0 -8 -8 0 -12 0 -12 8 -8 0 flex1
          12 0 8 8 0 12 0 12 -8 8 0 flex1
          endchar
        </CharString>
        <CharString name="Ohorngrave">
          125 -5 20 572 18 17 20 101 10 hstemhm
          48 20 491 20 -1 20 hintmask 10101100
          226 836 rmoveto
          -7 -12 2 -5 59 -34 56 -29 59 -30 rlinecurve
          5 3 7 15 -54 26 -56 29 -66 39 rlinecurve
          hintmask 11111010
          328 -85 rmoveto
          -3 -4 -1 -4 -6 hvcurveto
          -2 -5 rlineto
          22 -23 12 -25 -24 vvcurveto
          -43 -42 -23 -42 vhcurveto
          -50 -26 37 -97 hhcurveto
          hintmask 10101100
          -178 -95 -116 -209 -207 93 -115 168 173 97 122 208 hvcurveto
          hintmask 11101100
          121 -32 87 -65 54 vhcurveto
          hintmask 11101010
          66 -3 50 30 61 vvcurveto
          hintmask 11111010
          45 -27 33 -12 vhcurveto
          hintmask 10101100
          -242 -131 rmoveto
          156 86 -103 -193 -197 -90 -114 -160 -155 -86 108 193 197 89 109 160 hvcurveto
          endchar
        </CharString>
        <CharString name="Ohornhookabove">
          125 -5 20 572 18 17 20 101 10 89 20 hstemhm
          48 20 272 20 199 20 -1 20 hintmask 1011111100000000
          316 862 rmoveto
          -19 -23 -10 -19 -22 hvcurveto
          8 -14 rlineto
          15 18 20 8 16 hhcurveto
          16 10 -8 -12 -15 -18 -21 -33 -22 hvcurveto
          22 -41 17 7 -16 29 rlineto
          31 23 17 22 20 vvcurveto
          21 -18 17 -26 vhcurveto
          hintmask 1111111010000000
          243 -109 rmoveto
          -3 -4 -1 -4 -6 hvcurveto
          -2 -5 rlineto
          22 -23 12 -25 -24 vvcurveto
          -43 -42 -23 -42 vhcurveto
          -50 -26 37 -97 hhcurveto
          hintmask 1011111100000000
          -178 -95 -116 -209 -207 93 -115 168 173 97 122 208 hvcurveto
          hintmask 1111111100000000
          121 -32 87 -65 54 vhcurveto
          hintmask 1111111010000000
          66 -3 50 30 61 vvcurveto
          45 -27 33 -12 vhcurveto
          hintmask 1011111100000000
          -242 -131 rmoveto
          156 86 -103 -193 -197 -90 -114 -160 -155 -86 108 193 197 89 109 160 hvcurveto
          endchar
        </CharString>
        <CharString name="Ohorntilde">
          125 -5 20 572 18 17 20 101 10 0 22 15 22 hstemhm
          48 20 491 20 -1 20 hintmask 1010101100000000
          453 805 rmoveto
          -9 11 rlineto
          -4 hlineto
          -24 -27 -13 -17 -11 hhcurveto
          hintmask 1010111100000000
          -25 -94 34 4 -37 hvcurveto
          -6 -2 -52 -47 rlineto
          -4 vlineto
          9 -11 rlineto
          4 hlineto
          24 27 13 17 11 hhcurveto
          hintmask 1010101100000000
          25 94 -34 -4 37 hvcurveto
          6 2 52 47 rlineto
          hintmask 1111001010000000
          106 -48 rmoveto
          -3 -4 -1 -4 -6 hvcurveto
          -2 -5 rlineto
          22 -23 12 -25 -24 vvcurveto
          -43 -42 -23 -42 vhcurveto
          -50 -26 37 -97 hhcurveto
          hintmask 1010101100000000
          -178 -95 -116 -209 -207 93 -115 168 173 97 122 208 hvcurveto
          hintmask 1110101100000000
          121 -32 87 -65 54 vhcurveto
          hintmask 1110101010000000
          66 -3 50 30 61 vvcurveto
          hintmask 1111001010000000
          45 -27 33 -12 vhcurveto
          hintmask 1010101100000000
          -242 -131 rmoveto
          156 86 -103 -193 -197 -90 -114 -160 -155 -86 108 193 197 89 109 160 hvcurveto
          endchar
        </CharString>
        <CharString name="Ohungarumlaut">
          122 -5 20 607 20 hstem
          48 20 491 20 vstem
          222 721 rmoveto
          5 -1 38 35 37 34 37 36 rlinecurve
          1 5 -10 10 -5 1 -37 -37 -38 -34 -39 -36 rlinecurve
          141 -13 rmoveto
          5 -1 38 35 37 34 37 36 rlinecurve
          1 5 -10 10 -5 1 -37 -37 -38 -34 -39 -36 rlinecurve
          -23 -92 rmoveto
          -174 -96 -116 -209 -207 93 -115 167 174 97 119 215 201 -93 112 -168 hvcurveto
          -20 vmoveto
          155 86 -105 -188 -202 -90 -112 -161 -154 -86 108 194 196 89 109 161 hvcurveto
          endchar
        </CharString>
        <CharString name="Omacron">
          122 -5 20 607 20 130 20 hstem
          48 20 491 20 vstem
          460 789 rmoveto
          -3 3 rlineto
          -287 hlineto
          -2 -17 3 -3 rlineto
          287 hlineto
          -140 -130 rmoveto
          -174 -96 -116 -209 -207 93 -115 167 174 97 119 215 201 -93 112 -168 hvcurveto
          -20 vmoveto
          155 86 -105 -188 -202 -90 -112 -161 -154 -86 108 194 196 89 109 161 hvcurveto
          endchar
        </CharString>
        <CharString name="Omega">
          228 0 20 0 -21 623 20 hstemhm
          101 20 137 43 131 43 137 20 hintmask 10111010
          369 642 rmoveto
          -172 -96 -106 -191 -138 56 -115 101 -69 hvcurveto
          -3 -121 vlineto
          -82 1 -4 -18 3 -4 78 1 rlineto
          127 hlineto
          40 -1 2 2 rlineto
          hintmask 01111110
          16 vlineto
          -116 68 -64 117 143 vvcurveto
          178 89 99 159 156 87 -98 -177 -143 -64 -118 -116 -69 vhcurveto
          hintmask 10111110
          -16 vlineto
          2 -2 40 1 rlineto
          122 hlineto
          82 -1 rlineto
          hintmask 01111010
          4 18 -3 4 rlineto
          hintmask 10111110
          -78 -1 rlineto
          -126 3 hlineto
          101 70 56 116 138 vvcurveto
          hintmask 10111010
          190 -94 105 -169 vhcurveto
          endchar
        </CharString>
        <CharString name="Oogonek">
          122 -197 20 172 20 607 20 hstem
          48 20 238 20 233 20 vstem
          405 10 rmoveto
          113 38 61 110 171 vvcurveto
          201 -93 112 -168 -174 -96 -116 -209 -207 93 -115 167 24 23 2 5 21 vhcurveto
          -50 -74 rlineto
          -13 -19 -7 -21 -20 vvcurveto
          -40 26 -25 39 35 32 22 35 27 vhcurveto
          -11 16 rlineto
          -2 hlineto
          -33 -24 -29 -20 -28 hhcurveto
          -28 -17 19 26 16 5 16 15 22 hvcurveto
          -278 395 rmoveto
          196 89 109 161 155 86 -105 -188 -202 -90 -112 -161 -154 -86 108 194 vhcurveto
          endchar
        </CharString>
        <CharString name="Oslash">
          122 -5 20 607 20 64 -20 23 -20 hstemhm
          48 20 491 20 hintmask 00000000
          hintmask 11101100
          495 701 rmoveto
          -2 5 rlineto
          hintmask 11011100
          -16 3 -42 -90 rlineto
          15 -33 -39 8 -45 hhcurveto
          -174 -96 -116 -209 -137 41 -97 76 -50 hvcurveto
          -52 -113 2 -4 16 -3 51 110 rlineto
          -18 35 43 -10 48 hhcurveto
          174 97 119 215 hvcurveto
          hintmask 11101100
          138 -44 96 -82 47 vhcurveto
          -385 -293 rmoveto
          196 89 109 161 41 37 -7 -15 31 vhcurveto
          -253 -548 rlineto
          -69 47 -37 91 127 vvcurveto
          240 -302 rmoveto
          -45 -39 9 18 -33 hvcurveto
          253 549 rlineto
          75 -44 40 -90 -128 vvcurveto
          -202 -90 -112 -161 vhcurveto
          endchar
        </CharString>
        <CharString name="Oslashacute">
          122 -5 20 607 20 64 -20 23 -20 hstemhm
          48 20 491 20 hintmask 11011100
          257 727 rmoveto
          5 -3 59 30 56 29 59 34 rlinecurve
          2 5 -7 12 -5 2 -66 -39 -56 -29 -54 -26 rlinecurve
          hintmask 11101100
          245 -41 rmoveto
          -2 5 rlineto
          hintmask 11011100
          -16 3 -42 -90 rlineto
          15 -33 -39 8 -45 hhcurveto
          -174 -96 -116 -209 -137 41 -97 76 -50 hvcurveto
          -52 -113 2 -4 16 -3 51 110 rlineto
          -18 35 43 -10 48 hhcurveto
          174 97 119 215 hvcurveto
          hintmask 11101100
          138 -44 96 -82 47 vhcurveto
          -385 -293 rmoveto
          196 89 109 161 41 37 -7 -15 31 vhcurveto
          -253 -548 rlineto
          -69 47 -37 91 127 vvcurveto
          240 -302 rmoveto
          -45 -39 9 18 -33 hvcurveto
          253 549 rlineto
          75 -44 40 -90 -128 vvcurveto
          -202 -90 -112 -161 vhcurveto
          endchar
        </CharString>
        <CharString name="Otilde">
          122 -5 20 607 20 111 22 15 22 hstemhm
          48 20 491 20 hintmask 11101100
          453 805 rmoveto
          -9 11 rlineto
          -4 hlineto
          -24 -27 -13 -17 -11 hhcurveto
          hintmask 11111100
          -25 -94 34 4 -37 hvcurveto
          -6 -2 -52 -47 rlineto
          -4 vlineto
          9 -11 rlineto
          4 hlineto
          24 27 13 17 11 hhcurveto
          hintmask 11101100
          25 94 -34 -4 37 hvcurveto
          6 2 52 47 rlineto
          -135 -159 rmoveto
          -174 -96 -116 -209 -207 93 -115 167 174 97 119 215 201 -93 112 -168 hvcurveto
          -20 vmoveto
          155 86 -105 -188 -202 -90 -112 -161 -154 -86 108 194 196 89 109 161 hvcurveto
          endchar
        </CharString>
        <CharString name="P">
          -21 21 -21 249 20 349.5 20.5 hstem
          110 20 282 20 vstem
          110 637 rmoveto
          -637 20 249 89 vlineto
          137 76 75 136 115 -65 64 -116 hvcurveto
          -121 -370 rmoveto
          349 vlineto
          128 1 rlineto
          99 -4 55 -57 -98 vvcurveto
          -110 -58 -71 -105 -10 vhcurveto
          endchar
        </CharString>
        <CharString name="Q">
          123 -5 20 -16 16 607 20 hstemhm
          48 20 491 20 hintmask 00000000
          hintmask 01111000
          362 -1 rmoveto
          140 23 77 115 192 vvcurveto
          201 -93 112 -168 -174 -96 -116 -209 vhcurveto
          hintmask 10111000
          -207 93 -115 167 10 9 0 1 9 vhcurveto
          108 -97 135 -64 137 -17 rrcurveto
          5 hlineto
          8 12 rlineto
          6 vlineto
          hintmask 01111000
          -135 16 -130 59 -102 88 rrcurveto
          hintmask 10111000
          -294 318 rmoveto
          196 89 109 161 155 86 -105 -188 -202 -90 -112 -161 -154 -86 108 194 vhcurveto
          endchar
        </CharString>
        <CharString name="R">
          13 14 -21 28 -21 22 -21 262 20 335.5 20.5 hstemhm
          110 20 282 20 hintmask 00111110
          285 267 rmoveto
          95 29 52 70 98 vvcurveto
          113 -65 62 -116 vhcurveto
          -141 -2 rlineto
          hintmask 01011110
          -637 20 263 134 vlineto
          hintmask 10011110
          55 -91 62 -89 67 -88 6 -2 rcurveline
          5 2 3 2 4 4 rrcurveto
          4 vlineto
          hintmask 00111110
          -66 86 -60 86 -55 90 rrcurveto
          -155 16 rmoveto
          335 vlineto
          128 1 rlineto
          99 -4 55 -55 -96 vvcurveto
          -93 -50 -65 -90 -23 vhcurveto
          endchar
        </CharString>
        <CharString name="Racute">
          13 14 -21 28 -21 22 -21 262 20 335.5 20.5 hstemhm
          110 20 282 20 hintmask 00111110
          221 704 rmoveto
          5 -1 50 44 46 43 48 48 rlinecurve
          1 5 -10 10 -5 1 -54 -55 -46 -43 -46 -39 rlinecurve
          75 -450 rmoveto
          95 29 52 70 98 vvcurveto
          113 -65 62 -116 vhcurveto
          -141 -2 rlineto
          hintmask 01011110
          -637 20 263 134 vlineto
          hintmask 10011110
          55 -91 62 -89 67 -88 6 -2 rcurveline
          5 2 3 2 4 4 rrcurveto
          4 vlineto
          hintmask 00111110
          -66 86 -60 86 -55 90 rrcurveto
          -155 16 rmoveto
          335 vlineto
          128 1 rlineto
          99 -4 55 -55 -96 vvcurveto
          -93 -50 -65 -90 -23 vhcurveto
          endchar
        </CharString>
        <CharString name="Rcaron">
          13 14 -21 28 -21 22 -21 262 20 335.5 20.5 66 21 hstemhm
          110 20 282 20 hintmask 00111111
          268 705 rmoveto
          37 49 31 40 33 37 -9 12 rcurveline
          -5 hlineto
          -35 -39 -30 -37 -31 -41 -31 41 -30 37 -35 39 rrcurveto
          -5 hlineto
          -9 -12 33 -37 31 -40 37 -49 rlinecurve
          35 -438 rmoveto
          95 29 52 70 98 vvcurveto
          113 -65 62 -116 vhcurveto
          -141 -2 rlineto
          hintmask 01011111
          -637 20 263 134 vlineto
          hintmask 10011111
          55 -91 62 -89 67 -88 6 -2 rcurveline
          5 2 3 2 4 4 rrcurveto
          4 vlineto
          hintmask 00111111
          -66 86 -60 86 -55 90 rrcurveto
          -155 16 rmoveto
          335 vlineto
          128 1 rlineto
          99 -4 55 -55 -96 vvcurveto
          -93 -50 -65 -90 -23 vhcurveto
          endchar
        </CharString>
        <CharString name="Rcommaaccent">
          13 14 -21 28 -21 22 -21 262 20 335.5 20.5 hstemhm
          110 20 146 21 115 20 hintmask 00111111
          285 267 rmoveto
          95 29 52 70 98 vvcurveto
          113 -65 62 -116 vhcurveto
          -141 -2 rlineto
          hintmask 01011111
          -637 20 263 134 vlineto
          hintmask 10011111
          55 -91 62 -89 67 -88 6 -2 rcurveline
          5 2 3 2 4 4 rrcurveto
          4 vlineto
          hintmask 00111111
          -66 86 -60 86 -55 90 rrcurveto
          -155 16 rmoveto
          335 vlineto
          128 1 rlineto
          99 -4 55 -55 -96 vvcurveto
          -93 -50 -65 -90 -23 vhcurveto
          -13 -353 rmoveto
          -6 -3 -4 -4 -3 -4 rrcurveto
          -4 vlineto
          19 -9 11 -12 -13 vvcurveto
          -24 -19 -28 -35 -26 vhcurveto
          -1 -3 10 -11 rlineto
          43 33 23 33 27 vvcurveto
          20 -14 17 -24 11 vhcurveto
          endchar
        </CharString>
        <CharString name="S">
          -60 -4 20 604 20 hstem
          66 20 284 20 vstem
          246 640 rmoveto
          -107 -73 -71 -86 hvcurveto
          -181 304 25 -165 vvcurveto
          -72 -64 -74 -103 -46 -57 15 33 -42 vhcurveto
          -5 -2 -1 -19 rlineto
          -31 43 59 -16 50 hhcurveto
          109 77 77 89 hvcurveto
          185 -304 -23 156 vvcurveto
          65 56 75 102 31 43 -8 -20 39 vhcurveto
          7 1 4 18 rlineto
          22 -47 -44 7 -31 hhcurveto
          endchar
        </CharString>
        <CharString name="Sacute">
          -60 -4 20 604 20 hstem
          66 20 284 20 vstem
          335 853 rmoveto
          -5 1 -54 -55 -46 -43 -46 -39 rlinecurve
          11 -13 5 -1 50 44 46 43 48 48 rlinecurve
          1 5 rlineto
          -99 -203 rmoveto
          -107 -73 -71 -86 hvcurveto
          -181 304 25 -165 vvcurveto
          -72 -64 -74 -103 -46 -57 15 33 -42 vhcurveto
          -5 -2 -1 -19 rlineto
          -31 43 59 -16 50 hhcurveto
          109 77 77 89 hvcurveto
          185 -304 -23 156 vvcurveto
          65 56 75 102 31 43 -8 -20 39 vhcurveto
          7 1 4 18 rlineto
          22 -47 -44 7 -31 hhcurveto
          endchar
        </CharString>
        <CharString name="Scaron">
          -60 -4 20 604 20 65 21 hstem
          66 20 284 20 vstem
          334 843 rmoveto
          -5 hlineto
          -35 -39 -30 -37 -31 -41 -31 41 -30 37 -35 39 rrcurveto
          -5 hlineto
          -9 -12 33 -37 31 -40 37 -49 rlinecurve
          18 hlineto
          37 49 31 40 33 37 rrcurveto
          -97 -191 rmoveto
          -107 -73 -71 -86 hvcurveto
          -181 304 25 -165 vvcurveto
          -72 -64 -74 -103 -46 -57 15 33 -42 vhcurveto
          -5 -2 -1 -19 rlineto
          -31 43 59 -16 50 hhcurveto
          109 77 77 89 hvcurveto
          185 -304 -23 156 vvcurveto
          65 56 75 102 31 43 -8 -20 39 vhcurveto
          7 1 4 18 rlineto
          22 -47 -44 7 -31 hhcurveto
          endchar
        </CharString>
        <CharString name="Scedilla">
          -60 -178 20 154 20 604 20 hstem
          66 20 171 20 93 20 vstem
          390 162 rmoveto
          185 -304 -23 156 vvcurveto
          65 56 75 102 31 43 -8 -20 39 vhcurveto
          7 1 4 18 rlineto
          22 -47 -44 7 -31 hhcurveto
          -107 -73 -71 -86 hvcurveto
          -181 304 25 -165 vvcurveto
          -72 -64 -74 -103 -46 -57 15 33 -42 vhcurveto
          -5 -2 -1 -19 rlineto
          -31 43 59 -16 50 hhcurveto
          5 hlineto
          -20 -60 44 -28 rlineto
          15 -10 9 -7 -16 vvcurveto
          -21 -16 -12 -24 -25 -12 13 18 -12 vhcurveto
          -4 hlineto
          -6 -18 rlineto
          -15 10 19 -18 30 hhcurveto
          32 28 20 33 22 -11 14 -22 14 hvcurveto
          -31 20 17 52 rlineto
          95 11 65 72 82 vvcurveto
          endchar
        </CharString>
        <CharString name="Scircumflex">
          -60 -4 20 604 20 182 21 hstem
          66 20 284 20 vstem
          132 705 rmoveto
          5 hlineto
          35 39 30 37 31 41 31 -41 30 -37 35 -39 rrcurveto
          5 hlineto
          9 12 -33 37 -31 40 -37 49 rlinecurve
          -18 hlineto
          -37 -49 -31 -40 -33 -37 rrcurveto
          123 -77 rmoveto
          -107 -73 -71 -86 hvcurveto
          -181 304 25 -165 vvcurveto
          -72 -64 -74 -103 -46 -57 15 33 -42 vhcurveto
          -5 -2 -1 -19 rlineto
          -31 43 59 -16 50 hhcurveto
          109 77 77 89 hvcurveto
          185 -304 -23 156 vvcurveto
          65 56 75 102 31 43 -8 -20 39 vhcurveto
          7 1 4 18 rlineto
          22 -47 -44 7 -31 hhcurveto
          endchar
        </CharString>
        <CharString name="Scommaaccent">
          -60 -4 20 604 20 hstem
          66 20 145 21 118 20 vstem
          246 640 rmoveto
          -107 -73 -71 -86 hvcurveto
          -181 304 25 -165 vvcurveto
          -72 -64 -74 -103 -46 -57 15 33 -42 vhcurveto
          -5 -2 -1 -19 rlineto
          -31 43 59 -16 50 hhcurveto
          109 77 77 89 hvcurveto
          185 -304 -23 156 vvcurveto
          65 56 75 102 31 43 -8 -20 39 vhcurveto
          7 1 4 18 rlineto
          22 -47 -44 7 -31 hhcurveto
          -32 -710 rmoveto
          -6 -3 -4 -4 -3 -4 rrcurveto
          -4 vlineto
          19 -9 11 -12 -13 vvcurveto
          -24 -19 -28 -35 -26 vhcurveto
          -1 -3 10 -11 rlineto
          43 33 23 33 27 vvcurveto
          20 -14 17 -24 11 vhcurveto
          endchar
        </CharString>
        <CharString name="T">
          -30 21 -21 617 20 hstem
          228 20 vstem
          447 633 rmoveto
          -3 4 rlineto
          -412 hlineto
          -4 -16 3 -4 rlineto
          197 -617 20 617 195 hlineto
          endchar
        </CharString>
        <CharString name="Tbar">
          -30 21 -21 330 20 267 20 hstem
          228 20 vstem
          248 617 rmoveto
          195 hlineto
          4 16 -3 4 rlineto
          -412 hlineto
          -4 -16 3 -4 rlineto
          197 -267 -98 hlineto
          -2 -17 3 -3 rlineto
          97 -330 20 330 105 hlineto
          2 17 -3 3 rlineto
          -104 hlineto
          endchar
        </CharString>
        <CharString name="Tcaron">
          -30 21 -21 617 20 68 21 hstem
          228 20 vstem
          251 705 rmoveto
          37 49 31 40 33 37 -9 12 rcurveline
          -5 hlineto
          -35 -39 -30 -37 -31 -41 -31 41 -30 37 -35 39 rrcurveto
          -5 hlineto
          -9 -12 33 -37 31 -40 37 -49 rlinecurve
          214 -72 rmoveto
          -3 4 rlineto
          -412 hlineto
          -4 -16 3 -4 rlineto
          197 -617 20 617 195 hlineto
          endchar
        </CharString>
        <CharString name="Tcedilla">
          -30 -178 20 775 20 hstemhm
          228 20 25 20 hintmask 11100000
          447 633 rmoveto
          -3 4 rlineto
          -412 hlineto
          -4 -16 3 -4 rlineto
          197 -612 hlineto
          hintmask 11110000
          -23 -69 44 -28 rlineto
          15 -10 9 -7 -16 vvcurveto
          -21 -16 -12 -24 -25 -12 13 18 -12 vhcurveto
          -4 hlineto
          -6 -18 rlineto
          -15 10 19 -18 30 hhcurveto
          32 28 20 33 22 -11 14 -22 14 hvcurveto
          hintmask 11100000
          -31 20 18 55 rlineto
          1 5 hlineto
          2 6 rlineto
          -2 606 195 hlineto
          endchar
        </CharString>
        <CharString name="Tcommaaccent">
          -30 21 -21 617 20 hstemhm
          228 20 -1 21 hintmask 11100000
          447 633 rmoveto
          -3 4 rlineto
          -412 hlineto
          -4 -16 3 -4 rlineto
          197 -617 20 617 195 hlineto
          hintmask 11010000
          -213 -687 rmoveto
          -6 -3 -4 -4 -3 -4 rrcurveto
          -4 vlineto
          19 -9 11 -12 -13 vvcurveto
          -24 -19 -28 -35 -26 vhcurveto
          -1 -3 10 -11 rlineto
          43 33 23 33 27 vvcurveto
          20 -14 17 -24 11 vhcurveto
          endchar
        </CharString>
        <CharString name="Thorn">
          -18 21 -21 126 20 349.5 20.5 121 -20 hstem
          110 20 282 20 vstem
          130 514 rmoveto
          123 -20 -637 20 126 89 vlineto
          137 76 75 136 115 -65 64 -116 hvcurveto
          -121 -370 rmoveto
          349 vlineto
          128 1 rlineto
          99 -4 55 -57 -98 vvcurveto
          -110 -58 -68 -105 -13 vhcurveto
          endchar
        </CharString>
        <CharString name="U">
          107 -4 20 621 -20 hstem
          86 20 400 20 vstem
          526 637 rmoveto
          -20 -408 hlineto
          -137 -71 -76 -129 -130 -71 76 137 1 vhcurveto
          408 -20 -408 vlineto
          -150 77 -83 143 142 82 86 147 -4 vhcurveto
          endchar
        </CharString>
        <CharString name="Uacute">
          107 -4 20 621 -20 hstem
          86 20 400 20 vstem
          429 834 rmoveto
          -5 2 -66 -39 -56 -29 -54 -26 rlinecurve
          7 -15 5 -3 59 30 56 29 59 34 rlinecurve
          2 5 rlineto
          90 -185 rmoveto
          -20 -408 hlineto
          -137 -71 -76 -129 -130 -71 76 137 1 vhcurveto
          408 -20 -408 vlineto
          -150 77 -83 143 142 82 86 147 -4 vhcurveto
          endchar
        </CharString>
        <CharString name="Ubreve">
          107 -4 20 621 -20 90 20 hstem
          86 20 287 18 95 20 vstem
          398 825 rmoveto
          -5 hlineto
          -67 -9 -26 -31 -48 hhcurveto
          -48 -26 31 67 -9 hvcurveto
          -5 hlineto
          -13 -13 rlineto
          -72 13 32 -33 56 hhcurveto
          56 32 33 72 13 hvcurveto
          115 -175 rmoveto
          -20 -408 hlineto
          -137 -71 -76 -129 -130 -71 76 137 1 vhcurveto
          408 -20 -408 vlineto
          -150 77 -83 143 142 82 86 147 -4 vhcurveto
          endchar
        </CharString>
        <CharString name="Ucaron">
          107 -4 20 621 -20 88 21 hstem
          86 20 400 20 vstem
          411 843 rmoveto
          -5 hlineto
          -35 -39 -30 -37 -31 -41 -31 41 -30 37 -35 39 rrcurveto
          -5 hlineto
          -9 -12 33 -37 31 -40 37 -49 rlinecurve
          18 hlineto
          37 49 31 40 33 37 rrcurveto
          106 -194 rmoveto
          -20 -408 hlineto
          -137 -71 -76 -129 -130 -71 76 137 1 vhcurveto
          408 -20 -408 vlineto
          -150 77 -83 143 142 82 86 147 -4 vhcurveto
          endchar
        </CharString>
        <CharString name="Ucircumflex">
          107 -4 20 621 -20 191 20 hstem
          86 20 400 20 vstem
          210 738 rmoveto
          5 hlineto
          33 23 31 23 31 24 31 -24 31 -23 33 -23 rrcurveto
          5 hlineto
          7 14 -34 24 -33 26 -33 26 rlinecurve
          -16 hlineto
          -31 -26 -33 -26 -34 -24 rrcurveto
          323 -115 rmoveto
          -20 -408 hlineto
          -137 -71 -76 -129 -130 -71 76 137 1 vhcurveto
          408 -20 -408 vlineto
          -150 77 -83 143 142 82 86 147 -4 vhcurveto
          endchar
        </CharString>
        <CharString name="Udieresis">
          107 -4 20 621 -20 143 40 hstem
          86 20 134 140 126 20 vstem
          240 800 rmoveto
          -12 0 -8 -8 0 -12 0 -12 8 -8 0 flex1
          12 0 8 8 0 12 0 12 -8 8 0 flex1
          140 hmoveto
          -12 0 -8 -8 0 -12 0 -12 8 -8 0 flex1
          12 0 8 8 0 12 0 12 -8 8 0 flex1
          146 -163 rmoveto
          -20 -408 hlineto
          -137 -71 -76 -129 -130 -71 76 137 1 vhcurveto
          408 -20 -408 vlineto
          -150 77 -83 143 142 82 86 147 -4 vhcurveto
          endchar
        </CharString>
        <CharString name="Udieresisacute">
          107 -4 20 621 -20 123 40 hstem
          86 20 133 140 127 20 vstem
          406 918 rmoveto
          -4 3 -72 -27 -60 -19 -58 -16 rlinecurve
          4 -16 5 -4 63 19 60 19 64 23 rlinecurve
          3 5 rlineto
          -172 -125 rmoveto
          -12 0 -8 -8 0 -12 0 -12 8 -8 0 flex1
          12 0 8 8 0 12 0 12 -8 8 0 flex1
          140 hmoveto
          -12 0 -8 -8 0 -12 0 -12 8 -8 0 flex1
          12 0 8 8 0 12 0 12 -8 8 0 flex1
          147 -143 rmoveto
          -20 -408 hlineto
          -137 -71 -76 -129 -130 -71 76 137 1 vhcurveto
          408 -20 -408 vlineto
          -150 77 -83 143 142 82 86 147 -4 vhcurveto
          endchar
        </CharString>
        <CharString name="Udieresiscaron">
          107 -4 20 621 -20 123 40 33 20 hstem
          86 20 133 140 127 20 vstem
          410 903 rmoveto
          -5 hlineto
          -33 -23 -31 -23 -31 -24 -31 24 -31 23 -33 23 rrcurveto
          -5 hlineto
          -7 -14 34 -24 33 -26 33 -26 rlinecurve
          16 hlineto
          31 26 33 26 34 24 rrcurveto
          -178 -109 rmoveto
          -12 0 -8 -8 0 -12 0 -12 8 -8 0 flex1
          12 0 8 8 0 12 0 12 -8 8 0 flex1
          140 hmoveto
          -12 0 -8 -8 0 -12 0 -12 8 -8 0 flex1
          12 0 8 8 0 12 0 12 -8 8 0 flex1
          147 -143 rmoveto
          -20 -408 hlineto
          -137 -71 -76 -129 -130 -71 76 137 1 vhcurveto
          408 -20 -408 vlineto
          -150 77 -83 143 142 82 86 147 -4 vhcurveto
          endchar
        </CharString>
        <CharString name="Udieresisgrave">
          107 -4 20 621 -20 123 40 hstemhm
          86 20 133 140 23 7 97 20 hintmask 11110110
          217 918 rmoveto
          -5 -13 3 -5 64 -23 60 -19 63 -19 rlinecurve
          5 4 4 16 -58 16 -60 19 -72 27 rlinecurve
          hintmask 11111110
          18 -141 rmoveto
          -12 0 -8 -8 0 -12 0 -12 8 -8 0 flex1
          12 0 8 8 0 12 0 12 -8 8 0 flex1
          140 hmoveto
          -12 0 -8 -8 0 -12 0 -12 8 -8 0 flex1
          12 0 8 8 0 12 0 12 -8 8 0 flex1
          147 -143 rmoveto
          -20 -408 hlineto
          -137 -71 -76 -129 -130 -71 76 137 1 vhcurveto
          408 -20 -408 vlineto
          -150 77 -83 143 142 82 86 147 -4 vhcurveto
          endchar
        </CharString>
        <CharString name="Udieresismacron">
          107 -4 20 621 -20 123 40 76 20 hstem
          86 20 133 140 127 20 vstem
          431 873 rmoveto
          -3 3 rlineto
          -237 hlineto
          -2 -17 3 -3 rlineto
          237 hlineto
          -190 -76 rmoveto
          -12 0 -8 -8 0 -12 0 -12 8 -8 0 flex1
          12 0 8 8 0 12 0 12 -8 8 0 flex1
          140 hmoveto
          -12 0 -8 -8 0 -12 0 -12 8 -8 0 flex1
          12 0 8 8 0 12 0 12 -8 8 0 flex1
          147 -143 rmoveto
          -20 -408 hlineto
          -137 -71 -76 -129 -130 -71 76 137 1 vhcurveto
          408 -20 -408 vlineto
          -150 77 -83 143 142 82 86 147 -4 vhcurveto
          endchar
        </CharString>
        <CharString name="Udotbelow">
          107 -128 40 84 20 621 -20 hstem
          86 20 400 20 vstem
          526 637 rmoveto
          -20 -408 hlineto
          -137 -71 -76 -129 -130 -71 76 137 1 vhcurveto
          408 -20 -408 vlineto
          -150 77 -83 143 142 82 86 147 -4 vhcurveto
          -223 -317 rmoveto
          -12 0 -8 -8 0 -12 0 -12 8 -8 0 flex1
          12 0 8 8 0 12 0 12 -8 8 0 flex1
          endchar
        </CharString>
        <CharString name="Ugrave">
          107 -4 20 621 -20 hstem
          86 20 400 20 vstem
          222 836 rmoveto
          -7 -12 2 -5 59 -34 56 -29 59 -30 rlinecurve
          5 3 7 15 -54 26 -56 29 -66 39 rlinecurve
          299 -201 rmoveto
          -20 -408 hlineto
          -137 -71 -76 -129 -130 -71 76 137 1 vhcurveto
          408 -20 -408 vlineto
          -150 77 -83 143 142 82 86 147 -4 vhcurveto
          endchar
        </CharString>
        <CharString name="Uhookabove">
          107 -4 20 621 -20 225 20 hstem
          86 20 230 20 150 20 vstem
          312 862 rmoveto
          -19 -23 -10 -19 -22 hvcurveto
          8 -14 rlineto
          15 18 20 8 16 hhcurveto
          16 10 -8 -12 -15 -18 -21 -33 -22 hvcurveto
          22 -41 17 7 -16 29 rlineto
          31 23 17 22 20 vvcurveto
          21 -18 17 -26 vhcurveto
          214 -225 rmoveto
          -20 -408 hlineto
          -137 -71 -76 -129 -130 -71 76 137 1 vhcurveto
          408 -20 -408 vlineto
          -150 77 -83 143 142 82 86 147 -4 vhcurveto
          endchar
        </CharString>
        <CharString name="Uhorn">
          117 -4 20 601 20 114 10 hstem
          86 20 400 20 59 20 vstem
          526 617 rmoveto
          48 4 31 28 41 vvcurveto
          40 -29 31 -11 -2 -4 -1 -4 -6 vhcurveto
          -2 -5 rlineto
          26 -25 8 -18 -18 vvcurveto
          -32 -27 -21 -42 vhcurveto
          -10 -408 hlineto
          -137 -71 -76 -129 -130 -71 76 137 1 vhcurveto
          408 -20 -408 vlineto
          -150 77 -83 143 142 82 86 147 -4 vhcurveto
          endchar
        </CharString>
        <CharString name="Uhornacute">
          117 -4 20 601 20 114 10 hstem
          86 20 400 20 59 20 vstem
          255 727 rmoveto
          5 -3 59 30 56 29 59 34 rlinecurve
          2 5 -7 12 -5 2 -66 -39 -56 -29 -54 -26 rlinecurve
          278 -125 rmoveto
          48 4 31 28 41 vvcurveto
          40 -29 31 -11 -2 -4 -1 -4 -6 vhcurveto
          -2 -5 rlineto
          26 -25 8 -18 -18 vvcurveto
          -32 -27 -21 -42 vhcurveto
          -10 -408 hlineto
          -137 -71 -76 -129 -130 -71 76 137 1 vhcurveto
          408 -20 -408 vlineto
          -150 77 -83 143 142 82 86 147 -4 vhcurveto
          endchar
        </CharString>
        <CharString name="Uhorndotbelow">
          117 -128 40 84 20 601 20 114 10 hstem
          86 20 400 20 59 20 vstem
          526 617 rmoveto
          48 4 31 28 41 vvcurveto
          40 -29 31 -11 -2 -4 -1 -4 -6 vhcurveto
          -2 -5 rlineto
          26 -25 8 -18 -18 vvcurveto
          -32 -27 -21 -42 vhcurveto
          -10 -408 hlineto
          -137 -71 -76 -129 -130 -71 76 137 1 vhcurveto
          408 -20 -408 vlineto
          -150 77 -83 143 142 82 86 147 -4 vhcurveto
          -220 -317 rmoveto
          -12 0 -8 -8 0 -12 0 -12 8 -8 0 flex1
          12 0 8 8 0 12 0 12 -8 8 0 flex1
          endchar
        </CharString>
        <CharString name="Uhorngrave">
          117 -4 20 601 20 114 10 hstem
          86 20 400 20 59 20 vstem
          396 729 rmoveto
          7 15 -54 26 -56 29 -66 39 rlinecurve
          -5 -2 -7 -12 2 -5 59 -34 56 -29 59 -30 rlinecurve
          135 -109 rmoveto
          48 4 31 28 41 vvcurveto
          40 -29 31 -11 -2 -4 -1 -4 -6 vhcurveto
          -2 -5 rlineto
          26 -25 8 -18 -18 vvcurveto
          -32 -27 -21 -42 vhcurveto
          -10 -408 hlineto
          -137 -71 -76 -129 -130 -71 76 137 1 vhcurveto
          408 -20 -408 vlineto
          -150 77 -83 143 142 82 86 147 -4 vhcurveto
          endchar
        </CharString>
        <CharString name="Uhornhookabove">
          117 -4 20 601 20 114 10 81 20 hstem
          86 20 230 20 150 20 59 20 vstem
          310 842 rmoveto
          16 10 -8 -12 -15 -18 -21 -33 -22 hvcurveto
          22 -41 17 7 -16 29 rlineto
          31 23 17 22 20 vvcurveto
          21 -18 17 -26 -19 -23 -10 -19 -22 vhcurveto
          8 -14 rlineto
          15 18 20 8 16 hhcurveto
          216 -225 rmoveto
          48 4 31 28 41 vvcurveto
          40 -29 31 -11 -2 -4 -1 -4 -6 vhcurveto
          -2 -5 rlineto
          26 -25 8 -18 -18 vvcurveto
          -32 -27 -21 -42 vhcurveto
          -10 -408 hlineto
          -137 -71 -76 -129 -130 -71 76 137 1 vhcurveto
          408 -20 -408 vlineto
          -150 77 -83 143 142 82 86 147 -4 vhcurveto
          endchar
        </CharString>
        <CharString name="Uhorntilde">
          117 -4 20 601 20 114 10 -8 22 15 22 hstemhm
          86 20 400 20 59 20 hintmask 11001111
          180 749 rmoveto
          4 hlineto
          24 27 13 17 11 hhcurveto
          hintmask 11011111
          25 94 -34 -4 37 hvcurveto
          6 2 52 47 rlineto
          4 vlineto
          -9 11 rlineto
          -4 hlineto
          -24 -27 -13 -17 -11 hhcurveto
          hintmask 11001111
          -25 -94 34 4 -37 hvcurveto
          -6 -2 -52 -47 rlineto
          -4 vlineto
          355 -143 rmoveto
          48 4 31 28 41 vvcurveto
          hintmask 11101111
          40 -29 31 -11 -2 -4 -1 -4 -6 vhcurveto
          -2 -5 rlineto
          26 -25 8 -18 -18 vvcurveto
          -32 -27 -21 -42 vhcurveto
          -10 -408 hlineto
          -137 -71 -76 -129 -130 -71 76 137 1 vhcurveto
          408 -20 -408 vlineto
          -150 77 -83 143 142 82 86 147 -4 vhcurveto
          endchar
        </CharString>
        <CharString name="Uhungarumlaut">
          107 -4 20 621 -20 hstem
          86 20 400 20 vstem
          218 721 rmoveto
          5 -1 38 35 37 34 37 36 rlinecurve
          1 5 -10 10 -5 1 -37 -37 -38 -34 -39 -36 rlinecurve
          141 -13 rmoveto
          5 -1 38 35 37 34 37 36 rlinecurve
          1 5 -10 10 -5 1 -37 -37 -38 -34 -39 -36 rlinecurve
          189 -97 rmoveto
          -20 -408 hlineto
          -137 -71 -76 -129 -130 -71 76 137 1 vhcurveto
          408 -20 -408 vlineto
          -150 77 -83 143 142 82 86 147 -4 vhcurveto
          endchar
        </CharString>
        <CharString name="Umacron">
          107 -4 20 621 -20 155 20 hstem
          86 20 400 20 vstem
          456 789 rmoveto
          -3 3 rlineto
          -287 hlineto
          -2 -17 3 -3 rlineto
          287 hlineto
          72 -135 rmoveto
          -20 -408 hlineto
          -137 -71 -76 -129 -130 -71 76 137 1 vhcurveto
          408 -20 -408 vlineto
          -150 77 -83 143 142 82 86 147 -4 vhcurveto
          endchar
        </CharString>
        <CharString name="Uogonek">
          107 -197 20 173 20 621 -20 hstem
          86 20 213 20 167 20 vstem
          467 -124 rmoveto
          -2 hlineto
          -33 -24 -29 -20 -28 hhcurveto
          -28 -17 19 26 16 5 16 15 22 hvcurveto
          70 103 65 36 35 71 -3 97 rlinecurve
          408 -20 -408 vlineto
          -137 -71 -76 -129 -130 -71 76 137 1 vhcurveto
          408 -20 -408 vlineto
          -150 77 -83 143 33 29 5 8 26 vhcurveto
          -55 -81 rlineto
          -13 -19 -7 -21 -20 vvcurveto
          -40 26 -25 39 35 32 22 35 27 vhcurveto
          endchar
        </CharString>
        <CharString name="Uring">
          107 -4 20 621 -20 97 20 99 20 hstem
          86 20 132 20 101 20 127 20 vstem
          308 853 rmoveto
          -42 -28 -30 -39 -44 35 -26 35 35 36 25 44 35 -25 35 -46 hvcurveto
          -20 vmoveto
          34 17 -23 -27 -32 -24 -17 -27 -27 -23 18 32 29 19 20 31 hvcurveto
          218 -196 rmoveto
          -20 -408 hlineto
          -137 -71 -76 -129 -130 -71 76 137 1 vhcurveto
          408 -20 -408 vlineto
          -150 77 -83 143 142 82 86 147 -4 vhcurveto
          endchar
        </CharString>
        <CharString name="Utilde">
          107 -4 20 621 -20 136 22 15 22 hstemhm
          86 20 400 20 hintmask 00000000
          hintmask 11111100
          449 805 rmoveto
          -9 11 rlineto
          -4 hlineto
          -24 -27 -13 -17 -11 hhcurveto
          hintmask 11011100
          -25 -94 34 4 -37 hvcurveto
          -6 -2 -52 -47 rlineto
          -4 vlineto
          9 -11 rlineto
          4 hlineto
          24 27 13 17 11 hhcurveto
          hintmask 11111100
          25 94 -34 -4 37 hvcurveto
          6 2 52 47 rlineto
          hintmask 11011100
          77 -164 rmoveto
          -20 -408 hlineto
          -137 -71 -76 -129 -130 -71 76 137 1 vhcurveto
          408 -20 -408 vlineto
          -150 77 -83 143 142 82 86 147 -4 vhcurveto
          endchar
        </CharString>
        <CharString name="V">
          33 0 34 603 -20 hstem
          20 507 vstem
          273 hmoveto
          254 637 rlineto
          -24 hlineto
          -14 -43 -223 -560 rlineto
          -4 hlineto
          -206 560 -13 43 rlineto
          -23 hlineto
          233 -637 rlineto
          endchar
        </CharString>
        <CharString name="V.ss01">
          -24 0 20 -20 32 439 20 hstemhm
          -100 681 hintmask 10110000
          443 471 rmoveto
          138 20 -681 -20 144 hlineto
          174 -451 rlineto
          -318 -20 681 20 -327 hlineto
          168 451 rmoveto
          -6 -18 rlineto
          hintmask 01110000
          -178 -421 rlineto
          -3 hlineto
          -165 421 -6 18 rlineto
          endchar
        </CharString>
        <CharString name="W">
          379 0 34 603 -20 hstem
          23 848 vstem
          622 hmoveto
          249 637 rlineto
          -23 hlineto
          -14 -43 -219 -560 rlineto
          -4 hlineto
          -202 560 -13 43 rlineto
          -22 hlineto
          60 -166 -169 -437 rlineto
          -4 hlineto
          -202 560 -13 43 rlineto
          -23 hlineto
          229 -637 rlineto
          20 hlineto
          170 438 rlineto
          4 hlineto
          156 -438 rlineto
          endchar
        </CharString>
        <CharString name="Wacute">
          379 0 34 603 -20 hstem
          23 848 vstem
          553 834 rmoveto
          -5 2 -66 -39 -56 -29 -54 -26 rlinecurve
          7 -15 5 -3 59 30 56 29 59 34 rlinecurve
          2 5 rlineto
          62 -822 rmoveto
          249 637 rlineto
          -23 hlineto
          -14 -43 -219 -560 rlineto
          -4 hlineto
          -202 560 -13 43 rlineto
          -22 hlineto
          60 -166 -169 -437 rlineto
          -4 hlineto
          -202 560 -13 43 rlineto
          -23 hlineto
          229 -637 rlineto
          20 hlineto
          170 438 rlineto
          4 hlineto
          156 -438 rlineto
          endchar
        </CharString>
        <CharString name="Wcircumflex">
          379 0 34 603 -20 191 20 hstem
          23 848 vstem
          334 738 rmoveto
          5 hlineto
          33 23 31 23 31 24 31 -24 31 -23 33 -23 rrcurveto
          5 hlineto
          7 14 -34 24 -33 26 -33 26 rlinecurve
          -16 hlineto
          -31 -26 -33 -26 -34 -24 rrcurveto
          295 -752 rmoveto
          249 637 rlineto
          -23 hlineto
          -14 -43 -219 -560 rlineto
          -4 hlineto
          -202 560 -13 43 rlineto
          -22 hlineto
          60 -166 -169 -437 rlineto
          -4 hlineto
          -202 560 -13 43 rlineto
          -23 hlineto
          229 -637 rlineto
          20 hlineto
          170 438 rlineto
          4 hlineto
          156 -438 rlineto
          endchar
        </CharString>
        <CharString name="Wdieresis">
          379 0 34 603 -20 143 40 hstem
          364 140 vstem
          364 800 rmoveto
          -12 0 -8 -8 0 -12 0 -12 8 -8 0 flex1
          12 0 8 8 0 12 0 12 -8 8 0 flex1
          140 hmoveto
          -12 0 -8 -8 0 -12 0 -12 8 -8 0 flex1
          12 0 8 8 0 12 0 12 -8 8 0 flex1
          118 -800 rmoveto
          249 637 rlineto
          -23 hlineto
          -14 -43 -219 -560 rlineto
          -4 hlineto
          -202 560 -13 43 rlineto
          -22 hlineto
          60 -166 -169 -437 rlineto
          -4 hlineto
          -202 560 -13 43 rlineto
          -23 hlineto
          229 -637 rlineto
          20 hlineto
          170 438 rlineto
          4 hlineto
          156 -438 rlineto
          endchar
        </CharString>
        <CharString name="Wgrave">
          379 0 34 603 -20 hstem
          23 848 vstem
          346 836 rmoveto
          -7 -12 2 -5 59 -34 56 -29 59 -30 rlinecurve
          5 3 7 15 -54 26 -56 29 -66 39 rlinecurve
          271 -838 rmoveto
          249 637 rlineto
          -23 hlineto
          -14 -43 -219 -560 rlineto
          -4 hlineto
          -202 560 -13 43 rlineto
          -22 hlineto
          60 -166 -169 -437 rlineto
          -4 hlineto
          -202 560 -13 43 rlineto
          -23 hlineto
          229 -637 rlineto
          20 hlineto
          170 438 rlineto
          4 hlineto
          156 -438 rlineto
          endchar
        </CharString>
        <CharString name="X">
          61 21 -21 637 -20 hstem
          34 486 vstem
          289 330 rmoveto
          212 307 rlineto
          -27 hlineto
          -24 -40 -174 -251 -178 256 -22 35 rlineto
          -28 hlineto
          215 -307 -229 -330 rlineto
          27 hlineto
          22 36 193 278 193 -276 24 -38 rlineto
          27 hlineto
          endchar
        </CharString>
        <CharString name="X.ss01">
          -1 0 20 451 20 hstem
          -100 704 vstem
          258 253 rmoveto
          160 218 rlineto
          186 20 -704 -20 171 hlineto
          162 -218 -172 -233 rlineto
          -161 -20 704 20 -171 hlineto
          -187 249 rmoveto
          -142 191 -7 11 rlineto
          297 hlineto
          -9 -15 rlineto
          -139 -218 rmoveto
          153 -206 8 -12 rlineto
          -323 hlineto
          7 11 rlineto
          endchar
        </CharString>
        <CharString name="Y">
          -10 21 -21 637 -20 hstem
          228 20 vstem
          248 245 rmoveto
          218 392 rlineto
          -26 hlineto
          -11 -26 -188 -334 rlineto
          -5 hlineto
          -173 334 -11 26 rlineto
          -26 hlineto
          202 -391 rlineto
          -246 20 vlineto
          endchar
        </CharString>
        <CharString name="Yacute">
          -10 21 -21 637 -20 hstem
          228 20 vstem
          184 727 rmoveto
          5 -3 59 30 56 29 59 34 rlinecurve
          2 5 -7 12 -5 2 -66 -39 -56 -29 -54 -26 rlinecurve
          71 -497 rmoveto
          218 392 rlineto
          -26 hlineto
          -11 -26 -188 -334 rlineto
          -5 hlineto
          -173 334 -11 26 rlineto
          -26 hlineto
          202 -391 rlineto
          -246 20 vlineto
          endchar
        </CharString>
        <CharString name="Ycircumflex">
          -10 21 -21 637 -20 191 20 hstem
          228 20 vstem
          139 738 rmoveto
          5 hlineto
          33 23 31 23 31 24 31 -24 31 -23 33 -23 rrcurveto
          5 hlineto
          7 14 -34 24 -33 26 -33 26 rlinecurve
          -16 hlineto
          -31 -26 -33 -26 -34 -24 rrcurveto
          116 -507 rmoveto
          218 392 rlineto
          -26 hlineto
          -11 -26 -188 -334 rlineto
          -5 hlineto
          -173 334 -11 26 rlineto
          -26 hlineto
          202 -391 rlineto
          -246 20 vlineto
          endchar
        </CharString>
        <CharString name="Ydieresis">
          -10 21 -21 637 -20 143 40 hstemhm
          169 140 -81 20 hintmask 00000000
          hintmask 11110000
          169 760 rmoveto
          12 0 8 8 0 12 0 12 -8 8 0 flex1
          -12 0 -8 -8 0 -12 0 -12 8 -8 0 flex1
          140 hmoveto
          12 0 8 8 0 12 0 12 -8 8 0 flex1
          -12 0 -8 -8 0 -12 0 -12 8 -8 0 flex1
          hintmask 11101000
          -61 -515 rmoveto
          218 392 rlineto
          -26 hlineto
          -11 -26 -188 -334 rlineto
          -5 hlineto
          -173 334 -11 26 rlineto
          -26 hlineto
          202 -391 rlineto
          -246 20 vlineto
          endchar
        </CharString>
        <CharString name="Ydotbelow">
          -10 -128 40 109 -21 637 -20 hstem
          228 20 vstem
          228 246 rmoveto
          -246 20 245 vlineto
          218 392 rlineto
          -26 hlineto
          -11 -26 -188 -334 rlineto
          -5 hlineto
          -173 334 -11 26 rlineto
          -26 hlineto
          212 -725 rmoveto
          -12 0 -8 -8 0 -12 0 -12 8 -8 0 flex1
          12 0 8 8 0 12 0 12 -8 8 0 flex1
          endchar
        </CharString>
        <CharString name="Ygrave">
          -10 21 -21 637 -20 hstem
          228 20 vstem
          325 729 rmoveto
          7 15 -54 26 -56 29 -66 39 rlinecurve
          -5 -2 -7 -12 2 -5 59 -34 56 -29 59 -30 rlinecurve
          -72 -481 rmoveto
          218 392 rlineto
          -26 hlineto
          -11 -26 -188 -334 rlineto
          -5 hlineto
          -173 334 -11 26 rlineto
          -26 hlineto
          202 -391 rlineto
          -246 20 vlineto
          endchar
        </CharString>
        <CharString name="Yhookabove">
          -10 21 -21 637 -20 225 20 hstemhm
          228 20 17 20 hintmask 00000000
          hintmask 11111000
          239 842 rmoveto
          16 10 -8 -12 -15 -18 -21 -33 -22 hvcurveto
          22 -41 17 7 -16 29 rlineto
          31 23 17 22 20 vvcurveto
          21 -18 17 -26 -19 -23 -10 -19 -22 vhcurveto
          8 -14 rlineto
          15 18 20 8 16 hhcurveto
          hintmask 11110000
          9 -597 rmoveto
          218 392 rlineto
          -26 hlineto
          -11 -26 -188 -334 rlineto
          -5 hlineto
          -173 334 -11 26 rlineto
          -26 hlineto
          202 -391 rlineto
          -246 20 vlineto
          endchar
        </CharString>
        <CharString name="Ytilde">
          -10 21 -21 637 -20 136 22 15 22 hstemhm
          228 20 hintmask 11011000
          109 749 rmoveto
          4 hlineto
          24 27 13 17 11 hhcurveto
          hintmask 11111000
          25 94 -34 -4 37 hvcurveto
          6 2 52 47 rlineto
          4 vlineto
          -9 11 rlineto
          -4 hlineto
          -24 -27 -13 -17 -11 hhcurveto
          hintmask 11011000
          -25 -94 34 4 -37 hvcurveto
          -6 -2 -52 -47 rlineto
          -4 vlineto
          148 -515 rmoveto
          218 392 rlineto
          -26 hlineto
          -11 -26 -188 -334 rlineto
          -5 hlineto
          -173 334 -11 26 rlineto
          -26 hlineto
          202 -391 rlineto
          -246 20 vlineto
          endchar
        </CharString>
        <CharString name="Z">
          2 0 20 597 20 hstem
          32 430 vstem
          460 620 rmoveto
          18 vlineto
          -37 -1 rlineto
          -304 hlineto
          -65 1 -3 -17 4 -5 58 1 rlineto
          320 hlineto
          -401 -600 rlineto
          -18 vlineto
          36 1 rlineto
          391 hlineto
          3 16 -4 5 -68 -1 rlineto
          -331 hlineto
          endchar
        </CharString>
        <CharString name="Zacute">
          2 0 20 597 20 hstem
          32 430 vstem
          380 834 rmoveto
          -5 2 -66 -39 -56 -29 -54 -26 rlinecurve
          7 -15 5 -3 59 30 56 29 59 34 rlinecurve
          2 5 rlineto
          73 -202 rmoveto
          18 vlineto
          -37 -1 rlineto
          -304 hlineto
          -65 1 -3 -17 4 -5 58 1 rlineto
          320 hlineto
          -401 -600 rlineto
          -18 vlineto
          36 1 rlineto
          391 hlineto
          3 16 -4 5 -68 -1 rlineto
          -331 hlineto
          endchar
        </CharString>
        <CharString name="Zcaron">
          2 0 20 597 20 92 20 hstem
          32 430 vstem
          361 819 rmoveto
          -5 hlineto
          -33 -23 -31 -23 -31 -24 -31 24 -31 23 -33 23 rrcurveto
          -5 hlineto
          -7 -14 34 -24 33 -26 33 -26 rlinecurve
          16 hlineto
          31 26 33 26 34 24 rrcurveto
          92 -185 rmoveto
          18 vlineto
          -37 -1 rlineto
          -304 hlineto
          -65 1 -3 -17 4 -5 58 1 rlineto
          320 hlineto
          -401 -600 rlineto
          -18 vlineto
          36 1 rlineto
          391 hlineto
          3 16 -4 5 -68 -1 rlineto
          -331 hlineto
          endchar
        </CharString>
        <CharString name="Zdotaccent">
          2 0 20 597 20 139 40 hstem
          32 430 vstem
          261 816 rmoveto
          -12 0 -8 -8 0 -12 0 -12 8 -8 0 flex1
          12 0 8 8 0 12 0 12 -8 8 0 flex1
          199 -196 rmoveto
          18 vlineto
          -37 -1 rlineto
          -304 hlineto
          -65 1 -3 -17 4 -5 58 1 rlineto
          320 hlineto
          -401 -600 rlineto
          -18 vlineto
          36 1 rlineto
          391 hlineto
          3 16 -4 5 -68 -1 rlineto
          -331 hlineto
          endchar
        </CharString>
        <CharString name="a">
          -11 21 -21 161 19 281 30 hstem
          34 418 vstem
          452 hmoveto
          -190 491 rlineto
          -21 hlineto
          -207 -491 rlineto
          23 hlineto
          12 35 53 126 rlineto
          248 hlineto
          49 -126 10 -35 rlineto
          -67 180 rmoveto
          -232 hlineto
          119 281 rlineto
          3 hlineto
          endchar
        </CharString>
        <CharString name="a.sups">
          -209 347 18 260 19 hstemhm
          40 21 143 20 -14 20 hintmask 11101000
          149 644 rmoveto
          -32 -36 -15 -28 -33 hvcurveto
          4 -15 4 -1 rlineto
          26 32 32 14 27 hhcurveto
          41 22 -21 -38 hvcurveto
          -2 -59 -112 -24 rlineto
          -35 -8 -21 -22 -33 vvcurveto
          -46 28 -27 49 vhcurveto
          hintmask 11110000
          29 1 31 19 25 29 rrcurveto
          2 hlineto
          -35 1 13 -13 24 hhcurveto
          12 11 3 6 9 hvcurveto
          3 16 -4 2 rlineto
          -6 -8 -10 -3 -8 hhcurveto
          -16 -7 11 24 hvcurveto
          hintmask 11101000
          16 6 137 16 vvcurveto
          47 -29 27 -52 vhcurveto
          58 -153 rmoveto
          -3 -72 rlineto
          -34 -26 -32 -20 -27 hhcurveto
          -37 -21 21 35 24 15 16 27 6 hvcurveto
          endchar
        </CharString>
        <CharString name="aacute">
          -11 21 -21 161 19 281 30 206 11 0 -20 hstemhm
          34 418 hintmask 11101100
          213 558 rmoveto
          5 -1 rlineto
          hintmask 11110100
          50 44 46 43 48 48 1 5 rcurveline
          -10 10 -5 1 -54 -55 -46 -43 -46 -39 rlinecurve
          250 -571 rmoveto
          -190 491 rlineto
          -21 hlineto
          -207 -491 rlineto
          23 hlineto
          12 35 53 126 rlineto
          248 hlineto
          49 -126 10 -35 rlineto
          -67 180 rmoveto
          -232 hlineto
          119 281 rlineto
          3 hlineto
          endchar
        </CharString>
        <CharString name="abreve">
          -11 21 -21 161 19 281 30 70 20 hstem
          334 18 vstem
          251 561 rmoveto
          56 32 33 72 13 hvcurveto
          -13 13 rlineto
          -5 hlineto
          -67 -9 -26 -31 -48 hhcurveto
          -48 -26 31 67 -9 hvcurveto
          -5 hlineto
          -13 -13 rlineto
          -72 13 32 -33 56 hhcurveto
          201 -561 rmoveto
          -190 491 rlineto
          -21 hlineto
          -207 -491 rlineto
          23 hlineto
          12 35 53 126 rlineto
          248 hlineto
          49 -126 10 -35 rlineto
          -67 180 rmoveto
          -232 hlineto
          119 281 rlineto
          3 hlineto
          endchar
        </CharString>
        <CharString name="abreveacute">
          -11 21 -21 161 19 281 30 71 20 54 -20 20 11 93 10 hstemhm
          34 418 hintmask 11111011
          234 648 rmoveto
          5 -1 28 30 27 28 26 30 rlinecurve
          1 5 -11 10 rlineto
          -5 hlineto
          -28 -31 -26 -29 -29 -30 rrcurveto
          28 -98 rmoveto
          hintmask 11110111
          50 37 26 48 15 hvcurveto
          -13 11 rlineto
          -5 hlineto
          -42 -11 -29 -23 -44 hhcurveto
          -44 -28 23 42 -10 hvcurveto
          -5 hlineto
          -13 -11 rlineto
          hintmask 11111011
          -48 14 36 -26 50 hhcurveto
          202 -562 rmoveto
          -190 491 rlineto
          -21 hlineto
          -207 -491 rlineto
          23 hlineto
          12 35 53 126 rlineto
          248 hlineto
          49 -126 10 -35 rlineto
          -67 180 rmoveto
          -232 hlineto
          119 281 rlineto
          3 hlineto
          endchar
        </CharString>
        <CharString name="abrevedotbelow">
          -11 -128 40 109 -21 161 19 281 30 70 20 hstem
          334 18 vstem
          251 561 rmoveto
          56 32 33 72 13 hvcurveto
          -13 13 rlineto
          -5 hlineto
          -67 -9 -26 -31 -48 hhcurveto
          -48 -26 31 67 -9 hvcurveto
          -5 hlineto
          -13 -13 rlineto
          -72 13 32 -33 56 hhcurveto
          201 -561 rmoveto
          -190 491 rlineto
          -21 hlineto
          -207 -491 rlineto
          23 hlineto
          12 35 53 126 rlineto
          248 hlineto
          49 -126 10 -35 rlineto
          -67 180 rmoveto
          -232 hlineto
          119 281 rlineto
          3 hlineto
          -6 -549 rmoveto
          -12 0 -8 -8 0 -12 0 -12 8 -8 0 flex1
          12 0 8 8 0 12 0 12 -8 8 0 flex1
          endchar
        </CharString>
        <CharString name="abrevegrave">
          -11 21 -21 161 19 281 30 71 20 54 -20 20 11 93 10 hstemhm
          34 418 hintmask 11111011
          263 648 rmoveto
          12 12 -29 30 -26 29 -28 31 rlinecurve
          -5 hlineto
          -11 -10 1 -5 26 -30 27 -28 28 -30 rlinecurve
          -8 -85 rmoveto
          hintmask 11110111
          50 37 26 48 15 hvcurveto
          -13 11 rlineto
          -5 hlineto
          -42 -11 -29 -23 -44 hhcurveto
          -44 -28 23 42 -10 hvcurveto
          -5 hlineto
          -13 -11 rlineto
          hintmask 11111011
          -48 14 36 -26 50 hhcurveto
          202 -562 rmoveto
          -190 491 rlineto
          -21 hlineto
          -207 -491 rlineto
          23 hlineto
          12 35 53 126 rlineto
          248 hlineto
          49 -126 10 -35 rlineto
          -67 180 rmoveto
          -232 hlineto
          119 281 rlineto
          3 hlineto
          endchar
        </CharString>
        <CharString name="abrevehookabove">
          -11 21 -21 161 19 281 30 71 20 54 -20 20 11 119 20 hstemhm
          281 20 hintmask 11111011
          255 766 rmoveto
          16 10 -8 -12 -15 -18 -21 -33 -22 hvcurveto
          22 -41 17 7 -16 29 rlineto
          31 23 17 22 20 vvcurveto
          21 -18 17 -26 -19 -23 -10 -19 -22 vhcurveto
          8 -14 rlineto
          15 18 20 8 16 hhcurveto
          -5 -204 rmoveto
          hintmask 11110111
          50 37 26 48 15 hvcurveto
          -13 11 rlineto
          -5 hlineto
          -42 -11 -29 -23 -44 hhcurveto
          -44 -28 23 42 -10 hvcurveto
          -5 hlineto
          -13 -11 rlineto
          hintmask 11111011
          -48 14 36 -26 50 hhcurveto
          202 -562 rmoveto
          -190 491 rlineto
          -21 hlineto
          -207 -491 rlineto
          23 hlineto
          12 35 53 126 rlineto
          248 hlineto
          49 -126 10 -35 rlineto
          -67 180 rmoveto
          -232 hlineto
          119 281 rlineto
          3 hlineto
          endchar
        </CharString>
        <CharString name="abrevetilde">
          -11 21 -21 161 19 281 30 71 20 54 -20 20 11 46 15 -11 22 -11 -20 46 22 hstemhm
          34 418 hintmask 0000000000000000
          hintmask 1111101000100000
          131 693 rmoveto
          4 hlineto
          hintmask 1111100011100000
          24 25 13 17 10 hhcurveto
          hintmask 1111100100100000
          24 90 -34 -4 35 hvcurveto
          5 2 50 47 rlineto
          4 vlineto
          -9 11 rlineto
          -3 hlineto
          -24 -26 -12 -17 -11 hhcurveto
          hintmask 1111100011100000
          -24 -89 34 4 -35 hvcurveto
          -6 -2 rlineto
          hintmask 1111010010100000
          -50 -47 rlineto
          -4 vlineto
          128 -122 rmoveto
          -44 -28 23 42 -10 hvcurveto
          -5 hlineto
          -13 -11 rlineto
          -48 14 36 -26 50 hhcurveto
          50 37 26 48 15 hvcurveto
          -13 11 rlineto
          -5 hlineto
          -42 -11 -29 -23 -44 hhcurveto
          202 -582 rmoveto
          -190 491 rlineto
          -21 hlineto
          -207 -491 rlineto
          23 hlineto
          12 35 53 126 rlineto
          248 hlineto
          49 -126 10 -35 rlineto
          -67 180 rmoveto
          -232 hlineto
          119 281 rlineto
          3 hlineto
          endchar
        </CharString>
        <CharString name="acaron">
          -11 21 -21 161 19 281 30 68 21 hstem
          34 418 vstem
          260 559 rmoveto
          37 49 31 40 33 37 -9 12 rcurveline
          -5 hlineto
          -35 -39 -30 -37 -31 -41 -31 41 -30 37 -35 39 rrcurveto
          -5 hlineto
          -9 -12 33 -37 31 -40 37 -49 rlinecurve
          210 -559 rmoveto
          -190 491 rlineto
          -21 hlineto
          -207 -491 rlineto
          23 hlineto
          12 35 53 126 rlineto
          248 hlineto
          49 -126 10 -35 rlineto
          -67 180 rmoveto
          -232 hlineto
          119 281 rlineto
          3 hlineto
          endchar
        </CharString>
        <CharString name="acircumflex">
          -11 21 -21 161 19 281 30 185 21 hstem
          34 418 vstem
          150 559 rmoveto
          5 hlineto
          35 39 30 37 31 41 31 -41 30 -37 35 -39 rrcurveto
          5 hlineto
          9 12 -33 37 -31 40 -37 49 rlinecurve
          -18 hlineto
          -37 -49 -31 -40 -33 -37 rrcurveto
          311 -571 rmoveto
          -190 491 rlineto
          -21 hlineto
          -207 -491 rlineto
          23 hlineto
          12 35 53 126 rlineto
          248 hlineto
          49 -126 10 -35 rlineto
          -67 180 rmoveto
          -232 hlineto
          119 281 rlineto
          3 hlineto
          endchar
        </CharString>
        <CharString name="acircumflexacute">
          -11 21 -21 161 19 281 30 81 14 56 20 -4 11 hstemhm
          34 418 hintmask 00000000
          hintmask 11110110
          312 658 rmoveto
          6 hlineto
          68 76 1 5 -11 9 -5 1 -70 -80 rlineto
          -150 -97 rmoveto
          5 hlineto
          hintmask 11111010
          33 23 31 23 31 24 31 -24 31 -23 33 -23 rrcurveto
          5 hlineto
          7 14 -34 24 -33 26 -33 26 rlinecurve
          -16 hlineto
          -31 -26 -33 -26 -34 -24 rrcurveto
          308 -586 rmoveto
          -190 491 rlineto
          -21 hlineto
          -207 -491 rlineto
          23 hlineto
          12 35 53 126 rlineto
          248 hlineto
          49 -126 10 -35 rlineto
          -67 180 rmoveto
          -232 hlineto
          119 281 rlineto
          3 hlineto
          endchar
        </CharString>
        <CharString name="acircumflexdotbelow">
          -11 -128 40 109 -21 161 19 281 30 185 21 hstem
          34 418 vstem
          150 559 rmoveto
          5 hlineto
          35 39 30 37 31 41 31 -41 30 -37 35 -39 rrcurveto
          5 hlineto
          9 12 -33 37 -31 40 -37 49 rlinecurve
          -18 hlineto
          -37 -49 -31 -40 -33 -37 rrcurveto
          311 -571 rmoveto
          -190 491 rlineto
          -21 hlineto
          -207 -491 rlineto
          23 hlineto
          12 35 53 126 rlineto
          248 hlineto
          49 -126 10 -35 rlineto
          -67 180 rmoveto
          -232 hlineto
          119 281 rlineto
          3 hlineto
          -6 -549 rmoveto
          -12 0 -8 -8 0 -12 0 -12 8 -8 0 flex1
          12 0 8 8 0 12 0 12 -8 8 0 flex1
          endchar
        </CharString>
        <CharString name="acircumflexgrave">
          -11 21 -21 161 19 281 30 81 14 56 20 -4 11 hstemhm
          34 418 hintmask 00000000
          hintmask 11110110
          278 734 rmoveto
          68 -76 rlineto
          6 hlineto
          11 11 -70 80 -5 -1 -11 -9 rlineto
          -126 -167 rmoveto
          5 hlineto
          hintmask 11111010
          33 23 31 23 31 24 31 -24 31 -23 33 -23 rrcurveto
          5 hlineto
          7 14 -34 24 -33 26 -33 26 rlinecurve
          -16 hlineto
          -31 -26 -33 -26 -34 -24 rrcurveto
          308 -586 rmoveto
          -190 491 rlineto
          -21 hlineto
          -207 -491 rlineto
          23 hlineto
          12 35 53 126 rlineto
          248 hlineto
          49 -126 10 -35 rlineto
          -67 180 rmoveto
          -232 hlineto
          119 281 rlineto
          3 hlineto
          endchar
        </CharString>
        <CharString name="acircumflexhookabove">
          -11 21 -21 161 19 281 30 81 14 0 -20 76 20 94 20 hstemhm
          360 19 hintmask 11101111
          336 756 rmoveto
          15 9 -7 -12 -14 -17 -20 -31 -21 hvcurveto
          21 -39 16 7 -15 27 rlineto
          29 22 16 21 19 vvcurveto
          20 -17 17 -24 -19 -21 -10 -18 -21 vhcurveto
          7 -13 rlineto
          14 17 19 7 16 hhcurveto
          hintmask 11110111
          -185 -184 rmoveto
          5 hlineto
          33 23 31 23 31 24 31 -24 31 -23 33 -23 rrcurveto
          5 hlineto
          7 14 -34 24 -33 26 -33 26 rlinecurve
          -16 hlineto
          -31 -26 -33 -26 -34 -24 rrcurveto
          308 -586 rmoveto
          -190 491 rlineto
          -21 hlineto
          -207 -491 rlineto
          23 hlineto
          12 35 53 126 rlineto
          248 hlineto
          49 -126 10 -35 rlineto
          -67 180 rmoveto
          -232 hlineto
          119 281 rlineto
          3 hlineto
          endchar
        </CharString>
        <CharString name="acircumflextilde">
          -11 21 -21 161 19 281 30 81 14 0 -20 76 20 31 15 -11 22 -11 -20 46 22 hstemhm
          34 418 hintmask 0000000000000000
          hintmask 1110111000100000
          131 693 rmoveto
          4 hlineto
          hintmask 1110110011100000
          24 25 13 17 10 hhcurveto
          hintmask 1110110100100000
          24 90 -34 -4 35 hvcurveto
          5 2 50 47 rlineto
          4 vlineto
          -9 11 rlineto
          -3 hlineto
          -24 -26 -12 -17 -11 hhcurveto
          hintmask 1110110011100000
          -24 -89 34 4 -35 hvcurveto
          -6 -2 rlineto
          hintmask 1111010010100000
          -50 -47 rlineto
          -4 vlineto
          120 -42 rmoveto
          -31 -26 -33 -26 -34 -24 7 -14 rcurveline
          5 hlineto
          33 23 31 23 31 24 31 -24 31 -23 33 -23 rrcurveto
          5 hlineto
          7 14 -34 24 -33 26 -33 26 rlinecurve
          194 -662 rmoveto
          -190 491 rlineto
          -21 hlineto
          -207 -491 rlineto
          23 hlineto
          12 35 53 126 rlineto
          248 hlineto
          49 -126 10 -35 rlineto
          -67 180 rmoveto
          -232 hlineto
          119 281 rlineto
          3 hlineto
          endchar
        </CharString>
        <CharString name="acute">
          518 151 hstem
          115 161 vstem
          266 668 rmoveto
          -5 1 -54 -55 -46 -43 -46 -39 rlinecurve
          11 -13 5 -1 50 44 46 43 48 48 rlinecurve
          1 5 rlineto
          endchar
        </CharString>
        <CharString name="acute.cap">
          637 -20 32 -20 hstemhm
          102 188 hintmask 01100000
          283 649 rmoveto
          -5 2 rlineto
          hintmask 10100000
          -66 -39 -56 -29 -54 -26 7 -15 rcurveline
          5 -3 59 30 56 29 59 34 rlinecurve
          2 5 rlineto
          endchar
        </CharString>
        <CharString name="adieresis">
          -11 21 -21 161 19 281 30 123 40 hstem
          181 140 vstem
          181 614 rmoveto
          12 0 8 8 0 12 0 12 -8 8 0 flex1
          -12 0 -8 -8 0 -12 0 -12 8 -8 0 flex1
          140 hmoveto
          12 0 8 8 0 12 0 12 -8 8 0 flex1
          -12 0 -8 -8 0 -12 0 -12 8 -8 0 flex1
          131 -614 rmoveto
          -190 491 rlineto
          -21 hlineto
          -207 -491 rlineto
          23 hlineto
          12 35 53 126 rlineto
          248 hlineto
          49 -126 10 -35 rlineto
          -67 180 rmoveto
          -232 hlineto
          119 281 rlineto
          3 hlineto
          endchar
        </CharString>
        <CharString name="adotbelow">
          -11 -128 40 109 -21 161 19 281 30 hstem
          34 418 vstem
          452 hmoveto
          -190 491 rlineto
          -21 hlineto
          -207 -491 rlineto
          23 hlineto
          12 35 53 126 rlineto
          248 hlineto
          49 -126 10 -35 rlineto
          -67 180 rmoveto
          -232 hlineto
          119 281 rlineto
          3 hlineto
          -6 -549 rmoveto
          -12 0 -8 -8 0 -12 0 -12 8 -8 0 flex1
          12 0 8 8 0 12 0 12 -8 8 0 flex1
          endchar
        </CharString>
        <CharString name="ae">
          183 0 19 441 31 -19.5 19.5 hstemhm
          391.5 20.5 hintmask 10110000
          649 16 rmoveto
          -2 3 rlineto
          -235 hlineto
          -36 206 190 29 2 17 -3 2 -192 -30 -40 229 224 -1 4 16 -3 4 rlineto
          -251 hlineto
          -300 -491 rlineto
          26 hlineto
          17 35 92 151 214 35 33 -186 5 -35 rlineto
          252 hlineto
          -294 240 rmoveto
          -196 -32 rlineto
          hintmask 11010000
          154 252 rlineto
          3 hlineto
          endchar
        </CharString>
        <CharString name="aeacute">
          183 0 19 441 31 -19.5 19.5 206 11 0 -20 hstemhm
          391.5 20.5 hintmask 10101100
          367 558 rmoveto
          5 -1 rlineto
          hintmask 10110100
          50 44 46 43 48 48 1 5 rcurveline
          -10 10 -5 1 -54 -55 -46 -43 -46 -39 rlinecurve
          293 -555 rmoveto
          -2 3 rlineto
          -235 hlineto
          -36 206 190 29 2 17 -3 2 -192 -30 -40 229 224 -1 4 16 -3 4 rlineto
          -251 hlineto
          -300 -491 rlineto
          26 hlineto
          17 35 92 151 214 35 33 -186 5 -35 rlineto
          252 hlineto
          -294 240 rmoveto
          -196 -32 rlineto
          hintmask 11001100
          154 252 rlineto
          3 hlineto
          endchar
        </CharString>
        <CharString name="agrave">
          -11 21 -21 161 19 281 30 217 -20 hstem
          34 418 vstem
          321 558 rmoveto
          11 13 -46 39 -46 43 -54 55 rlinecurve
          -5 -1 -10 -10 1 -5 48 -48 46 -43 50 -44 rlinecurve
          136 -557 rmoveto
          -190 491 rlineto
          -21 hlineto
          -207 -491 rlineto
          23 hlineto
          12 35 53 126 rlineto
          248 hlineto
          49 -126 10 -35 rlineto
          -67 180 rmoveto
          -232 hlineto
          119 281 rlineto
          3 hlineto
          endchar
        </CharString>
        <CharString name="ahookabove">
          -11 21 -21 161 19 281 30 205 20 hstem
          277 20 vstem
          251 696 rmoveto
          16 10 -8 -12 -15 -18 -21 -33 -22 hvcurveto
          22 -41 17 7 -16 29 rlineto
          31 23 17 22 20 vvcurveto
          21 -18 17 -26 -19 -23 -10 -19 -22 vhcurveto
          8 -14 rlineto
          15 18 20 8 16 hhcurveto
          201 -696 rmoveto
          -190 491 rlineto
          -21 hlineto
          -207 -491 rlineto
          23 hlineto
          12 35 53 126 rlineto
          248 hlineto
          49 -126 10 -35 rlineto
          -67 180 rmoveto
          -232 hlineto
          119 281 rlineto
          3 hlineto
          endchar
        </CharString>
        <CharString name="amacron">
          -11 21 -21 161 19 281 30 135 17 -17 20 hstemhm
          34 418 hintmask 11101100
          108 626 rmoveto
          287 hlineto
          hintmask 11110100
          2 17 -3 3 rlineto
          hintmask 11101100
          -287 hlineto
          -2 -17 rlineto
          347 -629 rmoveto
          -190 491 rlineto
          -21 hlineto
          -207 -491 rlineto
          23 hlineto
          12 35 53 126 rlineto
          248 hlineto
          49 -126 10 -35 rlineto
          -67 180 rmoveto
          -232 hlineto
          119 281 rlineto
          3 hlineto
          endchar
        </CharString>
        <CharString name="ampersand">
          281 -10 21 257 20 17 20 150 20 216 -20 hstemhm
          56 20 236 21 249 20 hintmask 11011111
          825 367 rmoveto
          -5 -2 rlineto
          -53 -19 -31 -24 -46 hhcurveto
          hintmask 11111111
          -58 -117 37 -51 hhcurveto
          -59 -4 -28 -27 -25 -58 13 -10 rcurveline
          5 2 rlineto
          53 19 31 24 46 hhcurveto
          19 30 -6 -7 33 hvcurveto
          -168 8 -108 -113 -170 hhcurveto
          -126 -88 79 123 -18 hvcurveto
          237 77 222 189 99 212 -2 8 -2 5 -4 7 rrcurveto
          -4 hlineto
          -60 -135 -115 -128 -137 -94 rrcurveto
          14 21 5 23 16 vvcurveto
          48 -41 33 -61 -95 -80 -95 -138 -163 102 -109 154 181 115 119 179 -6 vhcurveto
          hintmask 11011111
          -10 45 48 -10 31 hhcurveto
          59 4 28 27 25 58 rrcurveto
          -606 118 rmoveto
          46 32 -23 -36 2 hvcurveto
          2 -23 -5 -37 -40 -32 -61 -38 -65 -31 -66 -22 rrcurveto
          -1 9 0 10 10 vvcurveto
          128 69 85 87 vhcurveto
          endchar
        </CharString>
        <CharString name="aogonek">
          -11 -196 20 197 -21 161 19 281 30 hstem
          369 20 vstem
          497 -123 rmoveto
          -2 hlineto
          -33 -19 -22 -20 -25 hhcurveto
          -20 -20 12 28 24 9 26 54 86 hvcurveto
          -190 491 rlineto
          -21 hlineto
          -207 -491 rlineto
          23 hlineto
          12 35 53 126 rlineto
          248 hlineto
          49 -126 10 -35 rlineto
          -49 -82 -11 -28 -28 vvcurveto
          -38 29 -20 30 32 26 22 35 22 vhcurveto
          -146 319 rmoveto
          -232 hlineto
          119 281 rlineto
          3 hlineto
          endchar
        </CharString>
        <CharString name="approxequal">
          -25 167 23 21 22.5 77.5 23 21 22.5 hstemhm
          86 338 hintmask 01011000
          162 355 rmoveto
          hintmask 01111000
          31 115 -41 -4 45 hvcurveto
          6 2 65 54 rlineto
          4 vlineto
          -7 10 rlineto
          -6 hlineto
          -29 -33 -17 -17 -13 hhcurveto
          hintmask 01011000
          -31 -116 39 6 -45 hvcurveto
          -6 -3 -64 -53 rlineto
          -5 vlineto
          7 -9 rlineto
          6 hlineto
          28 33 17 18 13 hhcurveto
          -144 vmoveto
          hintmask 11011000
          31 115 -41 -4 45 hvcurveto
          6 2 65 54 rlineto
          4 vlineto
          -7 10 rlineto
          -6 hlineto
          -29 -33 -17 -17 -13 hhcurveto
          hintmask 01011000
          -31 -116 39 6 -45 hvcurveto
          -6 -3 -64 -53 rlineto
          -5 vlineto
          7 -9 rlineto
          6 hlineto
          28 33 17 18 13 hhcurveto
          endchar
        </CharString>
        <CharString name="aring">
          -11 21 -21 161 19 281 30 77 20 99 20 hstem
          179 20 101 20 vstem
          249 568 rmoveto
          35 36 25 44 35 -25 35 -46 -42 -28 -30 -39 -44 35 -26 35 hvcurveto
          119 vmoveto
          34 17 -23 -27 -32 -24 -17 -27 -27 -23 18 32 29 19 20 31 hvcurveto
          203 -687 rmoveto
          -190 491 rlineto
          -21 hlineto
          -207 -491 rlineto
          23 hlineto
          12 35 53 126 rlineto
          248 hlineto
          49 -126 10 -35 rlineto
          -67 180 rmoveto
          -232 hlineto
          119 281 rlineto
          3 hlineto
          endchar
        </CharString>
        <CharString name="aringacute">
          -11 21 -21 161 19 281 30 77 20 99 20 hstem
          179 20 101 20 41 7 vstem
          176 728 rmoveto
          4 -4 63 19 61 19 64 23 rlinecurve
          2 5 -4 13 -5 3 -72 -27 -60 -19 -58 -16 rlinecurve
          8 -106 rmoveto
          -44 35 -26 35 35 36 25 44 35 -25 35 -46 -42 -28 -30 -39 vhcurveto
          121 -1 rmoveto
          -32 -24 -17 -27 -27 -23 18 32 29 19 20 31 34 17 -23 -27 vhcurveto
          152 -637 rmoveto
          -190 491 rlineto
          -21 hlineto
          -207 -491 rlineto
          23 hlineto
          12 35 53 126 rlineto
          248 hlineto
          49 -126 10 -35 rlineto
          -67 180 rmoveto
          -232 hlineto
          119 281 rlineto
          3 hlineto
          endchar
        </CharString>
        <CharString name="arrowdown">
          -5 21 -21 454 -20 hstem
          239 20 vstem
          443 190 rmoveto
          -8 14 rlineto
          -6 hlineto
          -170 -167 rlineto
          415 vlineto
          -18 2 -2 -2 rlineto
          -415 vlineto
          -170 167 rlineto
          -6 hlineto
          -8 -14 192 -190 rlineto
          4 hlineto
          endchar
        </CharString>
        <CharString name="arrowdownleft">
          -5 65 20 hstem
          105 20 vstem
          379 84 rmoveto
          -239 2 294 293 -12 15 rlineto
          -2 hlineto
          -294 -294 -2 238 -4 5 -16 -5 2 -270 2 -2 271 -2 4 16 rlineto
          endchar
        </CharString>
        <CharString name="arrowdownright">
          -5 64 20 hstem
          371 20 vstem
          392 338 rmoveto
          -16 4 -4 -4 -2 -239 -293 294 -15 -12 rlineto
          -2 vlineto
          294 -294 -238 -2 -5 -4 5 -16 270 2 2 2 rlineto
          endchar
        </CharString>
        <CharString name="arrowleft">
          -5 217 20 hstem
          21 454 vstem
          473 217 rmoveto
          2 18 -2 2 rlineto
          -415 hlineto
          167 170 rlineto
          6 vlineto
          -14 8 -190 -192 rlineto
          -4 vlineto
          190 -192 14 8 rlineto
          6 vlineto
          -167 170 rlineto
          endchar
        </CharString>
        <CharString name="arrowright">
          -5 218 20 hstem
          22 454 vstem
          476 230 rmoveto
          -190 192 -14 -8 rlineto
          -6 vlineto
          167 -170 rlineto
          -415 hlineto
          -2 -18 2 -2 rlineto
          415 hlineto
          -167 -170 rlineto
          -6 vlineto
          14 -8 190 192 rlineto
          endchar
        </CharString>
        <CharString name="arrowup">
          -5 22 -21 454 -20 hstem
          238 20 vstem
          442 265 rmoveto
          -192 190 rlineto
          -4 hlineto
          -192 -190 8 -14 rlineto
          6 hlineto
          170 167 rlineto
          -415 vlineto
          18 -2 2 2 rlineto
          415 vlineto
          170 -167 rlineto
          6 hlineto
          endchar
        </CharString>
        <CharString name="arrowupleft">
          -5 370 20 hstem
          106 20 vstem
          435 75 rmoveto
          -294 294 238 2 5 4 -5 16 -270 -2 -2 -2 -2 -271 16 -4 4 4 2 239 293 -294 15 12 rlineto
          endchar
        </CharString>
        <CharString name="arrowupright">
          -5 370 20 hstem
          373 20 vstem
          394 117 rmoveto
          -2 270 -2 2 -271 2 -4 -16 4 -4 239 -2 -294 -293 12 -15 rlineto
          2 hlineto
          294 294 2 -238 4 -5 rlineto
          endchar
        </CharString>
        <CharString name="asciicircum">
          -98 462 25 hstem
          25 357 vstem
          382 121 rmoveto
          -160 366 rlineto
          -22 hlineto
          -4 -3 -171 -364 14 -7 5 3 164 346 rlineto
          4 hlineto
          153 -350 15 5 rlineto
          endchar
        </CharString>
        <CharString name="asciitilde">
          -25 235 23 21 22.5 hstemhm
          71 338 hintmask 01100000
          147 279 rmoveto
          hintmask 11100000
          31 115 -41 -4 45 hvcurveto
          6 2 65 54 rlineto
          4 vlineto
          -7 10 rlineto
          -6 hlineto
          -29 -33 -17 -17 -13 hhcurveto
          hintmask 01100000
          -31 -116 39 6 -45 hvcurveto
          -6 -3 -64 -53 rlineto
          -5 vlineto
          7 -9 rlineto
          6 hlineto
          28 33 17 18 13 hhcurveto
          endchar
        </CharString>
        <CharString name="asterisk">
          -141 452 -20 281 -20 hstem
          173.5 20 vstem
          199 713 rmoveto
          -2 2 rlineto
          -6 -8 -1 -2 -7 hvcurveto
          -5 -109 3 -5 14 2 rlineto
          -37 -17 rmoveto
          -104 46 -3 -2 rlineto
          -2 -5 -1 -8 -8 vvcurveto
          102 -38 5 1 rlineto
          65 18 rmoveto
          -3 -4 5 -13 111 25 1 2 -2 6 -3 7 -5 6 rlinecurve
          -106 -74 rmoveto
          -5 2 -11 -9 58 -98 rlineto
          3 hlineto
          5 3 5 5 5 7 rrcurveto
          -103 84 rmoveto
          -12 7 -76 -85 1 -3 5 -4 7 -4 7 -2 rlinecurve
          67 85 rlineto
          endchar
        </CharString>
        <CharString name="at">
          300 -185 20 161 20 -20 28 410.5 22.5 -20 20 -5 -20 140 20 hstemhm
          44 20 165 20 494 20 hintmask 1100101111000000
          441 592 rmoveto
          -238 -159 -161 -241 -225 159 -145 235 -5 hvcurveto
          13 16 -1 4 rlineto
          -233 -153 135 224 223 151 155 226 187 115 -116 -172 -160 -90 -92 -164 -16 hvcurveto
          8 90 46 350 -5 3 rlineto
          hintmask 1100011111000000
          -13 -7 rlineto
          hintmask 1100101111000000
          -65 5 rlineto
          -4 hlineto
          -146 -10 -81 -142 -168 vvcurveto
          -79 17 -36 35 -26 vhcurveto
          11 hlineto
          71 64 72 99 59 112 rrcurveto
          5 hlineto
          -36 -275 rlineto
          193 12 107 99 177 vvcurveto
          182 -125 126 -197 vhcurveto
          hintmask 1010101111000000
          -152 -568 rmoveto
          -12 -28 28 89 152 78 141 131 3 hvcurveto
          hintmask 1101001111000000
          60 -5 -7 -70 -3 -26 rlineto
          hintmask 1010101111000000
          -198 -98 -107 -114 -14 hhcurveto
          endchar
        </CharString>
        <CharString name="atilde">
          -11 21 -21 161 19 281 30 116 22 15 22 hstemhm
          34 418 hintmask 11101100
          121 603 rmoveto
          4 hlineto
          24 27 13 17 11 hhcurveto
          hintmask 11111100
          25 94 -34 -4 37 hvcurveto
          6 2 52 47 rlineto
          4 vlineto
          -9 11 rlineto
          -4 hlineto
          -24 -27 -13 -17 -11 hhcurveto
          hintmask 11101100
          -25 -94 34 4 -37 hvcurveto
          -6 -2 -52 -47 rlineto
          -4 vlineto
          340 -614 rmoveto
          -190 491 rlineto
          -21 hlineto
          -207 -491 rlineto
          23 hlineto
          12 35 53 126 rlineto
          248 hlineto
          49 -126 10 -35 rlineto
          -67 180 rmoveto
          -232 hlineto
          119 281 rlineto
          3 hlineto
          endchar
        </CharString>
        <CharString name="b">
          -61 -2 18 228.5 19.5 209 19 hstemhm
          108 20 199 22 19 21 hintmask 11110100
          270 257 rmoveto
          hintmask 11111100
          49 19 30 39 63 vvcurveto
          73 -50 41 -86 vhcurveto
          -105 -1 rlineto
          -491 vlineto
          -2 29 37 0 26 hhcurveto
          hintmask 11110100
          122 67 50 88 72 -46 39 -73 10 hvcurveto
          -54 216 rmoveto
          hintmask 11111100
          68 43 -37 -59 -62 -33 -41 -60 -11 hvcurveto
          -106 2 rlineto
          208 vlineto
          hintmask 11110100
          69 -457 rmoveto
          -23 -24 1 2 -22 hvcurveto
          225 vlineto
          113 1 rlineto
          82 -7 45 -37 -65 vvcurveto
          -75 -61 -45 -110 vhcurveto
          endchar
        </CharString>
        <CharString name="b.sups">
          -164 346 18 233 -20 46 20 hstemhm
          71 21 189 21 hintmask 10111000
          190 643 rmoveto
          hintmask 11111000
          -35 -35 -17 -29 -26 hvcurveto
          -2 hlineto
          1 202 -22 -3 rlineto
          -444 vlineto
          4 -3 11 5 rlineto
          -5 23 27 -3 25 hhcurveto
          89 52 57 99 hvcurveto
          hintmask 10111000
          89 -41 52 -71 vhcurveto
          -30 -279 rmoveto
          -18 -24 3 6 -26 hvcurveto
          103 vlineto
          98 vlineto
          32 26 33 17 36 hhcurveto
          60 34 -44 -78 -88 -44 -49 -77 hvcurveto
          endchar
        </CharString>
        <CharString name="backslash">
          -214 -85 -21 hstem
          21 223 vstem
          40 675 rmoveto
          -16 hlineto
          -3 -5 204 -780 rlineto
          16 hlineto
          3 4 rlineto
          endchar
        </CharString>
        <CharString name="bar">
          -185 -265 1056 hstem
          150 20 vstem
          170 789 rmoveto
          -2 2 -18 -2 rlineto
          -1050 vlineto
          3 -4 rlineto
          17 hlineto
          endchar
        </CharString>
        <CharString name="braceleft">
          -224 -147 20 760 20 -8 -20 hstemhm
          54 48 27 20 -1 20 hintmask 11001000
          223 653 rmoveto
          -62 -32 -36 -71 hvcurveto
          hintmask 11010100
          -58 19 -84 -47 vvcurveto
          -57 -29 -30 -65 -8 vhcurveto
          -18 vlineto
          65 -8 29 -30 -57 vvcurveto
          hintmask 11001000
          -47 -19 -84 -58 vvcurveto
          -71 32 -36 62 15 11 2 3 11 vhcurveto
          3 3 -4 17 rlineto
          -3 -16 -10 -2 -13 hhcurveto
          -48 -23 26 61 hvcurveto
          hintmask 11010100
          56 19 84 49 vvcurveto
          52 -22 34 -44 17 vhcurveto
          2 vlineto
          44 17 22 34 52 vvcurveto
          hintmask 11001000
          49 -19 84 56 vvcurveto
          61 23 26 48 13 10 -2 -3 16 vhcurveto
          hintmask 10101000
          4 17 -3 3 rlineto
          hintmask 11001000
          3 -11 -11 2 -15 hhcurveto
          endchar
        </CharString>
        <CharString name="braceright">
          -224 -147 20 760 20 hstemhm
          113 20 -1 20 27 48 hintmask 11010000
          58 -147 rmoveto
          62 32 36 71 hvcurveto
          hintmask 11101000
          58 -19 84 47 vvcurveto
          57 29 30 65 8 vhcurveto
          18 vlineto
          -65 8 -29 30 57 vvcurveto
          hintmask 11010000
          47 19 84 58 vvcurveto
          71 -32 36 -62 -15 -11 -2 -3 -11 vhcurveto
          -3 -3 4 -17 rlineto
          3 16 10 2 13 hhcurveto
          48 23 -26 -61 hvcurveto
          hintmask 11101000
          -56 -19 -84 -49 vvcurveto
          -52 22 -34 44 -17 vhcurveto
          -2 vlineto
          -44 -17 -22 -34 -52 vvcurveto
          hintmask 11010000
          -49 19 -84 -56 vvcurveto
          -61 -23 -26 -48 -13 -10 2 3 -16 vhcurveto
          -4 -17 3 -3 rlineto
          -3 11 11 -2 15 hhcurveto
          endchar
        </CharString>
        <CharString name="bracketleft">
          -224 -128 18.5 732 23.5 -10 -20 26 -20 hstemhm
          117 20 hintmask 00000000
          hintmask 10011000
          267 642 rmoveto
          -4 4 rlineto
          hintmask 10101000
          -146 -10 rlineto
          -759 vlineto
          146 -10 4 4 rlineto
          15 vlineto
          -130 9 rlineto
          hintmask 11001000
          723 vlineto
          130 9 rlineto
          endchar
        </CharString>
        <CharString name="bracketright">
          -224 -128 18.5 732 23.5 -10 -20 hstemhm
          144 20 hintmask 11010000
          14 -129 rmoveto
          4 -4 146 10 rlineto
          hintmask 10110000
          759 vlineto
          hintmask 11010000
          -146 10 -4 -4 rlineto
          -15 vlineto
          130 -9 rlineto
          -723 vlineto
          -130 -9 rlineto
          endchar
        </CharString>
        <CharString name="breve">
          522 20 85 13 hstem
          278 18 vstem
          283 640 rmoveto
          -5 hlineto
          -67 -9 -26 -31 -48 hhcurveto
          -48 -26 31 67 -9 hvcurveto
          -5 hlineto
          -13 -13 rlineto
          -72 13 32 -33 56 hhcurveto
          56 32 33 72 13 hvcurveto
          endchar
        </CharString>
        <CharString name="breve.cap">
          543 20 hstem
          94 202 vstem
          283 628 rmoveto
          -5 hlineto
          -42 -11 -29 -23 -44 hhcurveto
          -44 -28 23 42 -10 hvcurveto
          -5 hlineto
          -13 -11 rlineto
          -48 14 36 -26 50 hhcurveto
          50 37 26 48 15 hvcurveto
          endchar
        </CharString>
        <CharString name="breveacute">
          523 20 54 -20 124 10 hstemhm
          94 202 hintmask 00000000
          hintmask 11110000
          265 701 rmoveto
          -11 10 rlineto
          -5 hlineto
          -28 -31 -26 -29 -29 -30 12 -12 rcurveline
          5 -1 28 30 27 28 26 30 rlinecurve
          19 -88 rmoveto
          -5 hlineto
          -42 -11 -29 -23 -44 hhcurveto
          -44 -28 23 42 -10 hvcurveto
          -5 hlineto
          -13 -11 rlineto
          -48 14 36 -26 50 hhcurveto
          50 37 26 48 15 hvcurveto
          endchar
        </CharString>
        <CharString name="brevegrave">
          523 20 54 -20 134 -20 hstem
          94 202 vstem
          131 711 rmoveto
          -11 -10 1 -5 26 -30 27 -28 28 -30 rlinecurve
          5 1 12 12 -29 30 -26 29 -28 31 rlinecurve
          147 -103 rmoveto
          -5 hlineto
          -42 -11 -29 -23 -44 hhcurveto
          -44 -28 23 42 -10 hvcurveto
          -5 hlineto
          -13 -11 rlineto
          -48 14 36 -26 50 hhcurveto
          50 37 26 48 15 hvcurveto
          endchar
        </CharString>
        <CharString name="brevehookabove">
          523 20 54 -20 67 -20 103 20 hstem
          225 20 vstem
          201 747 rmoveto
          -19 -23 -10 -19 -22 hvcurveto
          8 -14 rlineto
          15 18 20 8 16 hhcurveto
          16 10 -8 -12 -15 -18 -21 -33 -22 hvcurveto
          22 -41 17 7 -16 29 rlineto
          31 23 17 22 20 vvcurveto
          21 -18 17 -26 vhcurveto
          82 -139 rmoveto
          -5 hlineto
          -42 -11 -29 -23 -44 hhcurveto
          -44 -28 23 42 -10 hvcurveto
          -5 hlineto
          -13 -11 rlineto
          -48 14 36 -26 50 hhcurveto
          50 37 26 48 15 hvcurveto
          endchar
        </CharString>
        <CharString name="brevetilde">
          523 20 54 -20 81 22 15 22 hstemhm
          66 265 hintmask 11101000
          331 710 rmoveto
          -9 11 rlineto
          -3 hlineto
          -24 -26 -12 -17 -11 hhcurveto
          hintmask 11111000
          -24 -89 34 4 -35 hvcurveto
          -6 -2 -50 -47 rlineto
          -4 vlineto
          9 -11 rlineto
          4 hlineto
          24 25 13 17 10 hhcurveto
          hintmask 11101000
          24 90 -34 -4 35 hvcurveto
          5 2 50 47 rlineto
          -48 -98 rmoveto
          -5 hlineto
          -42 -11 -29 -23 -44 hhcurveto
          -44 -28 23 42 -10 hvcurveto
          -5 hlineto
          -13 -11 rlineto
          -48 14 36 -26 50 hhcurveto
          50 37 26 48 15 hvcurveto
          endchar
        </CharString>
        <CharString name="brokenbar">
          -185 -265 1056 hstem
          150 20 vstem
          170 789 rmoveto
          -2 2 -18 -2 rlineto
          -420 vlineto
          3 -3 17 2 rlineto
          -213 vmoveto
          -3 5 -17 -3 rlineto
          -418 vlineto
          3 -4 rlineto
          17 hlineto
          endchar
        </CharString>
        <CharString name="bullet">
          -274 218 40 hstem
          95 40 vstem
          115 258 rmoveto
          -12 0 -8 -8 0 -12 0 -12 8 -8 0 flex1
          12 0 8 8 0 12 0 12 -8 8 0 flex1
          endchar
        </CharString>
        <CharString name="bulletoperator">
          -274 218 40 hstem
          95 40 vstem
          115 258 rmoveto
          -12 0 -8 -8 0 -12 0 -12 8 -8 0 flex1
          12 0 8 8 0 12 0 12 -8 8 0 flex1
          endchar
        </CharString>
        <CharString name="c">
          -38 -4 19 460 19 hstem
          58 21 vstem
          277 494 rmoveto
          -141 -78 -90 -160 -159 74 -89 136 51 55 18 32 46 hvcurveto
          2 18 -6 2 rlineto
          -32 -43 -54 -19 -52 hhcurveto
          -121 -67 81 148 149 69 82 129 48 47 -16 -27 37 hvcurveto
          6 hlineto
          6 18 rlineto
          28 -40 -53 16 -51 hhcurveto
          endchar
        </CharString>
        <CharString name="c.sups">
          -255 346 20 258 20 hstem
          39 21 vstem
          159 644 rmoveto
          -73 -47 -59 -93 -88 46 -58 72 32 32 11 15 23 hvcurveto
          2 18 -4 2 rlineto
          -16 -23 -31 -10 -28 hhcurveto
          -61 -39 50 77 80 39 51 60 28 28 -11 -13 19 hvcurveto
          4 hlineto
          6 18 rlineto
          15 -22 -33 11 -30 hhcurveto
          endchar
        </CharString>
        <CharString name="cacute">
          -38 -4 19 460 19 203 11 0 -20 hstemhm
          58 21 hintmask 11011000
          359 707 rmoveto
          -5 1 -54 -55 -46 -43 -46 -39 rlinecurve
          11 -13 5 -1 rlineto
          hintmask 11101000
          50 44 46 43 48 48 1 5 rcurveline
          -92 -203 rmoveto
          -141 -78 -90 -160 -159 74 -89 136 51 55 18 32 46 hvcurveto
          2 18 -6 2 rlineto
          -32 -43 -54 -19 -52 hhcurveto
          -121 -67 81 148 149 69 82 129 48 47 -16 -27 37 hvcurveto
          6 hlineto
          6 18 rlineto
          28 -40 -53 16 -51 hhcurveto
          endchar
        </CharString>
        <CharString name="caron">
          520 21 105 -20 hstem
          85 220 vstem
          296 658 rmoveto
          -5 hlineto
          -35 -39 -30 -37 -31 -41 -31 41 -30 37 -35 39 rrcurveto
          -5 hlineto
          -9 -12 33 -37 31 -40 37 -49 rlinecurve
          18 hlineto
          37 49 31 40 33 37 rrcurveto
          endchar
        </CharString>
        <CharString name="caron.alt">
          505 150 hstem
          185 20 vstem
          211 651 rmoveto
          -3 4 -17 -2 -12 -144 3 -4 17 2 rlineto
          endchar
        </CharString>
        <CharString name="caron.cap">
          544 20 hstem
          88 214 vstem
          295 634 rmoveto
          -5 hlineto
          -33 -23 -31 -23 -31 -24 -31 24 -31 23 -33 23 rrcurveto
          -5 hlineto
          -7 -14 34 -24 33 -26 33 -26 rlinecurve
          16 hlineto
          31 26 33 26 34 24 rrcurveto
          endchar
        </CharString>
        <CharString name="ccaron">
          -38 -4 19 460 19 65 21 hstem
          58 21 vstem
          358 697 rmoveto
          -5 hlineto
          -35 -39 -30 -37 -31 -41 -31 41 -30 37 -35 39 rrcurveto
          -5 hlineto
          -9 -12 33 -37 31 -40 37 -49 rlinecurve
          18 hlineto
          37 49 31 40 33 37 rrcurveto
          -90 -191 rmoveto
          -141 -78 -90 -160 -159 74 -89 136 51 55 18 32 46 hvcurveto
          2 18 -6 2 rlineto
          -32 -43 -54 -19 -52 hhcurveto
          -121 -67 81 148 149 69 82 129 48 47 -16 -27 37 hvcurveto
          6 hlineto
          6 18 rlineto
          28 -40 -53 16 -51 hhcurveto
          endchar
        </CharString>
        <CharString name="ccedilla">
          -38 -178 20 154 19 460 19 hstem
          58 21 225 20 vstem
          422 64 rmoveto
          -6 2 rlineto
          -32 -43 -54 -19 -52 hhcurveto
          -121 -67 81 148 149 69 82 129 48 47 -16 -27 37 hvcurveto
          6 hlineto
          6 18 rlineto
          28 -40 -53 16 -51 hhcurveto
          -141 -78 -90 -160 -154 70 -89 128 -5 hvcurveto
          -20 -60 44 -28 rlineto
          15 -10 9 -7 -16 vvcurveto
          -21 -16 -12 -24 -25 -12 13 18 -12 vhcurveto
          -4 hlineto
          -6 -18 rlineto
          -15 10 19 -18 30 hhcurveto
          32 28 20 33 22 -11 14 -22 14 hvcurveto
          -31 20 16 51 49 2 51 18 44 30 rlinecurve
          endchar
        </CharString>
        <CharString name="ccircumflex">
          -38 -4 19 460 19 182 21 hstem
          58 21 vstem
          156 559 rmoveto
          5 hlineto
          35 39 30 37 31 41 31 -41 30 -37 35 -39 rrcurveto
          5 hlineto
          9 12 -33 37 -31 40 -37 49 rlinecurve
          -18 hlineto
          -37 -49 -31 -40 -33 -37 rrcurveto
          130 -77 rmoveto
          -141 -78 -90 -160 -159 74 -89 136 51 55 18 32 46 hvcurveto
          2 18 -6 2 rlineto
          -32 -43 -54 -19 -52 hhcurveto
          -121 -67 81 148 149 69 82 129 48 47 -16 -27 37 hvcurveto
          6 hlineto
          6 18 rlineto
          28 -40 -53 16 -51 hhcurveto
          endchar
        </CharString>
        <CharString name="cdotaccent">
          -38 -4 19 460 19 136 40 hstem
          58 21 vstem
          257 670 rmoveto
          -12 0 -8 -8 0 -12 0 -12 8 -8 0 flex1
          12 0 8 8 0 12 0 12 -8 8 0 flex1
          20 -176 rmoveto
          -141 -78 -90 -160 -159 74 -89 136 51 55 18 32 46 hvcurveto
          2 18 -6 2 rlineto
          -32 -43 -54 -19 -52 hhcurveto
          -121 -67 81 148 149 69 82 129 48 47 -16 -27 37 hvcurveto
          6 hlineto
          6 18 rlineto
          28 -40 -53 16 -51 hhcurveto
          endchar
        </CharString>
        <CharString name="cedilla">
          -178 20 hstem
          233 20 vstem
          189 -55 rmoveto
          21 66 rlineto
          -20 hlineto
          -25 -75 44 -28 rlineto
          15 -10 9 -7 -16 vvcurveto
          -21 -16 -12 -24 -25 -12 13 18 -12 vhcurveto
          -4 hlineto
          -6 -18 rlineto
          -15 10 19 -18 30 hhcurveto
          32 28 20 33 22 -11 14 -22 14 hvcurveto
          endchar
        </CharString>
        <CharString name="cent">
          -121 41 20 383 17 20 20 -18 20 142 -20 25 -20 hstemhm
          51 20 116.5 19.5 32.5 20.5 hintmask 1001011110000000
          361 102 rmoveto
          -6 2 rlineto
          -26 -34 -49 -17 -44 hhcurveto
          -12 hlineto
          hintmask 1010011110000000
          36 420 rlineto
          hintmask 1101011110000000
          35 -5 34 -15 23 -17 rrcurveto
          6 hlineto
          7 17 rlineto
          hintmask 1010101110000000
          -27 20 -38 15 -38 5 12 144 rcurveline
          -4 5 rlineto
          hintmask 1001011110000000
          -16 hlineto
          -13 -147 rlineto
          -5 hlineto
          -107 -70 -92 -143 -122 55 -85 88 -17 hvcurveto
          -13 -154 4 -4 rlineto
          15 hlineto
          14 155 rlineto
          13 hlineto
          49 49 18 25 34 hvcurveto
          -288 184 rmoveto
          131 62 84 95 vhcurveto
          3 hlineto
          -35 -419 rlineto
          -77 17 -48 77 110 vvcurveto
          endchar
        </CharString>
        <CharString name="circle1">
          -64 9 -21 476 -20 hstem
          -17 476 vstem
          221 464 rmoveto
          -131 -107 -107 -131 -131 107 -107 131 131 107 107 131 131 -107 107 -131 hvcurveto
          endchar
        </CharString>
        <CharString name="circle2">
          126 649 -20 hstem
          -16 663 vstem
          315 649 rmoveto
          -183 -148 -149 -183 -183 148 -148 183 183 149 148 183 183 -149 149 -183 hvcurveto
          endchar
        </CharString>
        <CharString name="circumflex">
          637 21 hstem
          85 220 vstem
          94 520 rmoveto
          5 hlineto
          35 39 30 37 31 41 31 -41 30 -37 35 -39 rrcurveto
          5 hlineto
          9 12 -33 37 -31 40 -37 49 rlinecurve
          -18 hlineto
          -37 -49 -31 -40 -33 -37 rrcurveto
          endchar
        </CharString>
        <CharString name="circumflex.cap">
          623 20 hstem
          88 214 vstem
          95 553 rmoveto
          5 hlineto
          33 23 31 23 31 24 31 -24 31 -23 33 -23 rrcurveto
          5 hlineto
          7 14 -34 24 -33 26 -33 26 rlinecurve
          -16 hlineto
          -31 -26 -33 -26 -34 -24 rrcurveto
          endchar
        </CharString>
        <CharString name="circumflexacute">
          603 20 -4 11 70 10 0 -20 hstemhm
          88 243 hintmask 00000000
          hintmask 01101000
          331 700 rmoveto
          -11 9 -5 1 -70 -80 11 -11 rlineto
          6 hlineto
          68 76 rlineto
          hintmask 10011000
          -235 -162 rmoveto
          5 hlineto
          33 23 31 23 31 24 31 -24 31 -23 33 -23 rrcurveto
          5 hlineto
          7 14 -34 24 -33 26 -33 26 rlinecurve
          -16 hlineto
          -31 -26 -33 -26 -34 -24 rrcurveto
          endchar
        </CharString>
        <CharString name="circumflexgrave">
          603 20 -4 11 80 -20 hstemhm
          88 219 hintmask 10110000
          237 710 rmoveto
          -5 -1 -11 -9 1 -5 rlineto
          hintmask 01110000
          68 -76 rlineto
          6 hlineto
          11 11 rlineto
          hintmask 10110000
          -212 -97 rmoveto
          5 hlineto
          33 23 31 23 31 24 31 -24 31 -23 33 -23 rrcurveto
          5 hlineto
          7 14 -34 24 -33 26 -33 26 rlinecurve
          -16 hlineto
          -31 -26 -33 -26 -34 -24 rrcurveto
          endchar
        </CharString>
        <CharString name="circumflexhookabove">
          603 20 15 -20 99 20 hstemhm
          304 19 hintmask 01110000
          282 737 rmoveto
          -19 -21 -10 -18 -21 hvcurveto
          7 -13 rlineto
          14 17 19 7 16 hhcurveto
          15 9 -7 -12 -14 -17 -20 -31 -21 hvcurveto
          21 -39 16 7 -15 27 rlineto
          29 22 16 21 19 vvcurveto
          20 -17 17 -24 vhcurveto
          hintmask 10110000
          -187 -204 rmoveto
          5 hlineto
          33 23 31 23 31 24 31 -24 31 -23 33 -23 rrcurveto
          5 hlineto
          7 14 -34 24 -33 26 -33 26 rlinecurve
          -16 hlineto
          -31 -26 -33 -26 -34 -24 rrcurveto
          endchar
        </CharString>
        <CharString name="circumflextilde">
          603 20 35 22 15 22 hstemhm
          66 265 hintmask 11010000
          331 710 rmoveto
          -9 11 rlineto
          -3 hlineto
          -24 -26 -12 -17 -11 hhcurveto
          hintmask 11110000
          -24 -89 34 4 -35 hvcurveto
          -6 -2 -50 -47 rlineto
          -4 vlineto
          9 -11 rlineto
          4 hlineto
          24 25 13 17 10 hhcurveto
          hintmask 11010000
          24 90 -34 -4 35 hvcurveto
          5 2 50 47 rlineto
          -236 -173 rmoveto
          5 hlineto
          33 23 31 23 31 24 31 -24 31 -23 33 -23 rrcurveto
          5 hlineto
          7 14 -34 24 -33 26 -33 26 rlinecurve
          -16 hlineto
          -31 -26 -33 -26 -34 -24 rrcurveto
          endchar
        </CharString>
        <CharString name="colon">
          -275 -2 40 237 40 hstem
          91 40 vstem
          111 315 rmoveto
          -12 0 -8 -8 0 -12 0 -12 8 -8 0 flex1
          12 0 8 8 0 12 0 12 -8 8 0 flex1
          -277 vmoveto
          -12 0 -8 -8 0 -12 0 -12 8 -8 0 flex1
          12 0 8 8 0 12 0 12 -8 8 0 flex1
          endchar
        </CharString>
        <CharString name="comma">
          -275 -79 -21 hstem
          128 21 vstem
          111 41 rmoveto
          -6 -3 -4 -4 -3 -4 rrcurveto
          -4 vlineto
          19 -9 11 -12 -13 vvcurveto
          -24 -19 -28 -35 -26 vhcurveto
          -1 -3 10 -11 rlineto
          43 33 23 33 27 vvcurveto
          20 -14 17 -24 11 vhcurveto
          endchar
        </CharString>
        <CharString name="commaaccent">
          -505 -211 141 hstem
          124 21 vstem
          107 -70 rmoveto
          -6 -3 -4 -4 -3 -4 rrcurveto
          -4 vlineto
          19 -9 11 -12 -13 vvcurveto
          -24 -19 -28 -35 -26 vhcurveto
          -1 -3 10 -11 rlineto
          43 33 23 33 27 vvcurveto
          20 -14 17 -24 11 vhcurveto
          endchar
        </CharString>
        <CharString name="copyright">
          177 -12 20 117 20 300 20 113 20 hstem
          49 20 130 20 393 20 vstem
          340 598 rmoveto
          -175 -116 -122 -183 -183 116 -122 175 175 117 122 183 183 -117 122 -175 hvcurveto
          -20 vmoveto
          163 109 -114 -171 -171 -109 -114 -163 -163 -108 114 171 171 108 114 163 hvcurveto
          9 -113 rmoveto
          -97 -53 -61 -109 -109 50 -61 94 34 37 13 19 31 hvcurveto
          2 19 -4 1 rlineto
          -21 -29 -37 -11 -33 hhcurveto
          -80 -45 53 97 97 46 53 84 32 32 -9 -18 24 hvcurveto
          5 hlineto
          5 18 rlineto
          18 -28 -35 11 -35 hhcurveto
          endchar
        </CharString>
        <CharString name="currency">
          -69 237 20 194 -20 46 20 hstemhm
          77 20 220 20 hintmask 10111000
          370 520 rmoveto
          -10 10 -5 1 -65 -65 rlineto
          19 -23 -29 12 -31 hhcurveto
          hintmask 11111000
          -31 -30 -12 -20 -22 hvcurveto
          -66 66 rlineto
          -5 hlineto
          -9 -9 -1 -5 66 -66 rlineto
          -20 -23 -12 -29 -32 vvcurveto
          -31 12 -30 20 -22 vhcurveto
          -65 -65 -1 -5 10 -10 5 -1 66 66 rlineto
          -20 22 30 -12 31 hhcurveto
          31 30 12 20 22 hvcurveto
          65 -65 5 -1 10 10 1 5 -66 66 rlineto
          20 22 12 30 31 vvcurveto
          32 -12 29 -20 23 vhcurveto
          hintmask 10111000
          64 64 rlineto
          -162 -38 rmoveto
          60 50 -50 -60 -60 -50 -50 -60 -60 -50 50 60 60 50 50 60 hvcurveto
          endchar
        </CharString>
        <CharString name="d">
          56 -4 19 6 -21 475 20 -4 -20 hstemhm
          108 20 355 20 hintmask 00000000
          hintmask 01011100
          108 491 rmoveto
          -491 vlineto
          hintmask 10101100
          -2 37 99 -2 22 hhcurveto
          152 85 95 170 150 -81 84 -147 hvcurveto
          -8 -480 rmoveto
          -19 -86 2 2 -34 hvcurveto
          hintmask 10011100
          452 vlineto
          hintmask 10101100
          1 33 96 3 17 hhcurveto
          135 74 -76 -139 -158 -78 -87 -138 hvcurveto
          endchar
        </CharString>
        <CharString name="d.sups">
          -170 347 19 259 19 hstem
          39 21 189 20 vstem
          270 799 rmoveto
          -22 -3 rlineto
          -162 vlineto
          6 -23 -23 4 -21 hhcurveto
          -90 -52 -56 -99 -89 47 -53 69 37 29 17 30 26 hvcurveto
          2 hlineto
          -33 2 12 -13 24 hhcurveto
          11 11 3 6 9 hvcurveto
          4 16 -4 2 rlineto
          -6 -8 -10 -3 -8 hhcurveto
          -16 -7 11 25 hvcurveto
          -89 223 rmoveto
          23 23 -4 -7 23 hvcurveto
          -197 vlineto
          -34 -26 -30 -17 -36 hhcurveto
          -58 -39 45 80 86 44 48 76 hvcurveto
          endchar
        </CharString>
        <CharString name="dagger">
          -44 -73 -21 468 20 194 -20 hstem
          221 20 vstem
          415 374 rmoveto
          2 17 -3 3 rlineto
          -173 192 hlineto
          -2 2 -18 -2 rlineto
          -192 -174 vlineto
          -2 -17 3 -3 rlineto
          173 -464 hlineto
          3 -4 rlineto
          17 468 hlineto
          endchar
        </CharString>
        <CharString name="daggerdbl">
          -44 -73 -21 194 20 254 20 194 -20 hstem
          221 20 vstem
          414 120 rmoveto
          -173 254 174 hlineto
          2 17 -3 3 rlineto
          -173 192 hlineto
          -2 2 -18 -2 rlineto
          -192 -174 vlineto
          -2 -17 3 -3 rlineto
          173 -254 -174 hlineto
          -2 -17 3 -3 rlineto
          173 -190 hlineto
          3 -4 rlineto
          17 194 174 hlineto
          2 17 rlineto
          endchar
        </CharString>
        <CharString name="dcaron">
          56 -4 19 6 -21 475 20 -4 -20 88 21 hstemhm
          108 20 355 20 hintmask 10101110
          272 559 rmoveto
          37 49 31 40 33 37 -9 12 rcurveline
          -5 hlineto
          -35 -39 -30 -37 -31 -41 -31 41 -30 37 -35 39 rrcurveto
          -5 hlineto
          -9 -12 33 -37 31 -40 37 -49 rlinecurve
          hintmask 01011110
          -146 -68 rmoveto
          -491 vlineto
          hintmask 10101110
          -2 37 99 -2 22 hhcurveto
          152 85 95 170 150 -81 84 -147 hvcurveto
          -8 -480 rmoveto
          -19 -86 2 2 -34 hvcurveto
          hintmask 10011110
          452 vlineto
          hintmask 10101110
          1 33 96 3 17 hhcurveto
          135 74 -76 -139 -158 -78 -87 -138 hvcurveto
          endchar
        </CharString>
        <CharString name="dcroat">
          56 -4 19 6 -21 475 20 -4 -20 155 17 -17 20 hstemhm
          108 20 355 20 hintmask 10100111
          120 626 rmoveto
          287 hlineto
          hintmask 10101011
          2 17 -3 3 rlineto
          hintmask 10100111
          -287 hlineto
          -2 -17 rlineto
          hintmask 01010111
          -9 -138 rmoveto
          -491 vlineto
          hintmask 10100111
          -2 37 99 -2 22 hhcurveto
          152 85 95 170 150 -81 84 -147 hvcurveto
          -8 -480 rmoveto
          -19 -86 2 2 -34 hvcurveto
          hintmask 10010111
          452 vlineto
          hintmask 10100111
          1 33 96 3 17 hhcurveto
          135 74 -76 -139 -158 -78 -87 -138 hvcurveto
          endchar
        </CharString>
        <CharString name="degree">
          -211 403 20 199 20 hstem
          25 20 203 20 vstem
          147 642 rmoveto
          -68 -54 -53 -67 -67 54 -52 68 67 54 52 67 67 -54 53 -67 hvcurveto
          -20 vmoveto
          54 47 -46 -54 -53 -47 -46 -54 -54 -48 46 53 54 48 46 54 hvcurveto
          endchar
        </CharString>
        <CharString name="dieresis">
          575 40 hstem
          124 140 vstem
          124 615 rmoveto
          -12 0 -8 -8 0 -12 0 -12 8 -8 0 flex1
          12 0 8 8 0 12 0 12 -8 8 0 flex1
          140 hmoveto
          -12 0 -8 -8 0 -12 0 -12 8 -8 0 flex1
          12 0 8 8 0 12 0 12 -8 8 0 flex1
          endchar
        </CharString>
        <CharString name="dieresis.i">
          575 40 hstem
          144 100 vstem
          144 615 rmoveto
          -12 0 -8 -8 0 -12 0 -12 8 -8 0 flex1
          12 0 8 8 0 12 0 12 -8 8 0 flex1
          100 hmoveto
          -12 0 -8 -8 0 -12 0 -12 8 -8 0 flex1
          12 0 8 8 0 12 0 12 -8 8 0 flex1
          endchar
        </CharString>
        <CharString name="dieresisacute">
          555 40 hstem
          124 140 vstem
          291 733 rmoveto
          -4 3 -72 -27 -60 -19 -58 -16 rlinecurve
          4 -16 5 -4 63 19 60 19 64 23 rlinecurve
          3 5 rlineto
          -172 -125 rmoveto
          -12 0 -8 -8 0 -12 0 -12 8 -8 0 flex1
          12 0 8 8 0 12 0 12 -8 8 0 flex1
          140 hmoveto
          -12 0 -8 -8 0 -12 0 -12 8 -8 0 flex1
          12 0 8 8 0 12 0 12 -8 8 0 flex1
          endchar
        </CharString>
        <CharString name="dieresiscaron">
          555 40 33 20 56 -20 hstem
          124 140 vstem
          295 718 rmoveto
          -5 hlineto
          -33 -23 -31 -23 -31 -24 -31 24 -31 23 -33 23 rrcurveto
          -5 hlineto
          -7 -14 34 -24 33 -26 33 -26 rlinecurve
          16 hlineto
          31 26 33 26 34 24 rrcurveto
          -178 -109 rmoveto
          -12 0 -8 -8 0 -12 0 -12 8 -8 0 flex1
          12 0 8 8 0 12 0 12 -8 8 0 flex1
          140 hmoveto
          -12 0 -8 -8 0 -12 0 -12 8 -8 0 flex1
          12 0 8 8 0 12 0 12 -8 8 0 flex1
          endchar
        </CharString>
        <CharString name="dieresisgrave">
          555 40 hstemhm
          124 140 23 7 hintmask 11000000
          102 733 rmoveto
          -5 -13 3 -5 rlineto
          hintmask 11100000
          64 -23 60 -19 63 -19 5 4 rcurveline
          4 16 rlineto
          hintmask 11000000
          -58 16 -60 19 -72 27 rrcurveto
          18 -141 rmoveto
          -12 0 -8 -8 0 -12 0 -12 8 -8 0 flex1
          12 0 8 8 0 12 0 12 -8 8 0 flex1
          140 hmoveto
          -12 0 -8 -8 0 -12 0 -12 8 -8 0 flex1
          12 0 8 8 0 12 0 12 -8 8 0 flex1
          endchar
        </CharString>
        <CharString name="dieresismacron">
          555 40 76 20 hstem
          124 140 vstem
          316 688 rmoveto
          -3 3 rlineto
          -237 hlineto
          -2 -17 3 -3 rlineto
          237 hlineto
          -190 -76 rmoveto
          -12 0 -8 -8 0 -12 0 -12 8 -8 0 flex1
          12 0 8 8 0 12 0 12 -8 8 0 flex1
          140 hmoveto
          -12 0 -8 -8 0 -12 0 -12 8 -8 0 flex1
          12 0 8 8 0 12 0 12 -8 8 0 flex1
          endchar
        </CharString>
        <CharString name="divide">
          -25 68 40 152 20 151 40 hstem
          54 402 vstem
          264 471 rmoveto
          -12 0 -8 -8 0 -12 0 -12 8 -8 0 flex1
          12 0 8 8 0 12 0 12 -8 8 0 flex1
          192 -194 rmoveto
          -3 3 rlineto
          -397 hlineto
          -2 -17 3 -3 rlineto
          397 hlineto
          -190 -152 rmoveto
          -12 0 -8 -8 0 -12 0 -12 8 -8 0 flex1
          12 0 8 8 0 12 0 12 -8 8 0 flex1
          endchar
        </CharString>
        <CharString name="divisionslash">
          -214 -85 -21 hstem
          47 223 vstem
          270 670 rmoveto
          -3 5 rlineto
          -16 hlineto
          -204 -781 3 -4 rlineto
          16 hlineto
          endchar
        </CharString>
        <CharString name="dollar">
          -88 -3 19 458 18 -18 19 147 -20 hstemhm
          73 20 81 19.5 34 20.5 73 20 hintmask 10111111
          341 126 rmoveto
          70 -59 31 -61 28 vhcurveto
          hintmask 11011111
          19 218 23 -2 26 -7 25 -12 rlinecurve
          6 1 4 18 -30 13 -29 6 -23 2 rlinecurve
          12 143 -4 5 rlineto
          -16 hlineto
          hintmask 10111111
          -13 -147 rlineto
          -88 -60 -55 -67 -71 64 -30 63 -29 hvcurveto
          -19 -225 -37 1 -44 12 -33 24 rlinecurve
          -5 -1 -1 -19 34 -22 45 -12 39 -2 rlinecurve
          -10 -117 4 -4 rlineto
          15 hlineto
          11 121 rlineto
          85 5 57 58 66 vvcurveto
          -248 243 rmoveto
          49 45 56 81 vhcurveto
          -17 -210 rlineto
          -57 26 -52 25 54 vvcurveto
          126 -137 rmoveto
          54 -25 48 -27 -55 vvcurveto
          -51 -45 -52 -75 -5 vhcurveto
          endchar
        </CharString>
        <CharString name="dotaccent">
          -273 591 40 hstem
          95 40 vstem
          115 631 rmoveto
          -12 0 -8 -8 0 -12 0 -12 8 -8 0 flex1
          12 0 8 8 0 12 0 12 -8 8 0 flex1
          endchar
        </CharString>
        <CharString name="dotbelowcomb">
          -505 -128 40 hstem
          95 40 vstem
          115 -88 rmoveto
          -12 0 -8 -8 0 -12 0 -12 8 -8 0 flex1
          12 0 8 8 0 12 0 12 -8 8 0 flex1
          endchar
        </CharString>
        <CharString name="dotlessi">
          -268 21 -21 491 -20 hstem
          108 20 vstem
          128 hmoveto
          491 -20 -491 vlineto
          endchar
        </CharString>
        <CharString name="dotlessj">
          -244 472 19 hstem
          133 20 vstem
          153 491 rmoveto
          -122 hlineto
          -3 -16 3 -3 rlineto
          102 -384 hlineto
          -64 -24 -42 -61 -42 vhcurveto
          -5 vlineto
          12 -11 rlineto
          68 47 25 45 73 vvcurveto
          endchar
        </CharString>
        <CharString name="down">
          -104 76 270 hstem
          66 270 vstem
          201 76 rmoveto
          135 270 rlineto
          -270 hlineto
          endchar
        </CharString>
        <CharString name="e">
          -93 0 19 225 20 207.5 19.5 hstem
          108 20 vstem
          370 16 rmoveto
          -3 3 rlineto
          -239 225 194 hlineto
          3 16 -2 4 rlineto
          -195 208 hlineto
          235 -1 4 16 -3 4 rlineto
          -256 -491 258 hlineto
          endchar
        </CharString>
        <CharString name="e.sups">
          -221 346 19 144 16 101 18 hstem
          39 21 185 20 vstem
          161 644 rmoveto
          -74 -48 -59 -93 -88 46 -58 77 34 33 11 16 25 hvcurveto
          3 19 -4 2 rlineto
          -19 -24 -33 -10 -32 hhcurveto
          -66 -38 50 78 hvcurveto
          1 16 rlineto
          198 hlineto
          5 5 rlineto
          6 1 9 4 vvcurveto
          68 -39 43 -65 vhcurveto
          -99 -119 rmoveto
          62 9 37 39 53 hhcurveto
          51 33 -35 -56 -2 0 -2 -1 -6 hvcurveto
          endchar
        </CharString>
        <CharString name="eacute">
          -93 0 19 225 20 207.5 19.5 206 11 0 -20 hstemhm
          108 20 hintmask 11101100
          199 558 rmoveto
          5 -1 rlineto
          hintmask 11110100
          50 44 46 43 48 48 1 5 rcurveline
          -10 10 -5 1 -54 -55 -46 -43 -46 -39 rlinecurve
          182 -555 rmoveto
          -3 3 rlineto
          -239 225 194 hlineto
          3 16 -2 4 rlineto
          -195 208 hlineto
          235 -1 4 16 -3 4 rlineto
          -256 -491 258 hlineto
          endchar
        </CharString>
        <CharString name="ebreve">
          -93 0 19 225 20 207.5 19.5 70 20 hstem
          108 20 192 18 vstem
          237 561 rmoveto
          56 32 33 72 13 hvcurveto
          -13 13 rlineto
          -5 hlineto
          -67 -9 -26 -31 -48 hhcurveto
          -48 -26 31 67 -9 hvcurveto
          -5 hlineto
          -13 -13 rlineto
          -72 13 32 -33 56 hhcurveto
          133 -545 rmoveto
          -3 3 rlineto
          -239 225 194 hlineto
          3 16 -2 4 rlineto
          -195 208 hlineto
          235 -1 4 16 -3 4 rlineto
          -256 -491 258 hlineto
          endchar
        </CharString>
        <CharString name="ecaron">
          -93 0 19 225 20 207.5 19.5 68 21 hstem
          108 20 vstem
          246 559 rmoveto
          37 49 31 40 33 37 -9 12 rcurveline
          -5 hlineto
          -35 -39 -30 -37 -31 -41 -31 41 -30 37 -35 39 rrcurveto
          -5 hlineto
          -9 -12 33 -37 31 -40 37 -49 rlinecurve
          142 -543 rmoveto
          -3 3 rlineto
          -239 225 194 hlineto
          3 16 -2 4 rlineto
          -195 208 hlineto
          235 -1 4 16 -3 4 rlineto
          -256 -491 258 hlineto
          endchar
        </CharString>
        <CharString name="ecircumflex">
          -93 0 19 225 20 207.5 19.5 185 21 hstem
          108 20 vstem
          136 559 rmoveto
          5 hlineto
          35 39 30 37 31 41 31 -41 30 -37 35 -39 rrcurveto
          5 hlineto
          9 12 -33 37 -31 40 -37 49 rlinecurve
          -18 hlineto
          -37 -49 -31 -40 -33 -37 rrcurveto
          243 -555 rmoveto
          -3 3 rlineto
          -239 225 194 hlineto
          3 16 -2 4 rlineto
          -195 208 hlineto
          235 -1 4 16 -3 4 rlineto
          -256 -491 258 hlineto
          endchar
        </CharString>
        <CharString name="ecircumflexacute">
          -93 0 19 225 20 207.5 19.5 81 14 56 20 -4 11 hstemhm
          108 20 hintmask 00000000
          hintmask 11110110
          373 739 rmoveto
          -11 9 -5 1 -70 -80 11 -11 rlineto
          6 hlineto
          68 76 rlineto
          -235 -162 rmoveto
          5 hlineto
          hintmask 11111010
          33 23 31 23 31 24 31 -24 31 -23 33 -23 rrcurveto
          5 hlineto
          7 14 -34 24 -33 26 -33 26 rlinecurve
          -16 hlineto
          -31 -26 -33 -26 -34 -24 rrcurveto
          237 -567 rmoveto
          -239 225 194 hlineto
          3 16 -2 4 rlineto
          -195 208 hlineto
          235 -1 4 16 -3 4 rlineto
          -256 -491 258 hlineto
          4 16 rlineto
          endchar
        </CharString>
        <CharString name="ecircumflexdotbelow">
          -93 -128 40 88 19 225 20 207.5 19.5 185 21 hstem
          108 20 vstem
          136 559 rmoveto
          5 hlineto
          35 39 30 37 31 41 31 -41 30 -37 35 -39 rrcurveto
          5 hlineto
          9 12 -33 37 -31 40 -37 49 rlinecurve
          -18 hlineto
          -37 -49 -31 -40 -33 -37 rrcurveto
          243 -555 rmoveto
          -3 3 rlineto
          -239 225 194 hlineto
          3 16 -2 4 rlineto
          -195 208 hlineto
          235 -1 4 16 -3 4 rlineto
          -256 -491 258 hlineto
          -128 -88 rmoveto
          -12 0 -8 -8 0 -12 0 -12 8 -8 0 flex1
          12 0 8 8 0 12 0 12 -8 8 0 flex1
          endchar
        </CharString>
        <CharString name="ecircumflexgrave">
          -93 0 19 225 20 207.5 19.5 81 14 56 20 -4 11 hstemhm
          108 20 hintmask 00000000
          hintmask 11110110
          264 734 rmoveto
          68 -76 rlineto
          6 hlineto
          11 11 -70 80 -5 -1 -11 -9 rlineto
          -126 -167 rmoveto
          5 hlineto
          hintmask 11111010
          33 23 31 23 31 24 31 -24 31 -23 33 -23 rrcurveto
          5 hlineto
          7 14 -34 24 -33 26 -33 26 rlinecurve
          -16 hlineto
          -31 -26 -33 -26 -34 -24 rrcurveto
          240 -570 rmoveto
          -3 3 rlineto
          -239 225 194 hlineto
          3 16 -2 4 rlineto
          -195 208 hlineto
          235 -1 4 16 -3 4 rlineto
          -256 -491 258 hlineto
          endchar
        </CharString>
        <CharString name="ecircumflexhookabove">
          -93 0 19 225 20 207.5 19.5 81 14 0 -20 76 20 94 20 hstemhm
          108 20 218 19 hintmask 1110111110000000
          322 756 rmoveto
          15 9 -7 -12 -14 -17 -20 -31 -21 hvcurveto
          21 -39 16 7 -15 27 rlineto
          29 22 16 21 19 vvcurveto
          20 -17 17 -24 -19 -21 -10 -18 -21 vhcurveto
          7 -13 rlineto
          14 17 19 7 16 hhcurveto
          hintmask 1111011110000000
          -185 -184 rmoveto
          5 hlineto
          33 23 31 23 31 24 31 -24 31 -23 33 -23 rrcurveto
          5 hlineto
          7 14 -34 24 -33 26 -33 26 rlinecurve
          -16 hlineto
          -31 -26 -33 -26 -34 -24 rrcurveto
          240 -570 rmoveto
          -3 3 rlineto
          -239 225 194 hlineto
          3 16 -2 4 rlineto
          -195 208 hlineto
          235 -1 4 16 -3 4 rlineto
          -256 -491 258 hlineto
          endchar
        </CharString>
        <CharString name="ecircumflextilde">
          -93 0 19 225 20 207.5 19.5 81 14 0 -20 76 20 35 22 -11 -20 46 22 hstemhm
          108 20 hintmask 0000000000000000
          hintmask 1110111001000000
          373 749 rmoveto
          -9 11 rlineto
          -3 hlineto
          -24 -26 -12 -17 -11 hhcurveto
          hintmask 1110110111000000
          -24 -89 34 4 -35 hvcurveto
          -6 -2 rlineto
          hintmask 1110110101000000
          -50 -47 rlineto
          -4 vlineto
          9 -11 rlineto
          4 hlineto
          hintmask 1110110111000000
          24 25 13 17 10 hhcurveto
          hintmask 1110111001000000
          24 90 -34 -4 35 hvcurveto
          5 2 50 47 rlineto
          hintmask 1111010101000000
          -136 -103 rmoveto
          31 -24 31 -23 33 -23 rrcurveto
          5 hlineto
          7 14 -34 24 -33 26 -33 26 rlinecurve
          -16 hlineto
          -31 -26 -33 -26 -34 -24 7 -14 rcurveline
          5 hlineto
          33 23 31 23 31 24 rrcurveto
          130 -623 rmoveto
          -239 225 194 hlineto
          3 16 -2 4 rlineto
          -195 208 hlineto
          235 -1 4 16 -3 4 rlineto
          -256 -491 258 hlineto
          4 16 rlineto
          endchar
        </CharString>
        <CharString name="edieresis">
          -93 0 19 225 20 207.5 19.5 123 40 hstem
          108 20 39 140 vstem
          167 614 rmoveto
          12 0 8 8 0 12 0 12 -8 8 0 flex1
          -12 0 -8 -8 0 -12 0 -12 8 -8 0 flex1
          140 hmoveto
          12 0 8 8 0 12 0 12 -8 8 0 flex1
          -12 0 -8 -8 0 -12 0 -12 8 -8 0 flex1
          63 -598 rmoveto
          -3 3 rlineto
          -239 225 194 hlineto
          3 16 -2 4 rlineto
          -195 208 hlineto
          235 -1 4 16 -3 4 rlineto
          -256 -491 258 hlineto
          endchar
        </CharString>
        <CharString name="edotaccent">
          -93 0 19 225 20 207.5 19.5 139 40 hstem
          108 20 vstem
          237 630 rmoveto
          12 0 8 8 0 12 0 12 -8 8 0 flex1
          -12 0 -8 -8 0 -12 0 -12 8 -8 0 flex1
          133 -614 rmoveto
          -3 3 rlineto
          -239 225 194 hlineto
          3 16 -2 4 rlineto
          -195 208 hlineto
          235 -1 4 16 -3 4 rlineto
          -256 -491 258 hlineto
          endchar
        </CharString>
        <CharString name="edotbelow">
          -93 -128 40 88 19 225 20 207.5 19.5 hstem
          108 20 vstem
          370 16 rmoveto
          -3 3 rlineto
          -239 225 194 hlineto
          3 16 -2 4 rlineto
          -195 208 hlineto
          235 -1 4 16 -3 4 rlineto
          -256 -491 258 hlineto
          -128 -88 rmoveto
          -12 0 -8 -8 0 -12 0 -12 8 -8 0 flex1
          12 0 8 8 0 12 0 12 -8 8 0 flex1
          endchar
        </CharString>
        <CharString name="egrave">
          -93 0 19 225 20 207.5 19.5 217 -20 hstem
          108 20 vstem
          307 558 rmoveto
          11 13 -46 39 -46 43 -54 55 rlinecurve
          -5 -1 -10 -10 1 -5 48 -48 46 -43 50 -44 rlinecurve
          68 -541 rmoveto
          -3 3 rlineto
          -239 225 194 hlineto
          3 16 -2 4 rlineto
          -195 208 hlineto
          235 -1 4 16 -3 4 rlineto
          -256 -491 258 hlineto
          endchar
        </CharString>
        <CharString name="ehookabove">
          -93 0 19 225 20 207.5 19.5 205 20 hstem
          108 20 135 20 vstem
          237 696 rmoveto
          16 10 -8 -12 -15 -18 -21 -33 -22 hvcurveto
          22 -41 17 7 -16 29 rlineto
          31 23 17 22 20 vvcurveto
          21 -18 17 -26 -19 -23 -10 -19 -22 vhcurveto
          8 -14 rlineto
          15 18 20 8 16 hhcurveto
          133 -680 rmoveto
          -3 3 rlineto
          -239 225 194 hlineto
          3 16 -2 4 rlineto
          -195 208 hlineto
          235 -1 4 16 -3 4 rlineto
          -256 -491 258 hlineto
          endchar
        </CharString>
</ttFont>
